<svg xmlns="http://www.w3.org/2000/svg" width="1018.98" height="2861.0247" viewBox="0 0 1018.98 2861.0247">
  <g id="Layer_2" data-name="Layer 2">
    <g id="finished_guitar" data-name="finished guitar">
      <g id="silhouette-guitars">
        <g id="cool-runnings">
          <path d="M465.4309,1531.1085H621.8418s2.4844,26.4755,28.6278,33.7313c12.19,39.6278,43.1812,127.9894,43.1812,127.9894v687.9491s-68.9447-37.3354-104.1074-41.2424c-42.4185,18.9767-196.365,111.0289-196.365,111.0289V1692.8292s5.4817-23.6175,45.6676-135.2452C461.1716,1545.8631,465.4309,1531.1085,465.4309,1531.1085Z"/>
          <rect id="plate" x="393.1784" y="1692.8292" width="300.4724" height="354.2835"/>
          <rect x="479.9643" y="1485.8522" width="126.9048" height="215.6197"/>
          <g id="bridge_hole" data-name="bridge hole">
            <rect x="499.4804" y="2142.9153" width="87.874" height="198.4236" transform="translate(2785.5445 1698.7096) rotate(90)"/>
            <rect x="411.771" y="2079.135" width="269.2913" height="119.0551"/>
            <g id="Rectangle_11" data-name="Rectangle 11">
              <rect x="411.771" y="2079.1349" width="269.2915" height="48.189"/>
            </g>
            <rect id="hole" x="454.9187" y="2127.3239" width="212.5984" height="70.8661"/>
          </g>
          <g id="neck">
            <g id="neck-2" data-name="neck">
              <polygon points="602.959 312.948 483.904 312.948 464.047 1701.472 622.787 1701.472 602.959 312.948" fill-rule="evenodd"/>
            </g>
            <g id="fret_holes" data-name="fret holes">
              <polygon points="622.531 1683.582 464.302 1683.582 464.324 1682.08 622.51 1682.08 622.531 1683.582" fill-rule="evenodd"/>
              <polygon points="622.263 1664.782 464.571 1664.782 464.593 1663.28 622.241 1663.28 622.263 1664.782" fill-rule="evenodd"/>
              <polygon points="621.842 1635.309 464.993 1635.309 465.014 1633.807 621.82 1633.807 621.842 1635.309" fill-rule="evenodd"/>
              <polygon points="621.404 1604.658 465.431 1604.658 465.452 1603.156 621.383 1603.156 621.404 1604.658" fill-rule="evenodd"/>
              <polygon points="620.94 1572.187 465.895 1572.187 465.917 1570.685 620.919 1570.685 620.94 1572.187" fill-rule="evenodd"/>
              <polygon points="620.449 1537.783 466.387 1537.783 466.409 1536.281 620.428 1536.281 620.449 1537.783" fill-rule="evenodd"/>
              <polygon points="619.929 1501.332 466.909 1501.332 466.93 1499.83 619.907 1499.83 619.929 1501.332" fill-rule="evenodd"/>
              <polygon points="619.377 1462.716 467.461 1462.716 467.482 1461.213 619.356 1461.213 619.377 1462.716" fill-rule="evenodd"/>
              <polygon points="618.793 1421.803 468.046 1421.803 468.067 1420.301 618.772 1420.301 618.793 1421.803" fill-rule="evenodd"/>
              <polygon points="618.174 1378.459 468.666 1378.459 468.687 1376.956 618.153 1376.956 618.174 1378.459" fill-rule="evenodd"/>
              <polygon points="617.518 1332.535 469.323 1332.535 469.344 1331.032 617.497 1331.032 617.518 1332.535" fill-rule="evenodd"/>
              <polygon points="616.823 1283.881 470.018 1283.881 470.04 1282.378 616.802 1282.378 616.823 1283.881" fill-rule="evenodd"/>
              <polygon points="616.087 1232.333 470.756 1232.333 470.777 1230.83 616.066 1230.83 616.087 1232.333" fill-rule="evenodd"/>
              <polygon points="615.308 1177.721 471.537 1177.721 471.558 1176.218 615.286 1176.218 615.308 1177.721" fill-rule="evenodd"/>
              <polygon points="614.481 1119.86 472.364 1119.86 472.386 1118.357 614.46 1118.357 614.481 1119.86" fill-rule="evenodd"/>
              <polygon points="613.606 1058.561 473.241 1058.561 473.262 1057.058 613.585 1057.058 613.606 1058.561" fill-rule="evenodd"/>
              <polygon points="612.679 993.616 474.17 993.616 474.191 992.114 612.657 992.114 612.679 993.616" fill-rule="evenodd"/>
              <polygon points="611.696 924.808 475.154 924.808 475.175 923.305 611.675 923.305 611.696 924.808" fill-rule="evenodd"/>
              <polygon points="610.655 851.909 476.196 851.909 476.218 850.407 610.634 850.407 610.655 851.909" fill-rule="evenodd"/>
              <polygon points="609.552 774.676 477.301 774.676 477.322 773.174 609.531 773.174 609.552 774.676" fill-rule="evenodd"/>
              <polygon points="608.384 692.849 478.471 692.849 478.492 691.346 608.362 691.346 608.384 692.849" fill-rule="evenodd"/>
              <polygon points="607.146 606.157 479.711 606.157 479.732 604.654 607.124 604.654 607.146 606.157" fill-rule="evenodd"/>
              <polygon points="605.834 514.311 481.024 514.311 481.046 512.809 605.813 512.809 605.834 514.311" fill-rule="evenodd"/>
              <polygon points="604.453 417.544 482.408 417.544 482.429 416.041 604.431 416.041 604.453 417.544" fill-rule="evenodd"/>
            </g>
            <g id="fret_numbers" data-name="fret numbers">
              <text transform="translate(489.7114 736.5277) scale(2 1)" font-size="9.5512" font-family="Geneva">3</text>
              <text transform="translate(491.606 642.7606) scale(4.3633 1)" font-size="9.5512" font-family="Geneva">1</text>
              <text transform="translate(487.3003 820.8881) scale(2 1)" font-size="9.5512" font-family="Geneva">5</text>
              <text transform="translate(485.1538 895.6791) scale(2 1)" font-size="9.5512" font-family="Geneva">7</text>
              <text transform="translate(484.1694 962.2367) scale(2 1)" font-size="9.5512" font-family="Geneva">9</text>
              <text transform="translate(481.5376 1050.8539) scale(2 1)" font-size="7" font-family="Geneva">12</text>
              <text transform="translate(478.6655 1123.7885) scale(2 1)" font-size="7" font-family="Geneva">15</text>
              <text transform="translate(477.4604 1165.5551) scale(2 1)" font-size="7" font-family="Geneva">17</text>
              <text transform="translate(477.4614 1203.5014) scale(2.0821 1)" font-size="6.7239" font-family="Geneva">19</text>
            </g>
            <g id="necklocks">
              <g id="Shape_4" data-name="Shape 4">
                <rect x="483.8892" y="267.5939" width="119.0552" height="45.3543"/>
              </g>
              <g id="teeth_1" data-name="teeth 1">
                <rect x="593.0372" y="307.279" width="9.9213" height="5.6693"/>
                <rect x="573.1947" y="307.279" width="19.8425" height="5.6693"/>
                <rect x="533.5096" y="307.279" width="19.8425" height="5.6693"/>
                <rect x="553.3522" y="307.279" width="19.8425" height="5.6693"/>
                <rect x="513.6671" y="307.279" width="19.8425" height="5.6693"/>
                <rect x="493.8246" y="307.279" width="19.8425" height="5.6693"/>
                <rect x="483.8749" y="307.279" width="9.9213" height="5.6693"/>
              </g>
              <g id="teeth_1-2" data-name="teeth 1">
                <rect x="593.023" y="267.5939" width="9.9213" height="5.6693"/>
                <rect x="573.1804" y="267.5939" width="19.8425" height="5.6693"/>
                <rect x="533.4954" y="267.5939" width="19.8425" height="5.6693"/>
                <rect x="553.3379" y="267.5939" width="19.8425" height="5.6693"/>
                <rect x="513.6529" y="267.5939" width="19.8425" height="5.6693"/>
                <rect x="493.8104" y="267.5939" width="19.8425" height="5.6693"/>
                <rect x="483.8891" y="267.5939" width="9.9213" height="5.6693"/>
              </g>
            </g>
            <g id="headstock">
              <g>
                <path d="M500.8677,254.0938l1.9953-8.6279a13.5006,13.5006,0,0,0-15.0566-16.4072l-29.45,4.1953L540.0645,15.1768A2.3641,2.3641,0,0,1,542.4854,13.5a2.302,2.302,0,0,1,2.3283,1.4546l73.3235,220.4487-18.542-4.5425a13.5,13.5,0,0,0-16.22,16.7256l1.8079,6.5073Z" fill-rule="evenodd"/>
                <path d="M541.8623,48.8556l55.93,168.154q-.705-.0369-1.4085-.0368a27.0015,27.0015,0,0,0-26.7885,23.6211H516.6484a26.9982,26.9982,0,0,0-30.7456-24.9l-6.92.9857,62.88-167.8237M542.4856,0a15.83,15.83,0,0,0-15.063,10.44L437.73,249.8281l51.9805-7.4043-5.821,25.17H602.9443l-6.5615-23.6205L638.66,254.3308,557.5051,10.3376A15.8247,15.8247,0,0,0,542.4856,0Z"/>
              </g>
              <g id="nuts">
                <polygon points="478.089 221.468 470.284 216.723 468.121 207.849 472.866 200.045 481.74 197.881 489.544 202.627 491.708 211.5 486.962 219.305 478.089 221.468" fill-rule="evenodd"/>
              </g>
              <g id="nuts-2" data-name="nuts">
                <polygon points="605.244 221.468 613.048 216.723 615.212 207.849 610.466 200.045 601.593 197.881 593.788 202.627 591.625 211.5 596.37 219.305 605.244 221.468" fill-rule="evenodd"/>
              </g>
              <g id="nuts-3" data-name="nuts">
                <polygon points="576.549 168.462 584.68 164.301 587.487 155.61 583.326 147.479 574.635 144.672 566.504 148.832 563.697 157.524 567.857 165.655 576.549 168.462" fill-rule="evenodd"/>
              </g>
              <g id="nuts-4" data-name="nuts">
                <polygon points="501.045 167.887 493.241 163.141 491.078 154.268 495.823 146.463 504.697 144.3 512.501 149.045 514.664 157.919 509.919 165.723 501.045 167.887" fill-rule="evenodd"/>
              </g>
              <g id="nuts-5" data-name="nuts">
                <polygon points="522.189 114.397 514.202 109.967 511.686 101.187 516.116 93.199 524.896 90.684 532.884 95.113 535.399 103.894 530.969 111.881 522.189 114.397" fill-rule="evenodd"/>
              </g>
              <g id="nuts-6" data-name="nuts">
                <polygon points="559.883 114.397 567.871 109.967 570.386 101.187 565.956 93.199 557.176 90.684 549.189 95.113 546.673 103.894 551.103 111.881 559.883 114.397" fill-rule="evenodd"/>
              </g>
              <g>
                <g id="tuner">
                  <path d="M427.72,204.9193l11.3367,5.3771a2.8484,2.8484,0,0,0,3.794-1.3528l14.078-29.6813a2.8475,2.8475,0,0,0-1.3528-3.794l-11.3362-5.3771a9.2758,9.2758,0,0,0-12.3553,4.4051l-8.5694,18.0683A9.2741,9.2741,0,0,0,427.72,204.9193Z"/>
                  <rect x="443.0068" y="195.6274" width="33.3047" height="8.3389" transform="translate(789.3452 577.305) rotate(-154.6242)"/>
                </g>
                <g id="tuner-2" data-name="tuner">
                  <path d="M448.6762,153.3383l11.3367,5.3771a2.8484,2.8484,0,0,0,3.794-1.3528l14.078-29.6813a2.8474,2.8474,0,0,0-1.3527-3.794L465.1959,118.51a9.2758,9.2758,0,0,0-12.3553,4.4051l-8.5693,18.0684A9.2742,9.2742,0,0,0,448.6762,153.3383Z"/>
                  <polygon points="465.783 143.847 495.875 158.119 499.448 152.585 469.357 138.312 465.783 143.847"/>
                </g>
                <g id="tuner-3" data-name="tuner">
                  <path d="M469.1613,98.9527l11.5423,4.92a2.8484,2.8484,0,0,0,3.737-1.5031l12.8821-30.22a2.8474,2.8474,0,0,0-1.5031-3.7369l-11.5419-4.92a9.2758,9.2758,0,0,0-12.17,4.8947l-7.8413,18.396A9.2741,9.2741,0,0,0,469.1613,98.9527Z"/>
                  <rect x="486.257" y="89.3093" width="33.3047" height="8.3389" transform="translate(928.8788 376.6854) rotate(-156.9117)"/>
                </g>
                <g id="tuner-4" data-name="tuner">
                  <path d="M629.8618,157.2761l-11.7,4.5322a2.8484,2.8484,0,0,1-3.6847-1.6271l-11.8662-30.6327a2.8474,2.8474,0,0,1,1.6271-3.6847l11.7-4.5324c4.7765-1.85,10.1489.5221,11.9994,6.2983l7.2229,18.6475C637.0106,150.0539,634.6384,155.4258,629.8618,157.2761Z"/>
                  <polygon points="615.55 149.072 584.494 161.103 578.417 154.104 609.473 142.074 615.55 149.072"/>
                </g>
                <g id="tuner-5" data-name="tuner">
                  <path d="M645.14,210.9563l-11.7693,4.3494a2.8485,2.8485,0,0,1-3.659-1.6843L618.324,182.8076a2.8475,2.8475,0,0,1,1.6842-3.6589l11.7689-4.35a9.2758,9.2758,0,0,1,11.9154,5.4845l6.9316,18.7578A9.2743,9.2743,0,0,1,645.14,210.9563Z"/>
                  <polygon points="640.506 196.428 610.415 210.7 599.841 206.166 629.932 191.893 640.506 196.428"/>
                </g>
                <g id="tuner-6" data-name="tuner">
                  <path d="M611.0143,105.5545l-11.7879,4.2988a2.8484,2.8484,0,0,1-3.6516-1.7L584.32,77.2908a2.8475,2.8475,0,0,1,1.7-3.6517L597.8073,69.34a9.2757,9.2757,0,0,1,11.8917,5.5357L616.55,93.6633A9.2742,9.2742,0,0,1,611.0143,105.5545Z"/>
                  <polygon points="605.654 92.651 573.619 101.757 559.672 98.306 591.707 89.2 605.654 92.651"/>
                </g>
              </g>
            </g>
          </g>
          <g>
            <polygon points="707.151 2373.018 707.151 1768.07 993.229 2539.629 707.151 2373.018"/>
            <path d="M720.6509,1843.3128l246.8264,665.6965L720.6509,2365.258V1843.3128m-27-150.4836v687.9493L1018.98,2570.25l-325.3291-877.42Z"/>
          </g>
          <g id="left_side" data-name="left side">
            <g id="body">
              <path d="M379.6785,1775.2613v667.3008c-41.104,23.0371-86.3914,57.8789-134.74,103.6758-40.6155,38.4716-83.5554,84.7871-127.6277,137.6591-29.18,35.0059-55.0459,68.3545-75.7864,96.0743Z"/>
              <path d="M366.1785,1857.6939v577.0446c-40.2151,23.5294-84.0457,57.6728-130.524,101.6976-40.9983,38.8343-84.3039,85.5392-128.7136,138.8169-9.4111,11.29-18.4492,22.3651-27.0757,33.1222l286.3133-850.6813m27-164.8647L0,2861.0247s209.4224-312.4709,393.1785-410.46V1692.8292Z"/>
            </g>
            <g id="arms">
              <rect id="plate-2" data-name="plate" x="393.1784" y="1701.4722" width="277.7989" height="337.1366"/>
              <g id="pickups">
                <rect x="415.8592" y="1701.4722" width="255.1181" height="127.5591"/>
                <rect x="415.8576" y="1911.0498" width="255.1181" height="127.5591"/>
                <rect x="444.2041" y="1918.1364" width="198.4252" height="113.3858"/>
                <rect x="444.2056" y="1710.5589" width="198.4252" height="113.3858"/>
              </g>
            </g>
          </g>
        </g>
      </g>
    </g>
  </g>
</svg>
