<svg xmlns="http://www.w3.org/2000/svg" width="844.4107" height="2690.1863" viewBox="0 0 844.4107 2690.1863">
  <g id="Layer_2" data-name="Layer 2">
    <g id="finished_guitar" data-name="finished guitar">
      <g id="silhouette-guitars">
        <g id="black-star">
          <g id="right">
            <path d="M844.4106,2380.3493c-6.1485-67.4159-32.2611-104.6423-52.75-153.0039-39.9549-94.3114-83.0542-174.6846-83.0541-218.3071,6.8467-74.4319,108.6956-200.5469,72.7126-336.0192v0c-9.9872-30.3247-25.9146-41.765-32.8071-41.7653l-.0007,0c-3.8706,3.2687-2.2912,6.9138-2.5233,16.5005.332,47.7178-20.5153,214.7278-148.894,224.0657h-.0021c-14.6357,0-30.2868-.3472-30.2868-.3472V2683.05c267.6307-31.9213,276.1778-156.2945,277.6052-302.7Z" fill-rule="evenodd"/>
          </g>
          <g id="iddle">
            <g id="strap-holder-2">
              <path d="M425.71,2689.6844l-3.1686-.112a1.1666,1.1666,0,0,1-1.1247-1.1241l-.0742-2.0724a1.1667,1.1667,0,0,1,1.2071-1.2076l3.1686.112a1.1666,1.1666,0,0,1,1.1247,1.1241l.0742,2.0724A1.1667,1.1667,0,0,1,425.71,2689.6844Z" fill-rule="evenodd"/>
              <path d="M419.7347,2690.0516a1.3034,1.3034,0,0,1-.1076-1.0922h0a.9837.9837,0,0,1,.8947-.7437h7.216a.9837.9837,0,0,1,.8947.7437h0a1.3034,1.3034,0,0,1-.1076,1.0922l-4.3951.1347Z" fill-rule="evenodd"/>
            </g>
            <g id="strap-holder-2-2" data-name="strap-holder-2">
              <path d="M108.1862,1442.7236l3.1686.112a1.1666,1.1666,0,0,1,1.1247,1.1241l.0742,2.0724a1.1667,1.1667,0,0,1-1.2071,1.2076l-3.1686-.112a1.1666,1.1666,0,0,1-1.1247-1.1241l-.0742-2.0724A1.1667,1.1667,0,0,1,108.1862,1442.7236Z" fill-rule="evenodd"/>
              <path d="M104.6422,1444.2664l1.4552,1.8241a1.1661,1.1661,0,0,0,.8708.4384l6.3714.2251a1.1664,1.1664,0,0,0,.9574-.4436l.3292-.4176a2.438,2.438,0,0,0-1.6-3.9223c-.9372-.1287-1.91-.1582-2.72-.19a15.1149,15.1149,0,0,0-5.3214.49A1.3028,1.3028,0,0,0,104.6422,1444.2664Z" fill-rule="evenodd"/>
            </g>
            <path d="M345.6159,1600.4468H487.53v145.09c0,41.3564,16.7086,66.1727,26.3719,80.0952,16.9771,30.4165,52.9034,45.8406,52.9034,45.8406V2683.05s-40.1374,4.3068-150.475,4.3068-149.9974-8.7738-149.9974-8.7738V1745.14s22.2219,1.5668,48.8654-21.3355c12.0683-10.8238,24.6042-29.9574,30.4174-39.9642Z"/>
            <g>
              <rect x="267.8332" y="2091.1928" width="274.7974" height="124.5596"/>
              <path d="M541.13,2092.6932v121.5591H269.333V2092.6932H541.13m3-3H266.333v127.5591H544.13V2089.6932Z" fill="#aa0015"/>
            </g>
            <g>
              <rect x="267.8332" y="1881.6157" width="274.7988" height="124.5586"/>
              <path d="M541.132,1883.1157v121.559H269.333v-121.559H541.132m3-3H266.333v127.559H544.132v-127.559Z" fill="#aa0015"/>
            </g>
            <g id="neck">
              <path d="M654.46,82.511c8.7791-16.7111,37.0248-41.3261-8.9063-70.9093-27.1006-15.4689-61.8352-15.4689-88.8085,0,0,0-13.5567,16.3827-34.5624,41.8268L519.31,51.0954l5.0072-6.1669a2.1,2.1,0,0,0-.3066-2.9547l-7.1832-5.8327a6.8407,6.8407,0,0,0-9.6219.9982l-9.2958,11.4493a6.84,6.84,0,0,0,.9983,9.6215l7.1836,5.8327a2.1006,2.1006,0,0,0,2.9547-.3066l5.0074-6.1672,2.8211,2.2906c-9.3417,11.3184-19.9154,24.1372-31.2678,37.9128l-3.297-2.677,5.0073-6.1669a2.1,2.1,0,0,0-.3067-2.9547l-7.1832-5.8327a6.8407,6.8407,0,0,0-9.6219.9982l-9.2958,11.4493a6.84,6.84,0,0,0,.9983,9.6215l7.1836,5.8327a2.1006,2.1006,0,0,0,2.9547-.3066l5.0074-6.1672,3.25,2.6391c-9.7336,11.8147-19.968,24.2459-30.4311,36.9683l-2.563-2.081,5.0073-6.1669a2.1,2.1,0,0,0-.3067-2.9547l-7.1832-5.8327a6.8407,6.8407,0,0,0-9.6219.9982l-9.2958,11.4493a6.84,6.84,0,0,0,.9983,9.6215l7.1836,5.8327a2.1006,2.1006,0,0,0,2.9547-.3066l5.0074-6.1672,2.5229,2.0484c-10.0219,12.19-20.2093,24.5931-30.3319,36.9339l-2.8151-2.3787,5.1272-6.0676a2.1,2.1,0,0,0-.2485-2.96l-7.0677-5.9724a6.8406,6.8406,0,0,0-9.64.8094l-9.5183,11.2649a6.8394,6.8394,0,0,0,.8094,9.6392l7.0679,5.9725a2.1007,2.1007,0,0,0,2.96-.2487l5.1274-6.0679L408.9559,191c-10.7336,13.0919-21.3463,26.0557-31.5589,38.5572l-3.1565-2.5048,4.938-6.2226a2.1,2.1,0,0,0-.34-2.9511l-7.248-5.7518a6.8406,6.8406,0,0,0-9.61,1.106l-9.167,11.5527a6.84,6.84,0,0,0,1.1061,9.61l7.2484,5.7518a2.1006,2.1006,0,0,0,2.9511-.34l4.938-6.223,3.065,2.4322c-10.6775,13.0806-20.8479,25.5726-30.1807,37.08l-2.885-2.1537,4.7519-6.3657a2.1,2.1,0,0,0-.4265-2.94l-7.4148-5.5355a6.8406,6.8406,0,0,0-9.5732,1.3892l-8.822,11.8182a6.8393,6.8393,0,0,0,1.3891,9.5729l7.4151,5.5354a2.1006,2.1006,0,0,0,2.94-.4266l4.7523-6.366,2.619,1.9552c-16.3492,20.1923-29.7219,36.88-38.1057,47.65a18.956,18.956,0,0,0-.8052,22.1134c16.3544,24.7446,35.2489,43.4122,59.5476,73.2732l-.28,23.62.0149,45.3543-19.8573,1388.524h158.74L476.1138,491.5917l-.0149-45.3543s.6169-37.5216.7441-56.6039C481.4235,371.9062,645.5539,99.1091,654.46,82.511Z" fill-rule="evenodd"/>
            </g>
          </g>
          <g id="left">
            <rect x="266.3331" y="2089.6932" width="277.7973" height="127.5591"/>
            <rect x="266.3331" y="1880.1157" width="277.7989" height="127.5591"/>
            <path d="M266.3331,1745.14c-67.0556,0-146.7877-72.2551-151.2926-257.94-.3664-16.9784,1.3654-41.9188-5.3038-42.1607-31.6848,19.2651-46.2642,44.5755-62.703,101.2281C9.1893,1720.8821,115.09,1865.94,109.8655,1959.9962c-.1334,126.66-89.01,249.6761-106.91,379.519-9.5491,90.3486-12.3608,290.037,263.3775,339.0675Z" fill-rule="evenodd"/>
            <g id="ickups">
              <rect id="plate" x="266.3331" y="1871.4726" width="300.4724" height="354.2835"/>
              <g>
                <rect x="290.0139" y="2090.6928" width="253.1182" height="125.5596"/>
                <path d="M542.132,2091.6932v123.5591H291.0138V2091.6932H542.132m2-2H289.0138v127.5591H544.132V2089.6932Z"/>
              </g>
              <rect x="289.0138" y="1880.1157" width="255.1181" height="127.5591"/>
              <rect x="317.3587" y="2096.7798" width="198.4252" height="113.3858"/>
              <rect x="317.3603" y="1889.2023" width="198.4252" height="113.3858"/>
            </g>
          </g>
        </g>
      </g>
    </g>
  </g>
</svg>
