<svg xmlns="http://www.w3.org/2000/svg" width="1102.143" height="2821.6562" viewBox="0 0 1102.143 2821.6562">
  <g id="Layer_2" data-name="Layer 2">
    <g id="finished_guitar" data-name="finished guitar">
      <g id="silhouette-guitars">
        <g id="rocketship5000">
          <g id="g2284">
            <g id="g2276">
              <path id="path10072" d="M496.7513,320.1081l-4.2965,2.55-38.589-13.8575,28.7279-41.6219,26.749,35.7671-1.4856,6.4725,14.1243,9.7766-9.1088,13.1974Z" fill-rule="evenodd"/>
              <path id="path10066" d="M534.473,269.9749l-4.2967,2.55-38.5887-13.8576,28.7277-41.622,26.7487,35.7671-1.4856,6.4726,14.1245,9.7767-9.1087,13.1973Z" fill-rule="evenodd"/>
              <path id="path10064" d="M572.9692,219.8288l-4.2967,2.55-38.589-13.8576,28.7282-41.6218L585.56,202.6664l-1.4856,6.4725,14.1243,9.7766L589.09,232.1128Z" fill-rule="evenodd"/>
              <path id="path10058" d="M607.1791,169.8354l-4.2965,2.55-38.589-13.8576,28.728-41.622,26.7489,35.7672-1.4858,6.4723,14.1245,9.7769L623.3005,182.12Z" fill-rule="evenodd"/>
              <path id="path10060" d="M647.0155,116.7725l-4.2967,2.55L604.13,105.4648l28.728-41.6219L659.6067,99.61l-1.4858,6.4726,14.1245,9.7767-9.109,13.1972Z" fill-rule="evenodd"/>
              <path id="path10062" d="M685.467,65.1934l-4.2964,2.55-38.589-13.8576L671.31,12.2639l26.749,35.767-1.4856,6.4726L710.6971,64.28l-9.1089,13.1973Z" fill-rule="evenodd"/>
            </g>
            <path id="path10052" d="M536.9984,1560.42c-23.7962,39.2956-54.514,68.8773-100.7881,76.6258-45.425,11.1258-42.8817,44.2566-46.2342,74.6825,19.64,101.6727,30.0706,178.2981,38.0231,248.1826C470.5931,1995.728,135.9052,2511.0683,4.723,2792.58c-3.05,15.2246-13.8167,37.3515,12.9384,25.9128,375.7593-56.9887,730.5074-161.3466,1042.6538-361.7458,22.6134-5.3845,14.1-34.0574,10.3041-59.2011-53.9158-139.2223-108.9674-277.825-152.651-422.63l184.1747-584.7576c-9.6811-30.8612-28.3348-36.9856-47.7892-40.9014l-265.7444,236.688c-75.7559,8.1832-87.2269-41.1417-101.8283-87.6664Z" fill-rule="evenodd"/>
            <path id="path10054" d="M549.3909,450.3568c-11.445-47.976-38.0232-68.7058-71.0628-77.8031L704.6642,60.3662C748.2056-.26,789.8247.7948,835.9386,4.0456c16.1883,11.8561,11.7671,24.4463,4.0108,37.1555C761.47,155.6111,693.2029,281.3462,657.8848,443.6226Z" stroke="#000" stroke-miterlimit="9.4784" stroke-width="5.669" fill-rule="evenodd"/>
            <path id="path10056" d="M1043.4052,1381.0935,832.3466,1587.4307l-103.6555,49.34-1.1,127.8508-176.7641,7.3116,4.7047,151.9892,170.765-5.0689,20.6988,211.2679,82.9038-.9247,247.3458-733.0785C1071.71,1366.4265,1058.3644,1370.2921,1043.4052,1381.0935Z" stroke="#000" stroke-miterlimit="9.4784" stroke-width="5.669" fill-rule="evenodd"/>
            <path id="path10068" d="M540.8034,462.9719,530.31,1650.8472l160.0113-5.7-35.4466-1183.37Z" stroke="#000" stroke-miterlimit="9.4784" stroke-width="6.6165" fill-rule="evenodd"/>
            <path id="rect10070" d="M531.8571,1629.1763l158.5918-5.65a1.0275,1.0275,0,0,1,1.0648.9961l.083,2.6821a1.0392,1.0392,0,0,1-1.0008,1.07l-158.5918,5.65a1.0276,1.0276,0,0,1-1.0648-.9962l-.083-2.6821A1.039,1.039,0,0,1,531.8571,1629.1763Z" stroke="#000" stroke-miterlimit="9.4784" stroke-width="1.5553" fill-rule="evenodd"/>
            <path id="rect10074" d="M512.3843,1653.73l199.3843-7.1031a13.5843,13.5843,0,0,1,14.0752,13.1683l3.2422,104.7455a13.7382,13.7382,0,0,1-13.23,14.141l-199.3843,7.1031a13.5842,13.5842,0,0,1-14.0752-13.1683l-3.2422-104.7455A13.7382,13.7382,0,0,1,512.3843,1653.73Z" stroke="#000" stroke-miterlimit="9.4784" stroke-width="6.5941" fill-rule="evenodd"/>
            <path id="rect10076" d="M528.8553,1725.5021l178.6331-6.3638a5.2485,5.2485,0,0,1,5.4381,5.0878l.9145,29.5423a5.308,5.308,0,0,1-5.1116,5.4636l-178.6331,6.3638a5.2485,5.2485,0,0,1-5.4381-5.0878l-.9145-29.5423A5.308,5.308,0,0,1,528.8553,1725.5021Z" stroke="#000" stroke-miterlimit="9.4784" stroke-width="4.3186" fill-rule="evenodd"/>
            <path id="rect10078" d="M526.2459,1670.0434,704.879,1663.68a5.2485,5.2485,0,0,1,5.4381,5.0878l.9144,29.5423a5.3079,5.3079,0,0,1-5.1115,5.4636l-178.6331,6.3638a5.2486,5.2486,0,0,1-5.4382-5.0878l-.9144-29.5423A5.3079,5.3079,0,0,1,526.2459,1670.0434Z" stroke="#000" stroke-miterlimit="9.4784" stroke-width="4.3186" fill-rule="evenodd"/>
            <path id="rect10080" d="M531.3343,1605.7621l158.5918-5.65a1.0275,1.0275,0,0,1,1.0648.9961l.083,2.6821a1.0392,1.0392,0,0,1-1.0008,1.07l-158.5918,5.65a1.0276,1.0276,0,0,1-1.0648-.9962l-.083-2.6821A1.039,1.039,0,0,1,531.3343,1605.7621Z" stroke="#000" stroke-miterlimit="9.4784" stroke-width="1.5553" fill-rule="evenodd"/>
            <path id="rect10082" d="M531.0968,1578.2339l156.1421-5.5626a1.03,1.03,0,0,1,1.0672.9985l.0832,2.6875a1.0417,1.0417,0,0,1-1.0032,1.0722l-156.142,5.5626a1.03,1.03,0,0,1-1.0672-.9985l-.0832-2.6875A1.0417,1.0417,0,0,1,531.0968,1578.2339Z" stroke="#000" stroke-miterlimit="9.4784" stroke-width="1.5451" fill-rule="evenodd"/>
            <path id="rect10084" d="M528.83,1551.3727l158.5918-5.65a1.0275,1.0275,0,0,1,1.0648.9961l.083,2.6821a1.0392,1.0392,0,0,1-1.0008,1.07l-158.5919,5.65a1.0275,1.0275,0,0,1-1.0647-.9962l-.0831-2.6821A1.0392,1.0392,0,0,1,528.83,1551.3727Z" stroke="#000" stroke-miterlimit="9.4784" stroke-width="1.5553" fill-rule="evenodd"/>
            <path id="rect10086" d="M528.9327,1521.77l158.5918-5.65a1.0273,1.0273,0,0,1,1.0647.9961l.0831,2.6821a1.0393,1.0393,0,0,1-1.0009,1.07l-158.5918,5.65a1.0276,1.0276,0,0,1-1.0648-.9962l-.083-2.6821A1.0391,1.0391,0,0,1,528.9327,1521.77Z" stroke="#000" stroke-miterlimit="9.4784" stroke-width="1.5553" fill-rule="evenodd"/>
            <path id="rect10088" d="M530.4958,1486.1584l156.142-5.5626a1.03,1.03,0,0,1,1.0672.9985l.0832,2.6875a1.0417,1.0417,0,0,1-1.0032,1.0722l-156.142,5.5626a1.03,1.03,0,0,1-1.0672-.9985l-.0832-2.6875A1.0417,1.0417,0,0,1,530.4958,1486.1584Z" stroke="#000" stroke-miterlimit="9.4784" stroke-width="1.5451" fill-rule="evenodd"/>
            <path id="rect10090" d="M533.0633,1443.7914l154.917-5.5189a1.0311,1.0311,0,0,1,1.0684.9994l.0833,2.6906a1.0429,1.0429,0,0,1-1.0043,1.0733l-154.917,5.5189a1.0311,1.0311,0,0,1-1.0684-.9995l-.0833-2.69A1.0428,1.0428,0,0,1,533.0633,1443.7914Z" stroke="#000" stroke-miterlimit="9.4784" stroke-width="1.5399" fill-rule="evenodd"/>
            <path id="rect10092" d="M530.1532,1409.1583l157.3668-5.6062a1.0289,1.0289,0,0,1,1.066.9973l.0831,2.6848a1.0405,1.0405,0,0,1-1.002,1.071L530.3,1413.9114a1.0289,1.0289,0,0,1-1.066-.9973l-.0831-2.6848A1.04,1.04,0,0,1,530.1532,1409.1583Z" stroke="#000" stroke-miterlimit="9.4784" stroke-width="1.5502" fill-rule="evenodd"/>
            <path id="rect10094" d="M531.111,1367.4146l153.6924-5.4753a1.0322,1.0322,0,0,1,1.0694,1.0007l.0834,2.6933a1.044,1.044,0,0,1-1.0052,1.0746l-153.6924,5.4753a1.0324,1.0324,0,0,1-1.0695-1.0007l-.0833-2.6933A1.0439,1.0439,0,0,1,531.111,1367.4146Z" stroke="#000" stroke-miterlimit="9.4784" stroke-width="1.5348" fill-rule="evenodd"/>
            <path id="rect10096" d="M531.0813,1320.1729l153.6924-5.4753a1.0322,1.0322,0,0,1,1.0694,1.0007l.0834,2.6933a1.044,1.044,0,0,1-1.0052,1.0746l-153.6924,5.4753a1.0322,1.0322,0,0,1-1.0694-1.0007l-.0834-2.6933A1.044,1.044,0,0,1,531.0813,1320.1729Z" stroke="#000" stroke-miterlimit="9.4784" stroke-width="1.5348" fill-rule="evenodd"/>
            <path id="rect10098" d="M530.9163,1275.3835l151.2426-5.388a1.0346,1.0346,0,0,1,1.0719,1.0028l.0835,2.6993a1.0462,1.0462,0,0,1-1.0075,1.0768l-151.2426,5.388a1.0345,1.0345,0,0,1-1.0718-1.0028l-.0836-2.6993A1.0462,1.0462,0,0,1,530.9163,1275.3835Z" stroke="#000" stroke-miterlimit="9.4784" stroke-width="1.5243" fill-rule="evenodd"/>
            <path id="rect10100" d="M532.945,1222.1006l143.8941-5.1262a1.0414,1.0414,0,0,1,1.079,1.0095l.0841,2.7174a1.0531,1.0531,0,0,1-1.0142,1.084l-143.8941,5.1262a1.0413,1.0413,0,0,1-1.079-1.0094l-.0841-2.7175A1.0532,1.0532,0,0,1,532.945,1222.1006Z" stroke="#000" stroke-miterlimit="9.4784" stroke-width="1.4924" fill-rule="evenodd"/>
            <path id="rect10102" d="M532.7278,1175.6771l145.1189-5.17a1.04,1.04,0,0,1,1.0777,1.0083l.0841,2.7145a1.052,1.052,0,0,1-1.0131,1.0828l-145.1189,5.17a1.04,1.04,0,0,1-1.0777-1.0083l-.084-2.7145A1.0518,1.0518,0,0,1,532.7278,1175.6771Z" stroke="#000" stroke-miterlimit="9.4784" stroke-width="1.4978" fill-rule="evenodd"/>
            <path id="rect10104" d="M530.7435,1118.0256l147.5685-5.2571a1.0379,1.0379,0,0,1,1.0753,1.0061l.0838,2.7083a1.05,1.05,0,0,1-1.0107,1.0805l-147.5685,5.2571a1.0378,1.0378,0,0,1-1.0753-1.0061l-.0838-2.7084A1.05,1.05,0,0,1,530.7435,1118.0256Z" stroke="#000" stroke-miterlimit="9.4784" stroke-width="1.5085" fill-rule="evenodd"/>
            <path id="rect10106" d="M534.29,539.9584l129.1988-4.6027a1.056,1.056,0,0,1,1.0942,1.0235l.0852,2.7554a1.0678,1.0678,0,0,1-1.0284,1.0992l-129.1988,4.6026a1.0558,1.0558,0,0,1-1.0941-1.0235l-.0853-2.7554A1.0678,1.0678,0,0,1,534.29,539.9584Z" stroke="#000" stroke-miterlimit="9.4784" stroke-width="1.4253" fill-rule="evenodd"/>
            <path id="rect10108" d="M540.096,451.4353l118.4757-4.2207a1.0717,1.0717,0,0,1,1.11,1.0388l.47,15.1733a1.0836,1.0836,0,0,1-1.0436,1.1155l-118.4756,4.2207a1.0716,1.0716,0,0,1-1.11-1.0388l-.47-15.1732A1.0838,1.0838,0,0,1,540.096,451.4353Z" stroke="#000" stroke-miterlimit="9.4784" stroke-width="3.3567" fill-rule="evenodd"/>
            <path id="rect10110" d="M531.3181,707.7236l136.5464-4.8644a1.0484,1.0484,0,0,1,1.0863,1.0164l.0847,2.7361a1.06,1.06,0,0,1-1.0211,1.0915l-136.5463,4.8644a1.0484,1.0484,0,0,1-1.0863-1.0164l-.0847-2.7361A1.06,1.06,0,0,1,531.3181,707.7236Z" stroke="#000" stroke-miterlimit="9.4784" stroke-width="1.4594" fill-rule="evenodd"/>
            <path id="rect10112" d="M532.4388,625.0752l130.4236-4.6463a1.0546,1.0546,0,0,1,1.0927,1.0224l.0852,2.7521a1.0666,1.0666,0,0,1-1.0271,1.0979L532.59,629.9476a1.0545,1.0545,0,0,1-1.0926-1.0224l-.0852-2.7521A1.0666,1.0666,0,0,1,532.4388,625.0752Z" stroke="#000" stroke-miterlimit="9.4784" stroke-width="1.4311" fill-rule="evenodd"/>
            <path id="rect10114" d="M534.9821,786.4838l134.097-4.7771a1.0509,1.0509,0,0,1,1.089,1.0187l.0849,2.7425a1.0628,1.0628,0,0,1-1.0236,1.0939l-134.097,4.7772a1.051,1.051,0,0,1-1.089-1.0187l-.0849-2.7425A1.063,1.063,0,0,1,534.9821,786.4838Z" stroke="#000" stroke-miterlimit="9.4784" stroke-width="1.4482" fill-rule="evenodd"/>
            <path id="rect10116" d="M534.8163,860.46l136.5464-4.8644a1.0485,1.0485,0,0,1,1.0863,1.0164l.0847,2.7361a1.06,1.06,0,0,1-1.0211,1.0915l-136.5464,4.8645a1.0486,1.0486,0,0,1-1.0863-1.0165l-.0847-2.7361A1.06,1.06,0,0,1,534.8163,860.46Z" stroke="#000" stroke-miterlimit="9.4784" stroke-width="1.4594" fill-rule="evenodd"/>
            <path id="rect10118" d="M535.6817,928.225l134.097-4.7772a1.0509,1.0509,0,0,1,1.089,1.0187l.0849,2.7425a1.0629,1.0629,0,0,1-1.0236,1.094L535.832,933.08a1.051,1.051,0,0,1-1.089-1.0187l-.0849-2.7425A1.0629,1.0629,0,0,1,535.6817,928.225Z" stroke="#000" stroke-miterlimit="9.4784" stroke-width="1.4482" fill-rule="evenodd"/>
            <path id="rect10120" d="M532.9444,997.7493l142.6695-5.0826a1.0425,1.0425,0,0,1,1.08,1.0106l.0842,2.7205a1.0544,1.0544,0,0,1-1.0153,1.0853l-142.67,5.0826a1.0425,1.0425,0,0,1-1.08-1.0106l-.0843-2.7206A1.0544,1.0544,0,0,1,532.9444,997.7493Z" stroke="#000" stroke-miterlimit="9.4784" stroke-width="1.487" fill-rule="evenodd"/>
            <path id="rect10122" d="M532.765,1057.9645l143.8942-5.1262a1.0412,1.0412,0,0,1,1.0789,1.0094l.0841,2.7175a1.0531,1.0531,0,0,1-1.0141,1.084l-143.8942,5.1262a1.0413,1.0413,0,0,1-1.0789-1.0095l-.0841-2.7174A1.053,1.053,0,0,1,532.765,1057.9645Z" stroke="#000" stroke-miterlimit="9.4784" stroke-width="1.4924" fill-rule="evenodd"/>
            <path id="rect10124" d="M511.3908,1928.0905l201.5035-7.1786a13.5815,13.5815,0,0,1,14.072,13.1653l3.2414,104.7218a13.7352,13.7352,0,0,1-13.2269,14.1378l-201.5035,7.1785a13.5814,13.5814,0,0,1-14.072-13.1653l-3.2414-104.7217A13.7352,13.7352,0,0,1,511.3908,1928.0905Z" stroke="#000" stroke-miterlimit="9.4784" stroke-width="6.624" fill-rule="evenodd"/>
            <path id="rect10126" d="M528.9785,2003l178.6332-6.3638a5.2485,5.2485,0,0,1,5.4381,5.0878l.9144,29.5423a5.3079,5.3079,0,0,1-5.1115,5.4636L530.22,2043.0938a5.2486,5.2486,0,0,1-5.4382-5.0878l-.9144-29.5423A5.3079,5.3079,0,0,1,528.9785,2003Z" stroke="#000" stroke-miterlimit="9.4784" stroke-width="4.3186" fill-rule="evenodd"/>
            <path id="rect10128" d="M526.37,1947.5416l178.6332-6.3637a5.2483,5.2483,0,0,1,5.4381,5.0877l.9144,29.5423a5.3079,5.3079,0,0,1-5.1115,5.4636l-178.6331,6.3638a5.2485,5.2485,0,0,1-5.4382-5.0878l-.9144-29.5423A5.308,5.308,0,0,1,526.37,1947.5416Z" stroke="#000" stroke-miterlimit="9.4784" stroke-width="4.3186" fill-rule="evenodd"/>
            <path id="rect10130" d="M507.7493,2175.9416l211.2394-3.4307a29.197,29.197,0,0,1,29.6971,28.8792l.045,3.8519a29.52,29.52,0,0,1-29.0111,29.8328L508.48,2238.5054a29.197,29.197,0,0,1-29.6971-28.8792l-.045-3.8519A29.52,29.52,0,0,1,507.7493,2175.9416Z" stroke="#000" stroke-miterlimit="9.4784" stroke-width="7.1577" fill-rule="evenodd"/>
            <path id="path10132" d="M526.6154,2206.3074a18.6516,18.6516,0,0,1-18.3019,18.8764,18.4476,18.4476,0,0,1-18.7361-18.2749,18.6515,18.6515,0,0,1,18.3019-18.8764A18.4475,18.4475,0,0,1,526.6154,2206.3074Z" stroke="#000" stroke-width="0.6568" fill-rule="evenodd"/>
            <path id="path10134" d="M738.5034,2204.0984a18.6515,18.6515,0,0,1-18.3019,18.8764A18.4475,18.4475,0,0,1,701.4654,2204.7a18.6515,18.6515,0,0,1,18.3019-18.8764A18.4476,18.4476,0,0,1,738.5034,2204.0984Z" stroke="#000" stroke-width="0.6568" fill-rule="evenodd"/>
            <g id="g10136">
              <path id="rect10138" d="M521.9778,2075.0245,701.8334,2064.9a26.0862,26.0862,0,0,1,27.5126,24.7641l.1773,3.4429a26.3889,26.3889,0,0,1-24.81,27.7094L524.8575,2130.941a26.0864,26.0864,0,0,1-27.5127-24.7642l-.1773-3.4428A26.3891,26.3891,0,0,1,521.9778,2075.0245Z" stroke="#000" stroke-width="4.0749" fill-rule="evenodd"/>
              <path id="path10140" d="M540.2377,2101.9262a14.3883,14.3883,0,0,1-14.3216,14.3637,14.2338,14.2338,0,0,1-14.2552-14.3022,14.3883,14.3883,0,0,1,14.3216-14.3638A14.2339,14.2339,0,0,1,540.2377,2101.9262Z" stroke="#000" stroke-width="0.6568" fill-rule="evenodd"/>
              <path id="path10142" d="M712.891,2092.2151a14.3882,14.3882,0,0,1-14.3216,14.3637,14.2337,14.2337,0,0,1-14.2551-14.3022,14.388,14.388,0,0,1,14.3215-14.3637A14.2338,14.2338,0,0,1,712.891,2092.2151Z" stroke="#000" stroke-width="0.6568" fill-rule="evenodd"/>
            </g>
            <path id="path10144" d="M532.3524,325.835l23.21,128.7785-5.7447,1728.5758" stroke="#555" stroke-miterlimit="9.4784" stroke-width="3.4523"/>
            <path id="path10146" d="M567.1731,275.4613l9.0346,184.172-1.1394,1720.8475" stroke="#555" stroke-miterlimit="9.4784" stroke-width="3.4538"/>
            <path id="path10148" d="M604.3176,224.3005,592.7693,457.41l11.0645,1722.92" stroke="#555" stroke-miterlimit="9.4784" stroke-width="3.4556"/>
            <path id="path10150" d="M637.8642,175.7108l-27.1906,282.781,16.7214,1723.532" stroke="#555" stroke-miterlimit="9.4784" stroke-width="3.4545"/>
            <path id="path10152" d="M677.9293,118.8586,627.4672,456.7008l26.8052,1722.41" stroke="#555" stroke-miterlimit="9.4784" stroke-width="3.4537"/>
            <path id="path10154" d="M718.0148,67.22,645.8464,454.804l31.8481,1726.5917" stroke="#555" stroke-miterlimit="9.4784" stroke-width="3.4565"/>
            <path id="rect10156" d="M556.2879,2179.2662l112.678-1.1474a27.3226,27.3226,0,0,1,27.5624,26.8427h0a26.9239,26.9239,0,0,1-26.68,27.3951l-112.6779,1.1473a27.3224,27.3224,0,0,1-27.5624-26.8427h0A26.9237,26.9237,0,0,1,556.2879,2179.2662Z" fill-rule="evenodd"/>
            <path id="path10158" d="M544.5559,327.6805a12.2165,12.2165,0,0,1-11.7467,12.591,12.08,12.08,0,0,1-12.5-11.7273,12.2165,12.2165,0,0,1,11.7468-12.591,12.08,12.08,0,0,1,12.4994,11.7273Z"/>
            <path id="path10160" d="M580.3675,275.6858a12.2165,12.2165,0,0,1-11.7467,12.591,12.08,12.08,0,0,1-12.5-11.7273,12.2167,12.2167,0,0,1,11.7468-12.5911,12.08,12.08,0,0,1,12.4994,11.7274Z"/>
            <path id="path10162" d="M616.21,224.7044a12.2165,12.2165,0,0,1-11.7467,12.591,12.08,12.08,0,0,1-12.4995-11.7273,12.2165,12.2165,0,0,1,11.7468-12.591A12.08,12.08,0,0,1,616.21,224.7044Z"/>
            <path id="path10164" d="M651.0741,174.7721a12.2165,12.2165,0,0,1-11.7467,12.591,12.08,12.08,0,0,1-12.5-11.7273,12.2165,12.2165,0,0,1,11.7468-12.591,12.08,12.08,0,0,1,12.4994,11.7273Z"/>
            <path id="path10166" d="M689.8536,120.6429a12.2166,12.2166,0,0,1-11.7468,12.591,12.08,12.08,0,0,1-12.5-11.7272,12.2166,12.2166,0,0,1,11.7468-12.5911,12.08,12.08,0,0,1,12.5,11.7273Z"/>
            <path id="path10168" d="M729.6748,67.4909a12.2165,12.2165,0,0,1-11.7467,12.591,12.08,12.08,0,0,1-12.5-11.7273,12.2165,12.2165,0,0,1,11.7468-12.591,12.08,12.08,0,0,1,12.4994,11.7273Z"/>
          </g>
        </g>
      </g>
    </g>
  </g>
</svg>
