<svg xmlns="http://www.w3.org/2000/svg" xmlns:xlink="http://www.w3.org/1999/xlink" width="400mm" height="1020mm" viewBox="0 0 1133.8583 2891.3386">
  <defs>
    <linearGradient id="linear-gradient" x1="542.6205" y1="2280.642" x2="508.0709" y2="2220.8004" gradientUnits="userSpaceOnUse">
      <stop offset="0.0024" stop-color="#96bf00"/>
      <stop offset="0.0755" stop-color="#95bd01"/>
      <stop offset="0.0915" stop-color="#92ba02"/>
      <stop offset="0.1014" stop-color="#90b803"/>
      <stop offset="0.1054" stop-color="#8bb105"/>
      <stop offset="0.1083" stop-color="#81a509"/>
      <stop offset="0.1107" stop-color="#73930f"/>
      <stop offset="0.1127" stop-color="#617d17"/>
      <stop offset="0.1145" stop-color="#4b6120"/>
      <stop offset="0.1162" stop-color="#31402c"/>
      <stop offset="0.1177" stop-color="#131a38"/>
      <stop offset="0.1185" stop-color="#010440"/>
      <stop offset="0.1203" stop-color="#0f163a"/>
      <stop offset="0.1252" stop-color="#31402c"/>
      <stop offset="0.1302" stop-color="#4c6320"/>
      <stop offset="0.1352" stop-color="#627e17"/>
      <stop offset="0.1403" stop-color="#719110"/>
      <stop offset="0.1455" stop-color="#7a9c0c"/>
      <stop offset="0.151" stop-color="#7da00b"/>
      <stop offset="0.1564" stop-color="#7da00b"/>
      <stop offset="0.2347" stop-color="#7da00b"/>
      <stop offset="0.2358" stop-color="#648109"/>
      <stop offset="0.2374" stop-color="#465906"/>
      <stop offset="0.2391" stop-color="#2d3904"/>
      <stop offset="0.2408" stop-color="#192002"/>
      <stop offset="0.2426" stop-color="#0b0e01"/>
      <stop offset="0.2445" stop-color="#030300"/>
      <stop offset="0.2467"/>
      <stop offset="0.2495" stop-color="#181f00"/>
      <stop offset="0.2546" stop-color="#3e4f00"/>
      <stop offset="0.2596" stop-color="#5e7700"/>
      <stop offset="0.2645" stop-color="#769700"/>
      <stop offset="0.2692" stop-color="#88ad00"/>
      <stop offset="0.2737" stop-color="#92ba00"/>
      <stop offset="0.2778" stop-color="#96bf00"/>
      <stop offset="0.3303" stop-color="#96bf00"/>
      <stop offset="0.3389" stop-color="#96bf00"/>
      <stop offset="0.355" stop-color="#95bd00"/>
      <stop offset="0.3608" stop-color="#8fb600"/>
      <stop offset="0.3649" stop-color="#86ab00"/>
      <stop offset="0.3683" stop-color="#799a00"/>
      <stop offset="0.3712" stop-color="#678400"/>
      <stop offset="0.3737" stop-color="#526800"/>
      <stop offset="0.376" stop-color="#394800"/>
      <stop offset="0.378" stop-color="#1c2400"/>
      <stop offset="0.3797"/>
      <stop offset="0.3812" stop-color="#1c2400"/>
      <stop offset="0.383" stop-color="#394800"/>
      <stop offset="0.385" stop-color="#526800"/>
      <stop offset="0.3873" stop-color="#678400"/>
      <stop offset="0.3899" stop-color="#799a00"/>
      <stop offset="0.3929" stop-color="#86ab00"/>
      <stop offset="0.3966" stop-color="#8fb600"/>
      <stop offset="0.4017" stop-color="#95bd00"/>
      <stop offset="0.4161" stop-color="#96bf00"/>
      <stop offset="0.4491" stop-color="#96bf00"/>
      <stop offset="0.4546" stop-color="#96bf00"/>
      <stop offset="0.4662" stop-color="#95bd00"/>
      <stop offset="0.4703" stop-color="#8fb600"/>
      <stop offset="0.4733" stop-color="#86ab00"/>
      <stop offset="0.4757" stop-color="#799a00"/>
      <stop offset="0.4778" stop-color="#678400"/>
      <stop offset="0.4796" stop-color="#526800"/>
      <stop offset="0.4813" stop-color="#394800"/>
      <stop offset="0.4828" stop-color="#1c2400"/>
      <stop offset="0.484"/>
      <stop offset="0.4854" stop-color="#1c2400"/>
      <stop offset="0.4871" stop-color="#394800"/>
      <stop offset="0.4891" stop-color="#526800"/>
      <stop offset="0.4913" stop-color="#678400"/>
      <stop offset="0.4938" stop-color="#799a00"/>
      <stop offset="0.4967" stop-color="#86ab00"/>
      <stop offset="0.5002" stop-color="#8fb600"/>
      <stop offset="0.5052" stop-color="#95bd00"/>
      <stop offset="0.5191" stop-color="#96bf00"/>
      <stop offset="0.5813" stop-color="#96bf00"/>
      <stop offset="0.5916" stop-color="#96bf00"/>
      <stop offset="0.6077" stop-color="#95bd00"/>
      <stop offset="0.6136" stop-color="#8fb600"/>
      <stop offset="0.6177" stop-color="#86ab00"/>
      <stop offset="0.6211" stop-color="#799a00"/>
      <stop offset="0.624" stop-color="#678400"/>
      <stop offset="0.6265" stop-color="#526800"/>
      <stop offset="0.6288" stop-color="#394800"/>
      <stop offset="0.6309" stop-color="#1c2400"/>
      <stop offset="0.6325"/>
      <stop offset="0.6345" stop-color="#1c2400"/>
      <stop offset="0.637" stop-color="#394800"/>
      <stop offset="0.6397" stop-color="#526800"/>
      <stop offset="0.6427" stop-color="#678400"/>
      <stop offset="0.6462" stop-color="#799a00"/>
      <stop offset="0.6502" stop-color="#86ab00"/>
      <stop offset="0.6551" stop-color="#8fb600"/>
      <stop offset="0.6621" stop-color="#95bd00"/>
      <stop offset="0.6813" stop-color="#96bf00"/>
      <stop offset="0.7539" stop-color="#96bf00"/>
      <stop offset="0.7659" stop-color="#96bf00"/>
      <stop offset="0.7793" stop-color="#95bd00"/>
      <stop offset="0.7841" stop-color="#8fb600"/>
      <stop offset="0.7876" stop-color="#86ab00"/>
      <stop offset="0.7904" stop-color="#799a00"/>
      <stop offset="0.7927" stop-color="#678400"/>
      <stop offset="0.7949" stop-color="#526800"/>
      <stop offset="0.7968" stop-color="#394800"/>
      <stop offset="0.7985" stop-color="#1c2400"/>
      <stop offset="0.7999"/>
      <stop offset="0.8025" stop-color="#1c2400"/>
      <stop offset="0.8057" stop-color="#394800"/>
      <stop offset="0.8094" stop-color="#526800"/>
      <stop offset="0.8134" stop-color="#678400"/>
      <stop offset="0.8179" stop-color="#799a00"/>
      <stop offset="0.8232" stop-color="#86ab00"/>
      <stop offset="0.8298" stop-color="#8fb600"/>
      <stop offset="0.839" stop-color="#95bd00"/>
      <stop offset="0.8646" stop-color="#96bf00"/>
      <stop offset="0.8792" stop-color="#95bd00"/>
      <stop offset="0.8845" stop-color="#8fb600"/>
      <stop offset="0.8883" stop-color="#86ab00"/>
      <stop offset="0.8913" stop-color="#799a00"/>
      <stop offset="0.8939" stop-color="#678400"/>
      <stop offset="0.8962" stop-color="#526800"/>
      <stop offset="0.8983" stop-color="#394800"/>
      <stop offset="0.9002" stop-color="#1c2400"/>
      <stop offset="0.9017"/>
      <stop offset="0.9035" stop-color="#1c2400"/>
      <stop offset="0.9058" stop-color="#394800"/>
      <stop offset="0.9084" stop-color="#526800"/>
      <stop offset="0.9113" stop-color="#678400"/>
      <stop offset="0.9145" stop-color="#799a00"/>
      <stop offset="0.9183" stop-color="#86ab00"/>
      <stop offset="0.9229" stop-color="#8fb600"/>
      <stop offset="0.9295" stop-color="#95bd00"/>
      <stop offset="0.9476" stop-color="#96bf00"/>
      <stop offset="0.9926" stop-color="#96bf00"/>
      <stop offset="1" stop-color="#96bf00"/>
    </linearGradient>
    <linearGradient id="linear-gradient-2" x1="574.7821" y1="2277.412" x2="539.4359" y2="2216.1907" xlink:href="#linear-gradient"/>
    <linearGradient id="linear-gradient-3" x1="604.8768" y1="2275.037" x2="568.2316" y2="2211.5656" xlink:href="#linear-gradient"/>
    <linearGradient id="linear-gradient-4" x1="635.5923" y1="2280.642" x2="601.0427" y2="2220.8004" xlink:href="#linear-gradient"/>
    <linearGradient id="linear-gradient-5" x1="666.0604" y1="2276.287" x2="630.2812" y2="2214.3156" xlink:href="#linear-gradient"/>
    <linearGradient id="linear-gradient-6" x1="697.8236" y1="2271.287" x2="662.0444" y2="2209.3156" xlink:href="#linear-gradient"/>
    <linearGradient id="linear-gradient-7" x1="600.6308" y1="2257.2212" x2="600.6308" y2="2246.8013" gradientUnits="userSpaceOnUse">
      <stop offset="0.0024" stop-color="#111"/>
      <stop offset="1" stop-color="#1e1e1e"/>
    </linearGradient>
    <radialGradient id="radial-gradient" cx="804.1132" cy="1311.8984" r="58.3107" gradientTransform="translate(0 941.0133) scale(1 0.8363)" gradientUnits="userSpaceOnUse">
      <stop offset="0.0377" stop-color="#fcee21"/>
      <stop offset="0.176" stop-color="#545454"/>
      <stop offset="0.2601" stop-color="#1b1b1b"/>
      <stop offset="0.9831" stop-color="#3e3e3e"/>
    </radialGradient>
  </defs>
  <g id="cool-runnings">
    <g id="cool-runnings-2" data-name="cool-runnings">
      <g>
        <path d="M522.87,1561.4224H679.2808s2.4844,26.4755,28.6279,33.7313c12.19,39.6278,43.1812,127.9894,43.1812,127.9894v687.9492s-68.9447-37.3355-104.1074-41.2425c-42.4185,18.9767-196.365,111.029-196.365,111.029V1723.1431s5.4816-23.6175,45.6676-135.2452C518.6106,1576.177,522.87,1561.4224,522.87,1561.4224Z"/>
        <rect id="plate" x="450.6175" y="1723.1431" width="300.4724" height="354.2835" fill="#fed100"/>
        <g id="bridge_hole" data-name="bridge hole">
          <rect x="556.9195" y="2173.2292" width="87.874" height="198.4236" transform="translate(2873.2975 1671.5845) rotate(90)" fill="#003"/>
          <rect x="469.2101" y="2109.4489" width="269.2913" height="119.0551" fill="#003"/>
          <g id="Rectangle_11" data-name="Rectangle 11">
            <rect x="469.2101" y="2109.4489" width="269.2913" height="48.1891"/>
          </g>
          <rect id="hole" x="512.3578" y="2157.6379" width="212.5984" height="70.8661"/>
        </g>
        <g id="neck">
          <g id="neck-2" data-name="neck">
            <polygon points="660.398 343.262 541.343 343.262 521.486 1731.786 680.226 1731.786 660.398 343.262" fill-rule="evenodd"/>
          </g>
          <g id="fret_holes" data-name="fret holes">
            <polygon points="679.97 1713.896 521.741 1713.896 521.763 1712.394 679.949 1712.394 679.97 1713.896" fill="#fff" fill-rule="evenodd"/>
            <polygon points="679.702 1695.096 522.01 1695.096 522.032 1693.594 679.68 1693.594 679.702 1695.096" fill="#fff" fill-rule="evenodd"/>
            <polygon points="679.281 1665.623 522.432 1665.623 522.453 1664.12 679.259 1664.12 679.281 1665.623" fill="#fff" fill-rule="evenodd"/>
            <polygon points="678.843 1634.972 522.87 1634.972 522.892 1633.469 678.822 1633.469 678.843 1634.972" fill="#fff" fill-rule="evenodd"/>
            <polygon points="678.379 1602.501 523.334 1602.501 523.356 1600.999 678.358 1600.999 678.379 1602.501" fill="#fff" fill-rule="evenodd"/>
            <polygon points="677.888 1568.097 523.826 1568.097 523.848 1566.594 677.867 1566.594 677.888 1568.097" fill="#fff" fill-rule="evenodd"/>
            <polygon points="677.368 1531.646 524.348 1531.646 524.369 1530.144 677.346 1530.144 677.368 1531.646" fill="#fff" fill-rule="evenodd"/>
            <polygon points="676.816 1493.03 524.9 1493.03 524.921 1491.527 676.795 1491.527 676.816 1493.03" fill="#fff" fill-rule="evenodd"/>
            <polygon points="676.232 1452.117 525.485 1452.117 525.507 1450.615 676.211 1450.615 676.232 1452.117" fill="#fff" fill-rule="evenodd"/>
            <polygon points="675.613 1408.773 526.105 1408.773 526.126 1407.27 675.592 1407.27 675.613 1408.773" fill="#fff" fill-rule="evenodd"/>
            <polygon points="674.957 1362.849 526.762 1362.849 526.783 1361.346 674.936 1361.346 674.957 1362.849" fill="#fff" fill-rule="evenodd"/>
            <polygon points="674.263 1314.195 527.457 1314.195 527.479 1312.692 674.241 1312.692 674.263 1314.195" fill="#fff" fill-rule="evenodd"/>
            <polygon points="673.526 1262.647 528.195 1262.647 528.216 1261.144 673.505 1261.144 673.526 1262.647" fill="#fff" fill-rule="evenodd"/>
            <polygon points="672.747 1208.034 528.976 1208.034 528.997 1206.532 672.725 1206.532 672.747 1208.034" fill="#fff" fill-rule="evenodd"/>
            <polygon points="671.92 1150.174 529.803 1150.174 529.825 1148.671 671.899 1148.671 671.92 1150.174" fill="#fff" fill-rule="evenodd"/>
            <polygon points="671.045 1088.874 530.68 1088.874 530.701 1087.372 671.024 1087.372 671.045 1088.874" fill="#fff" fill-rule="evenodd"/>
            <polygon points="670.118 1023.93 531.609 1023.93 531.63 1022.428 670.096 1022.428 670.118 1023.93" fill="#fff" fill-rule="evenodd"/>
            <polygon points="669.135 955.122 532.593 955.122 532.614 953.619 669.114 953.619 669.135 955.122" fill="#fff" fill-rule="evenodd"/>
            <polygon points="668.094 882.223 533.635 882.223 533.657 880.721 668.073 880.721 668.094 882.223" fill="#fff" fill-rule="evenodd"/>
            <polygon points="666.991 804.99 534.74 804.99 534.761 803.488 666.97 803.488 666.991 804.99" fill="#fff" fill-rule="evenodd"/>
            <polygon points="665.823 723.163 535.91 723.163 535.931 721.66 665.801 721.66 665.823 723.163" fill="#fff" fill-rule="evenodd"/>
            <polygon points="664.585 636.471 537.15 636.471 537.171 634.968 664.563 634.968 664.585 636.471" fill="#fff" fill-rule="evenodd"/>
            <polygon points="663.273 544.625 538.463 544.625 538.485 543.123 663.252 543.123 663.273 544.625" fill="#fff" fill-rule="evenodd"/>
            <polygon points="661.892 447.858 539.847 447.858 539.869 446.355 661.87 446.355 661.892 447.858" fill="#fff" fill-rule="evenodd"/>
          </g>
          <g id="necklocks">
            <g id="Shape_4" data-name="Shape 4">
              <rect x="541.3282" y="297.9077" width="119.0551" height="45.3545" fill="#fed100"/>
            </g>
            <g id="teeth_1" data-name="teeth 1">
              <rect x="650.4763" y="337.5929" width="9.9213" height="5.6693"/>
              <rect x="630.6337" y="337.5929" width="19.8425" height="5.6693"/>
              <rect x="590.9487" y="337.5929" width="19.8425" height="5.6693"/>
              <rect x="610.7912" y="337.5929" width="19.8425" height="5.6693"/>
              <rect x="571.1062" y="337.5929" width="19.8425" height="5.6693"/>
              <rect x="551.2637" y="337.5929" width="19.8425" height="5.6693"/>
              <rect x="541.314" y="337.5929" width="9.9213" height="5.6693"/>
            </g>
            <g id="teeth_1-2" data-name="teeth 1">
              <rect x="650.462" y="297.9079" width="9.9213" height="5.6693"/>
              <rect x="630.6195" y="297.9079" width="19.8425" height="5.6693"/>
              <rect x="590.9345" y="297.9079" width="19.8425" height="5.6693"/>
              <rect x="610.777" y="297.9079" width="19.8425" height="5.6693"/>
              <rect x="571.092" y="297.9079" width="19.8425" height="5.6693"/>
              <rect x="551.2494" y="297.9079" width="19.8425" height="5.6693"/>
              <rect x="541.3282" y="297.9079" width="9.9213" height="5.6693"/>
            </g>
          </g>
          <g id="headstock">
            <g>
              <path d="M558.3066,284.408l1.9951-8.6282a13.4985,13.4985,0,0,0-15.0566-16.407l-29.45,4.1948,81.708-218.0769a2.3661,2.3661,0,0,1,2.4218-1.6767,2.3024,2.3024,0,0,1,2.3282,1.4543l73.3232,220.45-18.542-4.5427a13.5,13.5,0,0,0-16.22,16.7256l1.8076,6.5073Z" fill="#009b3a" fill-rule="evenodd"/>
              <path d="M599.3013,79.17l55.93,168.1538q-.705-.0366-1.4083-.0366A27.0013,27.0013,0,0,0,627.034,270.908H574.0875a26.9991,26.9991,0,0,0-30.7459-24.9l-6.92.9856L599.3013,79.17m.6231-48.8557a15.8318,15.8318,0,0,0-15.0626,10.44l-89.693,239.3879,51.98-7.4043-5.821,25.17h119.055l-6.5612-23.6206,42.2767,10.3574L614.9442,40.6516a15.823,15.823,0,0,0-15.02-10.3376Z"/>
            </g>
            <g id="nuts">
              <polygon points="535.528 251.782 527.723 247.036 525.56 238.163 530.305 230.358 539.179 228.195 546.983 232.94 549.147 241.814 544.401 249.618 535.528 251.782" fill="#036825" fill-rule="evenodd"/>
            </g>
            <g id="nuts-2" data-name="nuts">
              <polygon points="662.683 251.782 670.487 247.036 672.651 238.163 667.905 230.358 659.032 228.195 651.227 232.94 649.064 241.814 653.809 249.618 662.683 251.782" fill="#036825" fill-rule="evenodd"/>
            </g>
            <g id="nuts-3" data-name="nuts">
              <polygon points="633.988 198.776 642.119 194.615 644.926 185.924 640.765 177.793 632.074 174.986 623.943 179.146 621.136 187.838 625.297 195.969 633.988 198.776" fill="#036825" fill-rule="evenodd"/>
            </g>
            <g id="nuts-4" data-name="nuts">
              <polygon points="558.484 198.201 550.68 193.455 548.517 184.582 553.262 176.777 562.136 174.614 569.94 179.359 572.103 188.233 567.358 196.037 558.484 198.201" fill="#036825" fill-rule="evenodd"/>
            </g>
            <g id="nuts-5" data-name="nuts">
              <polygon points="579.628 144.711 571.641 140.281 569.125 131.5 573.555 123.513 582.335 120.997 590.323 125.427 592.838 134.208 588.409 142.195 579.628 144.711" fill="#036825" fill-rule="evenodd"/>
            </g>
            <g id="nuts-6" data-name="nuts">
              <polygon points="617.322 144.711 625.31 140.281 627.825 131.5 623.395 123.513 614.615 120.997 606.628 125.427 604.112 134.208 608.542 142.195 617.322 144.711" fill="#036825" fill-rule="evenodd"/>
            </g>
            <g>
              <g id="tuner">
                <path d="M485.1587,235.2333l11.3367,5.377a2.8483,2.8483,0,0,0,3.794-1.3527l14.078-29.6813a2.8475,2.8475,0,0,0-1.3528-3.794l-11.3362-5.3772a9.2758,9.2758,0,0,0-12.3553,4.4051l-8.5694,18.0684A9.2741,9.2741,0,0,0,485.1587,235.2333Z"/>
                <rect x="500.4459" y="225.9413" width="33.3047" height="8.3389" transform="translate(885.6903 659.6238) rotate(-154.6242)"/>
              </g>
              <g id="tuner-2" data-name="tuner">
                <path d="M506.1153,183.6523l11.3367,5.377a2.8483,2.8483,0,0,0,3.794-1.3528l14.078-29.6813a2.8473,2.8473,0,0,0-1.3528-3.7939l-11.3362-5.3772a9.2758,9.2758,0,0,0-12.3553,4.4051L501.71,171.2975A9.2743,9.2743,0,0,0,506.1153,183.6523Z"/>
                <polygon points="523.222 174.16 553.314 188.433 556.887 182.899 526.796 168.626 523.222 174.16"/>
              </g>
              <g id="tuner-3" data-name="tuner">
                <path d="M526.6,129.2666l11.5423,4.92a2.8483,2.8483,0,0,0,3.737-1.5032l12.8821-30.2195a2.8476,2.8476,0,0,0-1.5032-3.737l-11.5418-4.92a9.2758,9.2758,0,0,0-12.17,4.8947l-7.8414,18.3961A9.2742,9.2742,0,0,0,526.6,129.2666Z"/>
                <rect x="543.6961" y="119.6233" width="33.3047" height="8.3389" transform="translate(1027.2686 457.4099) rotate(-156.9117)"/>
              </g>
              <g id="tuner-4" data-name="tuner">
                <path d="M687.3009,187.59l-11.7,4.5322a2.8482,2.8482,0,0,1-3.6847-1.627L660.05,159.8624a2.8475,2.8475,0,0,1,1.6271-3.6847l11.7-4.5323c4.7766-1.85,10.149.522,11.9995,6.2982l7.2228,18.6475C694.45,180.3679,692.0775,185.74,687.3009,187.59Z"/>
                <polygon points="672.989 179.386 641.933 191.417 635.856 184.418 666.912 172.388 672.989 179.386"/>
              </g>
              <g id="tuner-5" data-name="tuner">
                <path d="M702.5788,241.27,690.81,245.62a2.8482,2.8482,0,0,1-3.6589-1.6842l-11.3875-30.8139a2.8475,2.8475,0,0,1,1.6842-3.6589l11.7688-4.35a9.2758,9.2758,0,0,1,11.9155,5.4845l6.9315,18.7578A9.2741,9.2741,0,0,1,702.5788,241.27Z"/>
                <polygon points="697.945 226.742 667.854 241.014 657.28 236.48 687.371 222.207 697.945 226.742"/>
              </g>
              <g id="tuner-6" data-name="tuner">
                <path d="M668.4534,135.8684l-11.7879,4.2988a2.8483,2.8483,0,0,1-3.6516-1.7L641.759,107.6047a2.8474,2.8474,0,0,1,1.7-3.6516l11.7875-4.299a9.2758,9.2758,0,0,1,11.8917,5.5357l6.8508,18.7875A9.2741,9.2741,0,0,1,668.4534,135.8684Z"/>
                <polygon points="663.093 122.965 631.058 132.071 617.111 128.62 649.146 119.514 663.093 122.965"/>
              </g>
            </g>
          </g>
        </g>
        <g id="right_side" data-name="right side">
          <polygon points="764.59 2403.332 764.59 1798.385 1050.668 2569.943 764.59 2403.332" fill="#009b3a"/>
          <path d="M778.09,1873.6265l246.8264,665.6969L778.09,2395.5719V1873.6265m-27-150.4834v687.9492l325.3292,189.4714L751.09,1723.1431Z"/>
        </g>
        <g id="left_side" data-name="left side">
          <g id="body">
            <path d="M437.1171,1805.5752V2472.876c-41.1035,23.0366-86.3916,57.8784-134.74,103.6753-40.6152,38.4717-83.5552,84.7866-127.627,137.6592-29.18,35.0063-55.0459,68.354-75.7861,96.0737Z" fill="#009b3a"/>
            <path d="M423.6176,1888.0078v577.0447c-40.2152,23.5294-84.0458,57.6729-130.5238,101.6976-40.9983,38.8344-84.3039,85.539-128.7137,138.8167-9.4111,11.29-18.4489,22.365-27.0754,33.1221l286.3129-850.6811m27-164.8647L57.4392,2891.3384s209.4223-312.4706,393.1784-410.4595V1723.1431Z"/>
          </g>
          <g id="arms">
            <rect id="plate-2" data-name="plate" x="450.6175" y="1731.7862" width="277.7989" height="337.1366" fill="#fed100"/>
            <g id="pickups">
              <rect x="473.2982" y="1731.7862" width="255.1181" height="127.5591"/>
              <rect x="473.2967" y="1941.3637" width="255.1181" height="127.5591"/>
              <rect x="501.6431" y="1948.4503" width="198.4252" height="113.3858" fill="#009b3a"/>
              <rect x="501.6447" y="1740.8728" width="198.4252" height="113.3858" fill="#009b3a"/>
            </g>
          </g>
        </g>
        <g id="add-ons">
          <g id="MIDI_knobs" data-name="MIDI knobs">
            <g id="iddi_knob" data-name="iddi knob">
              <path d="M400.2708,2432.9309h-4.8333a10.8034,10.8034,0,0,1-7.6389,3.1641l-3.4177,3.4177a10.8031,10.8031,0,0,1-3.1642,7.639v4.8333a10.8031,10.8031,0,0,1,3.1642,7.6389l3.4177,3.4177a10.8031,10.8031,0,0,1,7.6389,3.1642s.3714-.4643,2.4167-.4643,2.4166.4643,2.4166.4643a10.8031,10.8031,0,0,1,7.639-3.1642l3.4177-3.4177a10.803,10.803,0,0,1,3.1641-7.6389v-4.8333a10.803,10.803,0,0,1-3.1641-7.639l-3.4177-3.4177A10.8035,10.8035,0,0,1,400.2708,2432.9309Z" fill="#fed100" fill-rule="evenodd"/>
              <path d="M400.2708,2466.2058V2451.88h-4.93l.0969,14.3256a6.5214,6.5214,0,0,1,4.8333,0Z" fill-rule="evenodd"/>
            </g>
          </g>
          <g id="MIDI_knobs-2" data-name="MIDI knobs">
            <g id="iddi_knob-2" data-name="iddi knob">
              <path d="M407.91,2415.4456l3.4177-3.4176a10.803,10.803,0,0,1,3.1641-7.639v-4.8333a10.803,10.803,0,0,1-3.1641-7.639l-3.4177-3.4176a10.8031,10.8031,0,0,1-7.639-3.1642h-4.8333a10.8031,10.8031,0,0,1-7.6389,3.1642s.0656.5909-1.3806,2.0371-2.0371,1.3805-2.0371,1.3805a10.8031,10.8031,0,0,1-3.1642,7.639v4.8333a10.8031,10.8031,0,0,1,3.1642,7.639l3.4177,3.4176a10.8031,10.8031,0,0,1,7.6389,3.1642h4.8333A10.8031,10.8031,0,0,1,407.91,2415.4456Z" fill="#fed100" fill-rule="evenodd"/>
              <path d="M384.3809,2391.9167l10.13,10.13,3.4862-3.4862-10.1982-10.0611a6.522,6.522,0,0,1-3.4177,3.4176Z" fill-rule="evenodd"/>
            </g>
          </g>
          <g id="arcade_live_button" data-name="arcade live button">
            <circle cx="397.8542" cy="2350.3954" r="16.5152"/>
            <polygon points="406.516 2341.303 397.549 2337.841 388.761 2341.734 385.3 2350.7 389.193 2359.488 398.159 2362.95 406.947 2359.057 410.408 2350.091 406.516 2341.303" fill="#484849" fill-rule="evenodd"/>
            <circle cx="397.8542" cy="2350.3954" r="10.2192" fill="#fed100"/>
          </g>
          <g id="arcade_live_button-2" data-name="arcade live button">
            <circle cx="397.8542" cy="2303.9763" r="16.5152"/>
            <polygon points="406.934 2294.604 397.968 2291.143 389.18 2295.036 385.719 2304.002 389.611 2312.79 398.578 2316.251 407.365 2312.359 410.827 2303.392 406.934 2294.604" fill="#484849" fill-rule="evenodd"/>
            <circle cx="398.2728" cy="2303.6972" r="9.804"/>
            <circle id="yellowButton" cx="397.8542" cy="2303.9763" r="10.2192" fill="#fed100"/>
          </g>
          <g id="Fuzz_Pedal" data-name="Fuzz Pedal">
            <g id="fuzz_knobs" data-name="fuzz knobs">
              <g id="fuzz_knob" data-name="fuzz knob">
                <circle cx="804.1132" cy="2373.7789" r="22.6776" fill="#191919"/>
                <path d="M794.2935,2390.7871h0a19.6409,19.6409,0,0,1,16.1446-1.5853c3.4948,1.5853,3.4948,1.5853,4.1747-3.539a19.64,19.64,0,0,1,9.14-11.8839h0a19.64,19.64,0,0,1-9.82-17.0082h0a19.64,19.64,0,0,1-19.6394,0h0a19.6394,19.6394,0,0,1-9.82,17.0082h0A19.6392,19.6392,0,0,1,794.2935,2390.7871Z" fill="#191919" stroke="#000" stroke-miterlimit="10" stroke-width="0.5"/>
                <path d="M805.9157,2376.9038l7.2371,12.5463" fill="none" stroke="#fff" stroke-linecap="round" stroke-miterlimit="10" stroke-width="1.8253"/>
                <line x1="813.9488" y1="2390.7596" x2="815.5369" y2="2393.3724" fill="none" stroke="#fff" stroke-miterlimit="10" stroke-width="1"/>
              </g>
            </g>
            <g id="fuzz_knobs-2" data-name="fuzz knobs">
              <g id="fuzz_knob-2" data-name="fuzz knob">
                <circle cx="804.1132" cy="2319.92" r="22.6776" fill="#191919"/>
                <path d="M804.1132,2300.2806h0a19.6407,19.6407,0,0,1-13.189,9.4452c-3.8192.3744-3.8192.3744-1.8458,5.1521a19.64,19.64,0,0,1-1.9734,14.8618h0a19.6392,19.6392,0,0,1,17.0082,9.82h0a19.6394,19.6394,0,0,1,17.0082-9.82h0a19.64,19.64,0,0,1,0-19.6394h0A19.64,19.64,0,0,1,804.1132,2300.2806Z" fill="#191919" stroke="#000" stroke-miterlimit="10" stroke-width="0.5"/>
                <path d="M800.99,2318.115l-12.5408-7.2469" fill="none" stroke="#fff" stroke-linecap="round" stroke-miterlimit="10" stroke-width="1.8253"/>
                <line x1="787.105" y1="2310.132" x2="784.4232" y2="2308.6634" fill="none" stroke="#fff" stroke-miterlimit="10" stroke-width="1"/>
              </g>
            </g>
            <g id="fuzz_knobs-3" data-name="fuzz knobs">
              <g id="fuzz_knob-3" data-name="fuzz knob">
                <circle cx="804.1132" cy="2263.2271" r="22.6776" fill="#191919"/>
                <path d="M787.105,2253.4073h0a19.6409,19.6409,0,0,1,1.5853,16.1446c-1.5853,3.4947-1.5853,3.4947,3.539,4.1746a19.64,19.64,0,0,1,11.8839,9.14h0a19.6394,19.6394,0,0,1,17.0082-9.82h0a19.6394,19.6394,0,0,1,0-19.6393h0a19.6394,19.6394,0,0,1-17.0082-9.82h0A19.6392,19.6392,0,0,1,787.105,2253.4073Z" fill="#191919" stroke="#000" stroke-miterlimit="10" stroke-width="0.5"/>
                <path d="M800.9883,2265.03l-12.5463,7.2371" fill="none" stroke="#fff" stroke-linecap="round" stroke-miterlimit="10" stroke-width="1.8253"/>
                <line x1="787.1325" y1="2273.0626" x2="784.5197" y2="2274.6508" fill="none" stroke="#fff" stroke-miterlimit="10" stroke-width="1"/>
              </g>
            </g>
            <g id="fuzz_knobs-4" data-name="fuzz knobs">
              <g id="fuzz_knob-4" data-name="fuzz knob">
                <circle cx="804.1132" cy="2209.3688" r="22.6776" fill="#191919"/>
                <path d="M804.1132,2189.7294h0a19.6407,19.6407,0,0,1-13.189,9.4452c-3.8192.3745-3.8192.3745-1.8458,5.1521a19.64,19.64,0,0,1-1.9734,14.8618h0a19.6392,19.6392,0,0,1,17.0082,9.82h0a19.6394,19.6394,0,0,1,17.0082-9.82h0a19.64,19.64,0,0,1,0-19.6394h0A19.64,19.64,0,0,1,804.1132,2189.7294Z" fill="#191919" stroke="#000" stroke-miterlimit="10" stroke-width="0.5"/>
                <path d="M800.99,2207.5638l-12.5408-7.2469" fill="none" stroke="#fff" stroke-linecap="round" stroke-miterlimit="10" stroke-width="1.8253"/>
                <line x1="787.105" y1="2199.5808" x2="784.4232" y2="2198.1122" fill="none" stroke="#fff" stroke-miterlimit="10" stroke-width="1"/>
              </g>
            </g>
            <g id="fuzz_knobs-5" data-name="fuzz knobs">
              <g id="fuzz_knob-5" data-name="fuzz knob">
                <circle cx="804.1132" cy="2155.5105" r="22.6772" fill="#191919"/>
                <path d="M823.7522,2155.5105h0a19.6406,19.6406,0,0,1-9.445-13.1887c-.3745-3.8192-.3745-3.8192-5.1521-1.8458a19.64,19.64,0,0,1-14.8614-1.9734h0a19.639,19.639,0,0,1-9.8195,17.0078h0a19.6392,19.6392,0,0,1,9.8195,17.0079h0a19.6389,19.6389,0,0,1,19.639,0h0A19.6391,19.6391,0,0,1,823.7522,2155.5105Z" fill="#191919" stroke="#000" stroke-miterlimit="10" stroke-width="0.5"/>
                <path d="M805.9181,2152.3871l7.2468-12.54" fill="none" stroke="#fff" stroke-linecap="round" stroke-miterlimit="10" stroke-width="1.8252"/>
                <line x1="813.901" y1="2138.5026" x2="815.3695" y2="2135.8209" fill="none" stroke="#fff" stroke-miterlimit="10" stroke-width="1"/>
              </g>
            </g>
            <g id="fuzz_on_off" data-name="fuzz on/off">
              <path d="M867.91,2233.7981h-4.8333a10.8035,10.8035,0,0,1-7.639,3.1641L852.02,2240.38a10.8027,10.8027,0,0,1-3.1642,7.6389v4.8334a10.8029,10.8029,0,0,1,3.1642,7.6389l3.4177,3.4177a10.8031,10.8031,0,0,1,7.6389,3.1642H867.91a10.8031,10.8031,0,0,1,7.639-3.1642l3.4177-3.4177a10.8028,10.8028,0,0,1,3.1641-7.6389v-4.8334a10.8026,10.8026,0,0,1-3.1641-7.6389l-3.4177-3.4177A10.8035,10.8035,0,0,1,867.91,2233.7981Z" fill="#191919" fill-rule="evenodd"/>
              <path id="nick" d="M861.5144,2256.028l-2.0229,9.7481a.47.47,0,0,0,.3645.5553l2.834.5881a.4271.4271,0,0,0,.5049-.3313l2.0315-9.79Z" fill="#fff" fill-rule="evenodd"/>
            </g>
            <g id="toggle-_kill" data-name="toggle- kill">
              <circle cx="863.8508" cy="2208.1695" r="12.7308" fill="#191919"/>
              <g>
                <polygon points="860.181 2217.204 854.889 2211.912 854.889 2204.427 860.181 2199.135 867.665 2199.135 872.957 2204.427 872.957 2211.912 867.665 2217.204 860.181 2217.204" fill="#03196b" fill-rule="evenodd"/>
                <path d="M867.4577,2199.6352l4.9993,4.9992v7.07l-4.9993,4.9994h-7.07l-4.9994-4.9994v-7.07l4.9994-4.9992h7.07m.4142-1h-7.8986l-.2929.2928-4.9994,4.9993-.2929.2929v7.8986l.2929.293,4.9994,4.9994.2929.2928h7.8986l.293-.2928,4.9992-4.9994.2929-.293V2204.22l-.2929-.2929-4.9992-4.9993-.293-.2928Z"/>
              </g>
              <ellipse cx="863.8508" cy="2208.1695" rx="6.9282" ry="7.1896"/>
              <ellipse cx="863.8508" cy="2208.1695" rx="5.0009" ry="5.1896" fill="#333"/>
              <g>
                <path d="M852.11,2221.0445l4.9277-11.8272.1807-.4453c.5312-1.3291.9892-2.4775,2.7041-2.4775h8c1.2344,0,1.6514,1.5473,1.8769,2.8955l2.9629,11.8545Z" fill="#333" fill-rule="evenodd"/>
                <path d="M867.9225,2206.42c.891,0,1.4318.8608,1.7575,2.8106l2.9224,11.6894H852.2975l4.8558-11.6538c.0623-.15.1223-.3.1817-.4485.5142-1.2865.9583-2.3977,2.5875-2.3977h8m0-.25h-8c-2,0-2.3862,1.5268-3,3l-5,12h21l-3-12c-.221-1.3269-.6547-3-2-3Z"/>
              </g>
              <g id="toggle">
                <path d="M853.0009,2224.0557a.9136.9136,0,0,1-.91-.9l-.0176-1.6275a2.2105,2.2105,0,0,1,2.21-2.2338h16.8291a1.6664,1.6664,0,0,1,1.6661,1.684l-.0235,2.1768a.9123.9123,0,0,1-.9092.9Z" fill="#262626" fill-rule="evenodd"/>
                <path d="M871.1119,2219.42a1.5413,1.5413,0,0,1,1.5412,1.5578l-.0233,2.1769a.7873.7873,0,0,1-.7846.7763H853.0008a.7874.7874,0,0,1-.7846-.7762l-.0178-1.6272a2.0849,2.0849,0,0,1,2.0849-2.1076h16.8286m0-.25H854.2833a2.3349,2.3349,0,0,0-2.3349,2.36l.0178,1.627a1.0348,1.0348,0,0,0,1.0346,1.0235h18.8444a1.0347,1.0347,0,0,0,1.0346-1.0236l.0233-2.1769a1.7912,1.7912,0,0,0-1.7912-1.8105Z"/>
              </g>
            </g>
          </g>
          <g id="toggle-_kill-2" data-name="toggle- kill">
            <circle cx="857.8415" cy="2146.6524" r="12.7308" fill="#191919"/>
            <g>
              <polygon points="854.1 2155.615 848.808 2150.323 848.808 2142.838 854.1 2137.546 861.584 2137.546 866.876 2142.838 866.876 2150.323 861.584 2155.615 854.1 2155.615" fill="#03196b" fill-rule="evenodd"/>
              <path d="M861.3765,2138.0463l4.9994,4.9994v7.07l-4.9994,4.9994h-7.07l-4.9994-4.9994v-7.07l4.9994-4.9994h7.07m.4142-1h-7.8984l-.293.2928-4.9994,4.9994-.2928.293v7.8984l.2928.293,4.9994,4.9994.293.2928h7.8984l.293-.2928,4.9994-4.9994.2928-.293v-7.8984l-.2928-.293-4.9994-4.9994-.293-.2928Z"/>
            </g>
            <ellipse cx="857.8415" cy="2146.6524" rx="7.1896" ry="6.9282"/>
            <ellipse cx="857.8415" cy="2146.6524" rx="5.1896" ry="5.0009" fill="#333"/>
            <g>
              <path d="M858.89,2153.4654l-.4463-.1812c-1.3291-.5308-2.4766-.9893-2.4766-2.7036v-8c0-1.2359,1.5479-1.6519,2.8955-1.8765l11.8545-2.9634v20.6524Z" fill="#333" fill-rule="evenodd"/>
              <path d="M870.5915,2137.9009v20.3048l-11.6538-4.8557c-.15-.0624-.3-.1223-.4485-.1818-1.2865-.5141-2.3977-.9582-2.3977-2.5875v-8c0-.8909.8608-1.4316,2.8107-1.7574l11.6893-2.9224m.25-.32-12,3c-1.3269.2212-3,.6548-3,2v8c0,2,1.5268,2.3862,3,3l12,5v-21Z"/>
            </g>
            <g id="toggle-2" data-name="toggle">
              <path d="M871.1757,2158.43a2.2119,2.2119,0,0,1-2.209-2.2095v-16.8286a1.668,1.668,0,0,1,1.6661-1.6665l2.1953.0235a.9118.9118,0,0,1,.8994.91v18.8443a.9124.9124,0,0,1-.8994.91Z" fill="#262626" fill-rule="evenodd"/>
              <path d="M870.6325,2137.6l.017.25,2.1767.0233a.7875.7875,0,0,1,.7764.7847v18.8444a.7872.7872,0,0,1-.7761.7845l-1.6508.018a2.0869,2.0869,0,0,1-2.0842-2.085v-16.8286a1.543,1.543,0,0,1,1.541-1.5414v-.25m0,0a1.7914,1.7914,0,0,0-1.791,1.7914V2156.22a2.335,2.335,0,0,0,2.3342,2.335l.0263,0,1.6272-.0178a1.0346,1.0346,0,0,0,1.0234-1.0345v-18.8444a1.0348,1.0348,0,0,0-1.0237-1.0347l-2.1767-.0233Z"/>
            </g>
          </g>
          <g id="locking-tremolo">
            <g id="plate-3" data-name="plate">
              <polygon points="517.812 2266.455 517.44 2211.049 491.404 2211.049 491.404 2148.488 498.341 2148.488 520.133 2147.94 522.758 2127.477 678.608 2126.461 686.593 2148.35 721.043 2148.279 721.043 2211.193 684.951 2211.582 682.701 2266.455 517.812 2266.455" fill="#009b3a"/>
              <path d="M669.185,2140.0228l1.4812,4.0606,6.4882,17.7863,18.9326-.0391,11.4558-.0237v36.0313l-9.9179.1065-25.6367.2754-1.0505,25.6167-1.194,29.1181H531.223l-.192-28.5866-.18-26.8187H504.9038v-35.7221l3.99-.1,23.1553-.5819,2.5971-20.246,134.5386-.8766M734.5428,2112.9H723.5661l.1847,21.8739-27.72.0572-8-21.9311-177.1625,1.1541-2.653,20.682-10.0446.2525h-8.093l-3.907-20.9345h-8.2674V2224.55h26.1278l.3721,55.4053H695.6591l2.2559-55.0118,36.6278-.3935V2112.9Z"/>
            </g>
            <g>
              <rect x="520.0196" y="2213.9018" width="10.6523" height="73.6387" fill="url(#linear-gradient)"/>
              <rect x="520.0196" y="2213.9018" width="10.6523" height="73.6387" opacity="0.84"/>
            </g>
            <rect x="515.0626" y="2287.3536" width="19.1776" height="11.4418" rx="3.2833" fill-opacity="0.84" stroke="#000" stroke-miterlimit="10" stroke-width="0.25"/>
            <g>
              <rect x="551.7828" y="2209.0622" width="10.6523" height="75.4784" fill="url(#linear-gradient-2)"/>
              <rect x="551.7828" y="2209.0622" width="10.6523" height="75.4784" opacity="0.84"/>
            </g>
            <rect x="546.8259" y="2284.3535" width="19.1776" height="11.4418" rx="3.2833" fill-opacity="0.84" stroke="#000" stroke-miterlimit="10" stroke-width="0.25"/>
            <g>
              <rect x="581.2281" y="2204.0621" width="10.6523" height="78.4784" fill="url(#linear-gradient-3)"/>
              <rect x="581.2281" y="2204.0621" width="10.6523" height="78.4784" opacity="0.84"/>
            </g>
            <rect x="576.2711" y="2282.3535" width="19.1776" height="11.4418" rx="3.2833" fill-opacity="0.84" stroke="#000" stroke-miterlimit="10" stroke-width="0.25"/>
            <g>
              <rect x="612.9913" y="2213.9018" width="10.6523" height="73.6387" fill="url(#linear-gradient-4)"/>
              <rect x="612.9913" y="2213.9018" width="10.6523" height="73.6387" opacity="0.84"/>
            </g>
            <rect x="608.0344" y="2287.3536" width="19.1776" height="11.4418" rx="3.2833" fill-opacity="0.84" stroke="#000" stroke-miterlimit="10" stroke-width="0.25"/>
            <g>
              <rect x="642.8446" y="2207.0621" width="10.6523" height="76.4784" fill="url(#linear-gradient-5)"/>
              <rect x="642.8446" y="2207.0621" width="10.6523" height="76.4784" opacity="0.84"/>
            </g>
            <rect x="637.8876" y="2283.3535" width="19.1776" height="11.4418" rx="3.2833" fill-opacity="0.84" stroke="#000" stroke-miterlimit="10" stroke-width="0.25"/>
            <g>
              <rect x="674.6079" y="2202.0621" width="10.6523" height="76.4784" fill="url(#linear-gradient-6)"/>
              <rect x="674.6079" y="2202.0621" width="10.6523" height="76.4784" opacity="0.84"/>
            </g>
            <rect x="669.6509" y="2278.3535" width="19.1776" height="11.4418" rx="3.2833" fill-opacity="0.84" stroke="#000" stroke-miterlimit="10" stroke-width="0.25"/>
            <g>
              <rect x="504.9033" y="2257.6153" width="191.4551" height="21.8398" fill="#009b3a"/>
              <path d="M695.858,2258.1154v20.84H505.4037v-20.84H695.858m1-1H504.4037v22.84H696.858v-22.84Z"/>
            </g>
            <rect x="504.4037" y="2246.8013" width="192.4542" height="10.4199" fill="url(#linear-gradient-7)"/>
            <g>
              <polygon points="504.903 2246.954 504.903 2236.141 504.574 2228.269 518.324 2228.269 518.519 2236.641 532.877 2236.641 532.877 2228.269 548.342 2228.269 548.492 2236.641 565.28 2236.641 565.012 2228.269 577.81 2228.269 577.81 2236.641 594.695 2236.641 594.781 2228.269 610.739 2228.269 610.739 2236.641 625.693 2236.641 625.693 2228.134 640.817 2228.265 640.957 2236.641 655.546 2236.641 655.685 2227.795 672.143 2228.255 672.282 2236.641 687.577 2236.641 687.577 2228.269 697.278 2228.269 696.955 2236.121 696.384 2246.954 504.903 2246.954" fill="#009b3a"/>
              <path d="M656.1773,2228.3085l15.4736.4333.1239,7.4159.0165.9833h16.2858v-1l0-7.3721h8.68l-.3,7.3194-.5473,10.3655H505.4036l-.0016-10.3545-.3067-7.33h12.74l.1719,7.3953.0227.9768H533.377v-1l0-7.3721h14.4733l.1324,7.39.0175.982h17.7952l-.0329-1.032-.235-7.34h11.7813v8.3721H595.19l.01-.99.0761-7.3825H610.24v8.3721h15.9534v-1l0-7.503,14.1324.1225.1233,7.3972.0164.9833h15.5729l.0155-.9842.1235-7.8483m-.9839-1.028-.1395,8.8605h-13.605l-.1395-8.3721-16.1161-.14,0,8.5118H611.24v-8.3721H594.2862l-.0863,8.3721H578.3091v-8.3721H564.4952l.268,8.3721h-15.78l-.15-8.3721H532.3773l0,8.3721h-13.37l-.1947-8.3721h-14.76l.35,8.3721.0008,11.3128H696.858l.5974-11.3128.3434-8.3721H687.0767l0,8.3721H672.7747l-.14-8.3721-17.4414-.4884Z"/>
            </g>
            <g id="new_lock" data-name="new lock">
              <g id="locks">
                <g id="string-lock">
                  <path d="M511.6689,2202.32h28.0835a0,0,0,0,1,0,0v5.8085a5.7729,5.7729,0,0,1-5.7729,5.7729H517.4418a5.7729,5.7729,0,0,1-5.7729-5.7729V2202.32a0,0,0,0,1,0,0Z"/>
                  <path d="M520.8771,2159.8787h.4936a2.4509,2.4509,0,0,1,2.4509,2.4509v12.2577a0,0,0,0,1,0,0h-5.3953a0,0,0,0,1,0,0V2162.33A2.4509,2.4509,0,0,1,520.8771,2159.8787Z" fill="#12110d" stroke="#000" stroke-miterlimit="10" stroke-width="0.2484"/>
                  <path d="M530.84,2159.8787h.4936a2.4509,2.4509,0,0,1,2.4509,2.4509v12.2577a0,0,0,0,1,0,0h-5.3953a0,0,0,0,1,0,0V2162.33A2.4509,2.4509,0,0,1,530.84,2159.8787Z" fill="#12110d" stroke="#000" stroke-miterlimit="10" stroke-width="0.2484"/>
                  <rect x="511.6689" y="2174.359" width="28.0835" height="36.3706" rx="1.3678" fill="#ff0" stroke="#000" stroke-miterlimit="10" stroke-width="0.2525"/>
                  <rect x="523.8215" y="2161.6302" width="4.8637" height="25.9141" fill="#090907"/>
                  <rect x="519.0548" y="2184.3281" width="14.1732" height="17.0079" stroke="#000" stroke-miterlimit="10" stroke-width="0.2392"/>
                  <g>
                    <rect x="520.0302" y="2185.2129" width="12.2227" height="6.9824" fill="#009b3a"/>
                    <path d="M532.128,2185.3378v6.7325H520.1548v-6.7325H532.128m.25-.25H519.9048v7.2325H532.378v-7.2325Z"/>
                  </g>
                </g>
              </g>
              <g id="lock-lock">
                <rect x="521.1239" y="2113.6616" width="9.913" height="47.9686"/>
                <path d="M517.7137,2122.9253s-4.4539-.7442-4.9619,4.4651l-1.695,24.5581h10.6421v-25.2534A3.882,3.882,0,0,0,517.7137,2122.9253Z" fill="#191919" stroke="#000" stroke-miterlimit="10" stroke-width="0.257" fill-rule="evenodd"/>
                <path d="M534.269,2122.9253s4.4538-.7442,4.9618,4.4651l1.6951,24.5581H530.2838v-25.2534A3.882,3.882,0,0,1,534.269,2122.9253Z" fill="#191919" stroke="#000" stroke-miterlimit="10" stroke-width="0.257" fill-rule="evenodd"/>
                <rect x="511.0568" y="2151.9485" width="7.4418" height="18.0465" fill="#191919" stroke="#000" stroke-miterlimit="10" stroke-width="0.25"/>
                <rect x="533.4841" y="2151.9485" width="7.4418" height="18.0465" fill="#191919" stroke="#000" stroke-miterlimit="10" stroke-width="0.25"/>
                <polygon points="539.752 2175.088 533.484 2175.088 533.484 2169.995 540.926 2169.995 539.752 2175.088" fill="#191919" stroke="#000" stroke-miterlimit="10" stroke-width="0.25"/>
                <polygon points="518.426 2175.088 511.669 2175.088 511.057 2169.995 518.499 2169.995 518.426 2175.088" fill="#191919" stroke="#000" stroke-miterlimit="10" stroke-width="0.25"/>
              </g>
            </g>
            <g>
              <g id="locks-2" data-name="locks">
                <g id="string-lock-2" data-name="string-lock">
                  <path d="M542.0033,2197.4808h28.0835a0,0,0,0,1,0,0v5.8085a5.7729,5.7729,0,0,1-5.7729,5.7729H547.7761a5.7729,5.7729,0,0,1-5.7729-5.7729v-5.8085A0,0,0,0,1,542.0033,2197.4808Z"/>
                  <path d="M551.2527,2155.039h.4109a2.4922,2.4922,0,0,1,2.4922,2.4922v12.717a0,0,0,0,1,0,0h-5.3953a0,0,0,0,1,0,0v-12.717A2.4922,2.4922,0,0,1,551.2527,2155.039Z"/>
                  <path d="M561.2154,2155.039h.4109a2.4922,2.4922,0,0,1,2.4922,2.4922v12.717a0,0,0,0,1,0,0h-5.3953a0,0,0,0,1,0,0v-12.717A2.4922,2.4922,0,0,1,561.2154,2155.039Z"/>
                  <rect x="542.0033" y="2169.5194" width="28.0835" height="36.3706" rx="1.3678" fill="#ff0" stroke="#000" stroke-miterlimit="10" stroke-width="0.2525"/>
                  <rect x="553.8218" y="2156.6301" width="4.8637" height="25.9141" fill="#090907"/>
                  <rect x="549.055" y="2179.328" width="14.1732" height="17.0079" stroke="#000" stroke-miterlimit="10" stroke-width="0.2392"/>
                  <g>
                    <rect x="550.0302" y="2180.2129" width="12.2227" height="6.9824" fill="#009b3a"/>
                    <path d="M562.1282,2180.3378v6.7325H550.1551v-6.7325h11.9731m.25-.25H549.9051v7.2325h12.4731v-7.2325Z"/>
                  </g>
                </g>
              </g>
              <g id="lock-lock-2" data-name="lock-lock">
                <rect x="551.4582" y="2113.6618" width="9.913" height="43.1287"/>
                <path d="M548.048,2118.0856s-4.4539-.7442-4.9618,4.4651l-1.6951,24.5581h10.6421v-25.2533A3.882,3.882,0,0,0,548.048,2118.0856Z" fill="#191919" stroke="#000" stroke-miterlimit="10" stroke-width="0.257" fill-rule="evenodd"/>
                <path d="M564.6033,2118.0856s4.4539-.7442,4.9618,4.4651l1.6951,24.5581H560.6181v-25.2533A3.882,3.882,0,0,1,564.6033,2118.0856Z" fill="#191919" stroke="#000" stroke-miterlimit="10" stroke-width="0.257" fill-rule="evenodd"/>
                <rect x="541.3911" y="2147.1088" width="7.4418" height="18.0465" fill="#191919" stroke="#000" stroke-miterlimit="10" stroke-width="0.25"/>
                <rect x="563.8184" y="2147.1088" width="7.4418" height="18.0465" fill="#191919" stroke="#000" stroke-miterlimit="10" stroke-width="0.25"/>
                <polygon points="570.087 2170.248 563.818 2170.248 563.818 2165.155 571.26 2165.155 570.087 2170.248" fill="#191919" stroke="#000" stroke-miterlimit="10" stroke-width="0.25"/>
                <polygon points="548.761 2170.248 542.003 2170.248 541.391 2165.155 548.833 2165.155 548.761 2170.248" fill="#191919" stroke="#000" stroke-miterlimit="10" stroke-width="0.25"/>
              </g>
            </g>
            <g>
              <g id="locks-3" data-name="locks">
                <g id="string-lock-3" data-name="string-lock">
                  <path d="M572.7026,2192.4807h28.0835a0,0,0,0,1,0,0v5.8085a5.7729,5.7729,0,0,1-5.7729,5.7729H578.4754a5.7729,5.7729,0,0,1-5.7729-5.7729v-5.8085A0,0,0,0,1,572.7026,2192.4807Z"/>
                  <path d="M581.952,2150.039h.4109a2.4922,2.4922,0,0,1,2.4922,2.4922v12.717a0,0,0,0,1,0,0H579.46a0,0,0,0,1,0,0v-12.717A2.4922,2.4922,0,0,1,581.952,2150.039Z"/>
                  <path d="M591.9147,2150.039h.4109a2.4922,2.4922,0,0,1,2.4922,2.4922v12.717a0,0,0,0,1,0,0h-5.3953a0,0,0,0,1,0,0v-12.717A2.4922,2.4922,0,0,1,591.9147,2150.039Z"/>
                  <rect x="572.7026" y="2164.5193" width="28.0835" height="36.3706" rx="1.3678" fill="#ff0" stroke="#000" stroke-miterlimit="10" stroke-width="0.2525"/>
                  <rect x="584.7941" y="2151.7904" width="4.8637" height="25.9141" fill="#090907"/>
                  <rect x="580.0274" y="2174.4884" width="14.1732" height="17.0079" stroke="#000" stroke-miterlimit="10" stroke-width="0.2392"/>
                  <g>
                    <rect x="581.0029" y="2175.3731" width="12.2227" height="6.9824" fill="#009b3a"/>
                    <path d="M593.1005,2175.4981v6.7325H581.1274v-6.7325h11.9731m.25-.25H580.8774v7.2325h12.4731v-7.2325Z"/>
                  </g>
                </g>
              </g>
              <g id="lock-lock-3" data-name="lock-lock">
                <rect x="582.1575" y="2113.6618" width="9.913" height="38.1286"/>
                <path d="M578.7473,2113.0856s-4.4539-.7442-4.9619,4.4651l-1.695,24.5581h10.6421v-25.2534A3.882,3.882,0,0,0,578.7473,2113.0856Z" fill="#191919" stroke="#000" stroke-miterlimit="10" stroke-width="0.257" fill-rule="evenodd"/>
                <path d="M595.3026,2113.0856s4.4538-.7442,4.9618,4.4651l1.6951,24.5581H591.3174v-25.2534A3.882,3.882,0,0,1,595.3026,2113.0856Z" fill="#191919" stroke="#000" stroke-miterlimit="10" stroke-width="0.257" fill-rule="evenodd"/>
                <rect x="572.0904" y="2142.1088" width="7.4418" height="18.0465" fill="#191919" stroke="#000" stroke-miterlimit="10" stroke-width="0.25"/>
                <rect x="594.5177" y="2142.1088" width="7.4418" height="18.0465" fill="#191919" stroke="#000" stroke-miterlimit="10" stroke-width="0.25"/>
                <polygon points="600.786 2165.248 594.518 2165.248 594.518 2160.155 601.96 2160.155 600.786 2165.248" fill="#191919" stroke="#000" stroke-miterlimit="10" stroke-width="0.25"/>
                <polygon points="579.46 2165.248 572.703 2165.248 572.09 2160.155 579.532 2160.155 579.46 2165.248" fill="#191919" stroke="#000" stroke-miterlimit="10" stroke-width="0.25"/>
              </g>
            </g>
            <g>
              <g id="locks-4" data-name="locks">
                <g id="string-lock-4" data-name="string-lock">
                  <path d="M603.4018,2202.4808h28.0835a0,0,0,0,1,0,0v5.8085a5.7729,5.7729,0,0,1-5.7729,5.7729H609.1747a5.7729,5.7729,0,0,1-5.7729-5.7729v-5.8085A0,0,0,0,1,603.4018,2202.4808Z"/>
                  <path d="M612.6513,2160.039h.4109a2.4922,2.4922,0,0,1,2.4922,2.4922v12.717a0,0,0,0,1,0,0h-5.3953a0,0,0,0,1,0,0v-12.717A2.4922,2.4922,0,0,1,612.6513,2160.039Z"/>
                  <path d="M622.614,2160.039h.4109a2.4922,2.4922,0,0,1,2.4922,2.4922v12.717a0,0,0,0,1,0,0h-5.3953a0,0,0,0,1,0,0v-12.717A2.4922,2.4922,0,0,1,622.614,2160.039Z"/>
                  <rect x="603.4018" y="2174.5194" width="28.0835" height="36.3706" rx="1.3678" fill="#ff0" stroke="#000" stroke-miterlimit="10" stroke-width="0.2525"/>
                  <rect x="615.4934" y="2161.7905" width="4.8637" height="25.9141" fill="#090907"/>
                  <rect x="610.7266" y="2184.4885" width="14.1732" height="17.0079" stroke="#000" stroke-miterlimit="10" stroke-width="0.2392"/>
                  <g>
                    <rect x="611.7021" y="2185.3731" width="12.2227" height="6.9829" fill="#009b3a"/>
                    <path d="M623.8,2185.4982v6.7325H611.8267v-6.7325H623.8m.25-.25H611.5767v7.2325H624.05v-7.2325Z"/>
                  </g>
                </g>
              </g>
              <g id="lock-lock-4" data-name="lock-lock">
                <rect x="612.8568" y="2113.3103" width="9.913" height="48.4802"/>
                <path d="M609.4466,2123.0856s-4.4539-.7442-4.9619,4.4651l-1.695,24.5581h10.6421v-25.2533A3.8821,3.8821,0,0,0,609.4466,2123.0856Z" fill="#191919" stroke="#000" stroke-miterlimit="10" stroke-width="0.257" fill-rule="evenodd"/>
                <path d="M626.0019,2123.0856s4.4538-.7442,4.9618,4.4651l1.6951,24.5581H622.0167v-25.2533A3.8821,3.8821,0,0,1,626.0019,2123.0856Z" fill="#191919" stroke="#000" stroke-miterlimit="10" stroke-width="0.257" fill-rule="evenodd"/>
                <rect x="602.7897" y="2152.1088" width="7.4418" height="18.0465" fill="#191919" stroke="#000" stroke-miterlimit="10" stroke-width="0.25"/>
                <rect x="625.217" y="2152.1088" width="7.4418" height="18.0465" fill="#191919" stroke="#000" stroke-miterlimit="10" stroke-width="0.25"/>
                <polygon points="631.485 2175.248 625.217 2175.248 625.217 2170.155 632.659 2170.155 631.485 2175.248" fill="#191919" stroke="#000" stroke-miterlimit="10" stroke-width="0.25"/>
                <polygon points="610.159 2175.248 603.402 2175.248 602.79 2170.155 610.232 2170.155 610.159 2175.248" fill="#191919" stroke="#000" stroke-miterlimit="10" stroke-width="0.25"/>
              </g>
            </g>
            <g>
              <g id="locks-5" data-name="locks">
                <g id="string-lock-5" data-name="string-lock">
                  <path d="M634.1011,2195.4808h28.0835a0,0,0,0,1,0,0v5.8085a5.7729,5.7729,0,0,1-5.7729,5.7729H639.874a5.7729,5.7729,0,0,1-5.7729-5.7729v-5.8085A0,0,0,0,1,634.1011,2195.4808Z"/>
                  <path d="M643.3506,2153.039h.4109a2.4922,2.4922,0,0,1,2.4922,2.4922v12.717a0,0,0,0,1,0,0h-5.3953a0,0,0,0,1,0,0v-12.717A2.4922,2.4922,0,0,1,643.3506,2153.039Z"/>
                  <path d="M653.3133,2153.039h.4109a2.4922,2.4922,0,0,1,2.4922,2.4922v12.717a0,0,0,0,1,0,0h-5.3953a0,0,0,0,1,0,0v-12.717A2.4922,2.4922,0,0,1,653.3133,2153.039Z"/>
                  <rect x="634.1011" y="2167.5193" width="28.0835" height="36.3706" rx="1.3678" fill="#ff0" stroke="#000" stroke-miterlimit="10" stroke-width="0.2525"/>
                  <rect x="645.9979" y="2154.7905" width="4.8637" height="25.9141" fill="#090907"/>
                  <rect x="641.2312" y="2177.4884" width="14.1732" height="17.0079" stroke="#000" stroke-miterlimit="10" stroke-width="0.2392"/>
                  <g>
                    <rect x="642.206" y="2178.3731" width="12.2236" height="6.9824" fill="#009b3a"/>
                    <path d="M654.3044,2178.4981v6.7326H642.3312v-6.7326h11.9732m.25-.25H642.0812v7.2326h12.4732v-7.2326Z"/>
                  </g>
                </g>
              </g>
              <g id="lock-lock-5" data-name="lock-lock">
                <rect x="643.5561" y="2113.3103" width="9.913" height="41.4801"/>
                <path d="M640.1459,2116.0856s-4.4539-.7442-4.9619,4.4651l-1.6951,24.5581h10.6422v-25.2533A3.8821,3.8821,0,0,0,640.1459,2116.0856Z" fill="#191919" stroke="#000" stroke-miterlimit="10" stroke-width="0.257" fill-rule="evenodd"/>
                <path d="M656.7012,2116.0856s4.4538-.7442,4.9618,4.4651l1.6951,24.5581H652.7159v-25.2533A3.8821,3.8821,0,0,1,656.7012,2116.0856Z" fill="#191919" stroke="#000" stroke-miterlimit="10" stroke-width="0.257" fill-rule="evenodd"/>
                <rect x="633.4889" y="2145.1088" width="7.4418" height="18.0465" fill="#191919" stroke="#000" stroke-miterlimit="10" stroke-width="0.25"/>
                <rect x="655.9162" y="2145.1088" width="7.4418" height="18.0465" fill="#191919" stroke="#000" stroke-miterlimit="10" stroke-width="0.25"/>
                <polygon points="662.185 2168.248 655.916 2168.248 655.916 2163.155 663.358 2163.155 662.185 2168.248" fill="#191919" stroke="#000" stroke-miterlimit="10" stroke-width="0.25"/>
                <polygon points="640.858 2168.248 634.101 2168.248 633.489 2163.155 640.931 2163.155 640.858 2168.248" fill="#191919" stroke="#000" stroke-miterlimit="10" stroke-width="0.25"/>
              </g>
            </g>
            <g>
              <g id="locks-6" data-name="locks">
                <g id="string-lock-6" data-name="string-lock">
                  <path d="M664.8,2190.4807h28.0835a0,0,0,0,1,0,0v5.8085a5.7729,5.7729,0,0,1-5.7729,5.7729H670.5733a5.7729,5.7729,0,0,1-5.7729-5.7729v-5.8085A0,0,0,0,1,664.8,2190.4807Z"/>
                  <path d="M674.05,2148.0389h.4109a2.4922,2.4922,0,0,1,2.4922,2.4922v12.717a0,0,0,0,1,0,0h-5.3953a0,0,0,0,1,0,0v-12.717A2.4922,2.4922,0,0,1,674.05,2148.0389Z"/>
                  <path d="M684.0126,2148.0389h.4109a2.4922,2.4922,0,0,1,2.4922,2.4922v12.717a0,0,0,0,1,0,0H681.52a0,0,0,0,1,0,0v-12.717A2.4922,2.4922,0,0,1,684.0126,2148.0389Z"/>
                  <rect x="664.8004" y="2162.5193" width="28.0835" height="36.3706" rx="1.3678" fill="#ff0" stroke="#000" stroke-miterlimit="10" stroke-width="0.2525"/>
                  <rect x="676.892" y="2149.7904" width="4.8637" height="25.9141" fill="#090907"/>
                  <rect x="672.1252" y="2172.4884" width="14.1732" height="17.0079" stroke="#000" stroke-miterlimit="10" stroke-width="0.2392"/>
                  <g>
                    <rect x="673.1005" y="2173.3731" width="12.2227" height="6.9824" fill="#009b3a"/>
                    <path d="M685.1984,2173.4981v6.7325H673.2253v-6.7325h11.9731m.25-.25H672.9753v7.2325h12.4731v-7.2325Z"/>
                  </g>
                </g>
              </g>
              <g id="lock-lock-6" data-name="lock-lock">
                <rect x="674.2553" y="2113.0488" width="9.913" height="36.7416"/>
                <path d="M670.8452,2111.0855s-4.4539-.7441-4.9619,4.4651l-1.6951,24.5581H674.83v-25.2533A3.8821,3.8821,0,0,0,670.8452,2111.0855Z" fill="#191919" stroke="#000" stroke-miterlimit="10" stroke-width="0.257" fill-rule="evenodd"/>
                <path d="M687.4005,2111.0855s4.4538-.7441,4.9618,4.4651l1.6951,24.5581H683.4152v-25.2533A3.8821,3.8821,0,0,1,687.4005,2111.0855Z" fill="#191919" stroke="#000" stroke-miterlimit="10" stroke-width="0.257" fill-rule="evenodd"/>
                <rect x="664.1882" y="2140.1087" width="7.4418" height="18.0465" fill="#191919" stroke="#000" stroke-miterlimit="10" stroke-width="0.25"/>
                <rect x="686.6155" y="2140.1087" width="7.4418" height="18.0465" fill="#191919" stroke="#000" stroke-miterlimit="10" stroke-width="0.25"/>
                <polygon points="692.884 2163.248 686.616 2163.248 686.616 2158.155 694.057 2158.155 692.884 2163.248" fill="#191919" stroke="#000" stroke-miterlimit="10" stroke-width="0.25"/>
                <polygon points="671.558 2163.248 664.8 2163.248 664.188 2158.155 671.63 2158.155 671.558 2163.248" fill="#191919" stroke="#000" stroke-miterlimit="10" stroke-width="0.25"/>
              </g>
            </g>
            <g id="lock-lock-color-group-1">
              <g>
                <path d="M587.7822,2139.0171a6.7688,6.7688,0,1,1,6.7685-6.769A6.7763,6.7763,0,0,1,587.7822,2139.0171Z" fill="#009b3a"/>
                <path d="M587.7822,2126.98a5.2686,5.2686,0,1,1-5.2686,5.2685,5.2746,5.2746,0,0,1,5.2686-5.2685m0-3a8.2686,8.2686,0,1,0,8.2686,8.2685,8.2685,8.2685,0,0,0-8.2686-8.2685Z" fill="#ff0"/>
              </g>
              <g>
                <path d="M679.88,2137.0171a6.7688,6.7688,0,1,1,6.7686-6.769A6.7763,6.7763,0,0,1,679.88,2137.0171Z" fill="#009b3a"/>
                <path d="M679.88,2124.98a5.2687,5.2687,0,1,1-5.2686,5.2687,5.2747,5.2747,0,0,1,5.2686-5.2687m0-3a8.2687,8.2687,0,1,0,8.2685,8.2687,8.2686,8.2686,0,0,0-8.2685-8.2687Z" fill="#ff0"/>
              </g>
              <g>
                <path d="M649.1806,2142.0171a6.7688,6.7688,0,1,1,6.7686-6.7685A6.7759,6.7759,0,0,1,649.1806,2142.0171Z" fill="#009b3a"/>
                <path d="M649.1808,2129.98a5.2686,5.2686,0,1,1-5.2686,5.2685,5.2746,5.2746,0,0,1,5.2686-5.2685m0-3a8.2686,8.2686,0,1,0,8.2686,8.2685,8.2685,8.2685,0,0,0-8.2686-8.2685Z" fill="#ff0"/>
              </g>
              <g>
                <circle cx="618.4814" cy="2142.2486" r="6.7686" fill="#009b3a"/>
                <path d="M618.4815,2136.98a5.2686,5.2686,0,1,1-5.2685,5.2686,5.2747,5.2747,0,0,1,5.2685-5.2686m0-3a8.2686,8.2686,0,1,0,8.2686,8.2686,8.2685,8.2685,0,0,0-8.2686-8.2686Z" fill="#ff0"/>
              </g>
              <g>
                <path d="M557.0829,2144.0171a6.7688,6.7688,0,1,1,6.7686-6.7685A6.7759,6.7759,0,0,1,557.0829,2144.0171Z" fill="#009b3a"/>
                <path d="M557.0829,2131.98a5.2686,5.2686,0,1,1-5.2686,5.2685,5.2746,5.2746,0,0,1,5.2686-5.2685m0-3a8.2686,8.2686,0,1,0,8.2686,8.2685,8.2686,8.2686,0,0,0-8.2686-8.2685Z" fill="#ff0"/>
              </g>
              <g>
                <circle cx="526.749" cy="2142.0879" r="6.7686" fill="#009b3a"/>
                <path d="M526.7486,2136.8194a5.2686,5.2686,0,1,1-5.2686,5.2686,5.2746,5.2746,0,0,1,5.2686-5.2686m0-3a8.2686,8.2686,0,1,0,8.2686,8.2686,8.2686,8.2686,0,0,0-8.2686-8.2686Z" fill="#ff0"/>
              </g>
            </g>
            <g id="fine-tuners">
              <g id="fine-tuners-2" data-name="fine-tuners">
                <g id="fine-tuner">
                  <path d="M688.6654,2268.5705c0,2.2288-3.579,0-7.9939,0s-7.994,2.2288-7.994,0a7.9019,7.9019,0,0,1,7.994-8.0709C682.3328,2260.5,688.6654,2261.5363,688.6654,2268.5705Z" stroke="#000" stroke-miterlimit="10" stroke-width="0.25"/>
                  <ellipse cx="680.6715" cy="2269.2449" rx="7.9939" ry="5.7099" fill="#ff0"/>
                </g>
              </g>
              <g id="fine-tuners-3" data-name="fine-tuners">
                <g id="fine-tuner-2" data-name="fine-tuner">
                  <path d="M657.1747,2268.5705c0,2.2288-3.579,0-7.9939,0s-7.9939,2.2288-7.9939,0a7.9018,7.9018,0,0,1,7.9939-8.0709C650.8422,2260.5,657.1747,2261.5363,657.1747,2268.5705Z" stroke="#000" stroke-miterlimit="10" stroke-width="0.25"/>
                  <ellipse cx="649.1808" cy="2269.2449" rx="7.9939" ry="5.7099" fill="#ff0"/>
                </g>
              </g>
              <g id="fine-tuners-4" data-name="fine-tuners">
                <g id="fine-tuner-3" data-name="fine-tuner">
                  <path d="M626.4754,2268.5705c0,2.2288-3.579,0-7.9939,0s-7.9939,2.2288-7.9939,0a7.9018,7.9018,0,0,1,7.9939-8.0709C620.1429,2260.5,626.4755,2261.5363,626.4754,2268.5705Z" stroke="#000" stroke-miterlimit="10" stroke-width="0.25"/>
                  <ellipse cx="618.4815" cy="2269.2449" rx="7.9939" ry="5.7099" fill="#ff0"/>
                </g>
              </g>
              <g id="fine-tuners-5" data-name="fine-tuners">
                <g id="fine-tuner-4" data-name="fine-tuner">
                  <path d="M595.7762,2268.5705c0,2.2288-3.5791,0-7.994,0s-7.9939,2.2288-7.9939,0a7.9018,7.9018,0,0,1,7.9939-8.0709C589.4436,2260.5,595.7762,2261.5363,595.7762,2268.5705Z" stroke="#000" stroke-miterlimit="10" stroke-width="0.25"/>
                  <ellipse cx="587.7822" cy="2269.2449" rx="7.9939" ry="5.7099" fill="#ff0"/>
                </g>
              </g>
              <g id="fine-tuners-6" data-name="fine-tuners">
                <g id="fine-tuner-5" data-name="fine-tuner">
                  <path d="M565.1029,2268.5705c0,2.2288-3.579,0-7.9939,0s-7.994,2.2288-7.994,0a7.902,7.902,0,0,1,7.994-8.0709C558.77,2260.5,565.1029,2261.5363,565.1029,2268.5705Z" stroke="#000" stroke-miterlimit="10" stroke-width="0.25"/>
                  <ellipse cx="557.109" cy="2269.2449" rx="7.9939" ry="5.7099" fill="#ff0"/>
                </g>
              </g>
              <g id="fine-tuners-7" data-name="fine-tuners">
                <g id="fine-tuner-6" data-name="fine-tuner">
                  <path d="M534.7425,2268.5705c0,2.2288-3.579,0-7.9939,0s-7.9939,2.2288-7.9939,0a7.9018,7.9018,0,0,1,7.9939-8.0709C528.41,2260.5,534.7426,2261.5363,534.7425,2268.5705Z" stroke="#000" stroke-miterlimit="10" stroke-width="0.25"/>
                  <ellipse cx="526.7486" cy="2269.2449" rx="7.9939" ry="5.7099" fill="#ff0"/>
                </g>
              </g>
            </g>
            <g id="whammy">
              <ellipse cx="711.4025" cy="2177.1643" rx="16.3532" ry="13.3914" stroke="#000" stroke-miterlimit="10" stroke-width="0.2479"/>
              <g>
                <path d="M711.4023,2187.0557a15.8533,15.8533,0,1,1,15.8535-15.853A15.8708,15.8708,0,0,1,711.4023,2187.0557Z" fill="#009b3a" fill-rule="evenodd"/>
                <path d="M711.4025,2155.8493a15.3532,15.3532,0,1,1-15.3531,15.3532,15.3706,15.3706,0,0,1,15.3531-15.3532m0-1a16.3532,16.3532,0,1,0,16.3532,16.3532,16.3531,16.3531,0,0,0-16.3532-16.3532Z"/>
              </g>
              <g>
                <path d="M720.5549,2164.64c9.5861-48.7317,37.43-187.3333,40.22-200.6432s5.5814-22.24,0-40.6586-46.8387-168-49.3728-176.3718-18.8641-17.5813-13.9061,3.6279,44.3022,156,47.0929,174.9764,3.3488,22.1547,1.1163,38.4261-39.6279,198.1083-40.7441,203.19C706.6359,2172.2674,717.2865,2181.255,720.5549,2164.64Z" fill-rule="evenodd"/>
                <path d="M700.6448,1737.5911c-3.2537,0-5.4044,3.352-3.1484,13.0027,4.9579,21.2092,44.3022,156,47.0929,174.9763s3.3489,22.1548,1.1163,38.4263-39.6279,198.1082-40.7441,203.1895c.9509,2.886,4.7972,7.0319,8.5421,7.0319,2.8489,0,5.639-2.3993,7.0513-9.5783,9.586-48.7316,37.43-187.3333,40.22-200.6431s5.5815-22.24,0-40.6587-46.8386-168-49.3728-176.3719c-1.381-4.5627-6.86-9.3747-10.7577-9.3747Z" fill="#009b3a"/>
              </g>
            </g>
            <rect x="504.2518" y="2255.999" width="192.6061" height="1.1163"/>
          </g>
          <g id="strings">
            <g id="strings-2" data-name="strings">
              <polyline points="676.602 2167.572 650.462 297.908 657.28 238.157" fill="none" stroke="#333" stroke-miterlimit="10" stroke-width="1.5" fill-rule="evenodd"/>
              <polyline points="525.137 2177.84 551.264 343.262 551.249 297.908 538.2 237.482" fill="none" stroke="#333" stroke-miterlimit="10" stroke-width="4" fill-rule="evenodd"/>
              <polyline points="554.928 2175.142 571.106 337.593 571.092 297.908 563.017 182.994" fill="none" stroke="#333" stroke-miterlimit="10" stroke-width="3.5" fill-rule="evenodd"/>
              <polyline points="585.625 2171.096 590.934 297.908 584.396 131.854" fill="none" stroke="#333" stroke-miterlimit="10" stroke-width="3.25" fill-rule="evenodd"/>
              <polyline points="615.951 2173.503 610.777 297.908 613.68 130.459" fill="none" stroke="#333" stroke-miterlimit="10" stroke-width="2.75" fill-rule="evenodd"/>
              <polyline points="646.113 2170.398 630.62 297.908 630.052 184.431" fill="none" stroke="#333" stroke-miterlimit="10" stroke-width="2" fill-rule="evenodd"/>
            </g>
            <g id="tuning_tops" data-name="tuning tops">
              <circle cx="537.3535" cy="238.9885" r="6.0515" fill="#fed100"/>
            </g>
            <g id="tuning_tops-2" data-name="tuning tops">
              <circle cx="660.8574" cy="239.9734" r="6.0515" fill="#fed100"/>
            </g>
            <g id="tuning_tops-3" data-name="tuning tops">
              <circle cx="633.0321" cy="186.8658" r="6.0515" fill="#fed100"/>
            </g>
            <g id="tuning_tops-4" data-name="tuning tops">
              <circle cx="560.3101" cy="185.4074" r="6.0515" fill="#fed100"/>
            </g>
            <g id="tuning_tops-5" data-name="tuning tops">
              <circle cx="580.9817" cy="131.8541" r="6.0515" fill="#fed100"/>
            </g>
            <g id="tuning_tops-6" data-name="tuning tops">
              <circle cx="615.9687" cy="132.839" r="6.0515" fill="#fed100"/>
            </g>
            <g id="string_locks" data-name="string locks">
              <g>
                <rect x="544.7394" y="303.5772" width="34.0157" height="34.0157"/>
                <polygon points="546.203 326.791 546.203 314.379 554.979 305.603 567.391 305.603 576.167 314.379 576.167 326.791 567.391 335.567 554.979 335.567 546.203 326.791" fill="#009b3a" fill-rule="evenodd"/>
                <polygon points="550.985 324.818 550.985 316.38 556.952 310.413 565.39 310.413 571.357 316.38 571.357 324.818 565.39 330.785 556.952 330.785 550.985 324.818" fill="#036825" fill-rule="evenodd"/>
                <polygon points="590.684 324.818 590.684 316.38 596.651 310.413 605.089 310.413 611.056 316.38 611.056 324.818 605.089 330.785 596.651 330.785 590.684 324.818" fill="#036825" fill-rule="evenodd"/>
              </g>
              <g>
                <rect x="583.8479" y="303.5772" width="34.0157" height="34.0157"/>
                <polygon points="601.785 304.438 612.766 310.222 616.441 322.077 610.657 333.058 598.802 336.732 587.821 330.948 584.146 319.093 589.93 308.112 601.785 304.438" fill="#009b3a" fill-rule="evenodd"/>
                <polygon points="601.302 309.587 608.767 313.52 611.266 321.58 607.333 329.046 599.273 331.544 591.807 327.612 589.309 319.552 593.242 312.086 601.302 309.587" fill="#036825" fill-rule="evenodd"/>
              </g>
              <g>
                <rect x="623.5329" y="303.5772" width="34.0157" height="34.0157"/>
                <polygon points="643.966 337.015 631.757 334.784 624.702 324.573 626.933 312.364 637.144 305.308 649.353 307.54 656.408 317.751 654.177 329.96 643.966 337.015" fill="#009b3a" fill-rule="evenodd"/>
                <polygon points="642.874 331.94 634.573 330.423 629.776 323.481 631.294 315.18 638.236 310.383 646.537 311.9 651.334 318.842 649.816 327.143 642.874 331.94" fill="#036825" fill-rule="evenodd"/>
              </g>
            </g>
          </g>
          <g id="slider">
            <rect x="781.2296" y="1966.8739" width="45.7671" height="142.575"/>
            <rect x="787.5136" y="1970.6081" width="33.1992" height="135.1066" fill="url(#radial-gradient)"/>
          </g>
        </g>
      </g>
    </g>
    <path id="black" d="M751.09,1723.143s-30.9914-88.3615-43.1813-127.9892c-26.1433-7.2559-28.6278-33.7315-28.6278-33.7315H677.793l-17.3949-1218.16h-.0006v-5.67h-.0143v-39.685l-2.5984-9.354-.1334-13.3282,38.4471,9.4192-16.3831-49.2566,3.6388-1.7258,3.7963,10.273a2.8486,2.8486,0,0,0,3.659,1.6843l11.7693-4.3494a9.2742,9.2742,0,0,0,5.4843-11.915l-6.9316-18.7576a9.2756,9.2756,0,0,0-11.9154-5.4846l-11.7688,4.35a2.8473,2.8473,0,0,0-1.6842,3.6589l4.5881,12.4156-3.3794,1.6028-14.5249-43.67,5.8673-2.2729,3.6018,9.2981a2.8479,2.8479,0,0,0,3.6847,1.6269l11.7-4.5322c4.7765-1.85,7.1487-7.2219,5.298-10.9988l-7.2229-18.6474c-1.8505-5.7762-7.2228-8.1485-11.9994-6.2984l-11.7,4.5325a2.8471,2.8471,0,0,0-1.6269,3.6846l5.1142,13.2026-5.4729,2.12-15.5747-46.8257,4.7217-1.342,4.1755,11.45a2.8485,2.8485,0,0,0,3.6516,1.7l11.788-4.2988a9.2741,9.2741,0,0,0,5.5355-11.8911L667.1381,105.19a9.2759,9.2759,0,0,0-11.8917-5.5359l-11.7875,4.2991a2.8474,2.8474,0,0,0-1.7,3.6516l4.6292,12.6936-4.5249,1.2861-26.919-80.9328c-5.2911-13.8338-24.8859-13.7674-30.0825.1025l-28.7394,76.7046-6.56-2.7966,5.2-12.198a2.8471,2.8471,0,0,0-1.503-3.7368l-11.5419-4.9205a9.2757,9.2757,0,0,0-12.17,4.8948l-7.8413,18.396a9.2742,9.2742,0,0,0,4.8946,12.169l11.5423,4.92a2.848,2.848,0,0,0,3.7369-1.5031l4.4124-10.3506,6.9018,2.9421L535.4187,172.716l-5.7773-2.74,5.6826-11.9807a2.8476,2.8476,0,0,0-1.3528-3.794l-11.3362-5.3769A9.2756,9.2756,0,0,0,510.28,153.229L501.71,171.2976a9.2743,9.2743,0,0,0,4.405,12.3547l11.3367,5.377a2.8483,2.8483,0,0,0,3.7939-1.3528l5.5964-11.7991,6.2765,2.9771L515.8629,224.91l-7.1582-3.3952,5.6626-11.9388a2.8473,2.8473,0,0,0-1.3527-3.7939l-11.3363-5.3772a9.2757,9.2757,0,0,0-12.3552,4.405l-8.5694,18.0684a9.2746,9.2746,0,0,0,4.405,12.355l11.3366,5.3769a2.8482,2.8482,0,0,0,3.794-1.3528l4.8418-10.2082,7.7956,3.6975L495.1688,280.142l42.7853-6.0944-3.895,578.5417-.4023,28.1314h0l-.0215,1.5024h0l-1.021,71.3962h0l-.0214,1.5022h0l-.9626,67.3059h0l-.0215,1.5025h0l-.9073,63.4421h0l-.0215,1.5025h0l-.8552,59.7968h0l-.0215,1.5025h0l-.806,56.3584h0l-.0215,1.5022h0l-.76,53.11h0l-.0216,1.5022h0l-.7157,50.0456h0l-.0215,1.5025h0l-.6743,47.1514h0l-.0215,1.5024h0l-.6352,44.4219h0l-.0215,1.5022h0l-.5984,41.8422h0l-.0215,1.5022h0l-.5636,39.41h0L524.9,1493.03h0l-.5308,37.1141h0l-.0214,1.5022h0l-.4259,29.7763H522.87s-4.2594,14.7547-26.5849,26.4756c-40.186,111.6277-45.6676,135.2451-45.6676,135.2451L57.4392,2891.3386s209.4222-312.4707,393.1783-410.46c0,0,153.9464-92.0522,196.3649-111.0289,35.1628,3.907,104.1075,41.2424,104.1075,41.2424l325.3292,189.4715ZM547.1491,272.7378l-.69,2.9855-.6049-2.801Z" fill-rule="evenodd"/>
  </g>
</svg>
