<svg xmlns="http://www.w3.org/2000/svg" xmlns:xlink="http://www.w3.org/1999/xlink" viewBox="0 0 1133.858 2891.339"><title>final blackcool runnings</title><g class="nc-icon-wrapper"><defs><linearGradient id="linear-gradient" x1="542.62" y1="2280.642" x2="508.071" y2="2220.8" gradientUnits="userSpaceOnUse"><stop offset=".002" stop-color="#96bf00"/><stop offset=".075" stop-color="#95bd01"/><stop offset=".091" stop-color="#92ba02"/><stop offset=".101" stop-color="#90b803"/><stop offset=".105" stop-color="#8bb105"/><stop offset=".108" stop-color="#81a509"/><stop offset=".111" stop-color="#73930f"/><stop offset=".113" stop-color="#617d17"/><stop offset=".115" stop-color="#4b6120"/><stop offset=".116" stop-color="#31402c"/><stop offset=".118" stop-color="#131a38"/><stop offset=".118" stop-color="#010440"/><stop offset=".12" stop-color="#0f163a"/><stop offset=".125" stop-color="#31402c"/><stop offset=".13" stop-color="#4c6320"/><stop offset=".135" stop-color="#627e17"/><stop offset=".14" stop-color="#719110"/><stop offset=".145" stop-color="#7a9c0c"/><stop offset=".151" stop-color="#7da00b"/><stop offset=".156" stop-color="#7da00b"/><stop offset=".235" stop-color="#7da00b"/><stop offset=".236" stop-color="#648109"/><stop offset=".237" stop-color="#465906"/><stop offset=".239" stop-color="#2d3904"/><stop offset=".241" stop-color="#192002"/><stop offset=".243" stop-color="#0b0e01"/><stop offset=".244" stop-color="#030300"/><stop offset=".247"/><stop offset=".249" stop-color="#181f00"/><stop offset=".255" stop-color="#3e4f00"/><stop offset=".26" stop-color="#5e7700"/><stop offset=".265" stop-color="#769700"/><stop offset=".269" stop-color="#88ad00"/><stop offset=".274" stop-color="#92ba00"/><stop offset=".278" stop-color="#96bf00"/><stop offset=".33" stop-color="#96bf00"/><stop offset=".339" stop-color="#96bf00"/><stop offset=".355" stop-color="#95bd00"/><stop offset=".361" stop-color="#8fb600"/><stop offset=".365" stop-color="#86ab00"/><stop offset=".368" stop-color="#799a00"/><stop offset=".371" stop-color="#678400"/><stop offset=".374" stop-color="#526800"/><stop offset=".376" stop-color="#394800"/><stop offset=".378" stop-color="#1c2400"/><stop offset=".38"/><stop offset=".381" stop-color="#1c2400"/><stop offset=".383" stop-color="#394800"/><stop offset=".385" stop-color="#526800"/><stop offset=".387" stop-color="#678400"/><stop offset=".39" stop-color="#799a00"/><stop offset=".393" stop-color="#86ab00"/><stop offset=".397" stop-color="#8fb600"/><stop offset=".402" stop-color="#95bd00"/><stop offset=".416" stop-color="#96bf00"/><stop offset=".449" stop-color="#96bf00"/><stop offset=".455" stop-color="#96bf00"/><stop offset=".466" stop-color="#95bd00"/><stop offset=".47" stop-color="#8fb600"/><stop offset=".473" stop-color="#86ab00"/><stop offset=".476" stop-color="#799a00"/><stop offset=".478" stop-color="#678400"/><stop offset=".48" stop-color="#526800"/><stop offset=".481" stop-color="#394800"/><stop offset=".483" stop-color="#1c2400"/><stop offset=".484"/><stop offset=".485" stop-color="#1c2400"/><stop offset=".487" stop-color="#394800"/><stop offset=".489" stop-color="#526800"/><stop offset=".491" stop-color="#678400"/><stop offset=".494" stop-color="#799a00"/><stop offset=".497" stop-color="#86ab00"/><stop offset=".5" stop-color="#8fb600"/><stop offset=".505" stop-color="#95bd00"/><stop offset=".519" stop-color="#96bf00"/><stop offset=".581" stop-color="#96bf00"/><stop offset=".592" stop-color="#96bf00"/><stop offset=".608" stop-color="#95bd00"/><stop offset=".614" stop-color="#8fb600"/><stop offset=".618" stop-color="#86ab00"/><stop offset=".621" stop-color="#799a00"/><stop offset=".624" stop-color="#678400"/><stop offset=".626" stop-color="#526800"/><stop offset=".629" stop-color="#394800"/><stop offset=".631" stop-color="#1c2400"/><stop offset=".632"/><stop offset=".634" stop-color="#1c2400"/><stop offset=".637" stop-color="#394800"/><stop offset=".64" stop-color="#526800"/><stop offset=".643" stop-color="#678400"/><stop offset=".646" stop-color="#799a00"/><stop offset=".65" stop-color="#86ab00"/><stop offset=".655" stop-color="#8fb600"/><stop offset=".662" stop-color="#95bd00"/><stop offset=".681" stop-color="#96bf00"/><stop offset=".754" stop-color="#96bf00"/><stop offset=".766" stop-color="#96bf00"/><stop offset=".779" stop-color="#95bd00"/><stop offset=".784" stop-color="#8fb600"/><stop offset=".788" stop-color="#86ab00"/><stop offset=".79" stop-color="#799a00"/><stop offset=".793" stop-color="#678400"/><stop offset=".795" stop-color="#526800"/><stop offset=".797" stop-color="#394800"/><stop offset=".798" stop-color="#1c2400"/><stop offset=".8"/><stop offset=".802" stop-color="#1c2400"/><stop offset=".806" stop-color="#394800"/><stop offset=".809" stop-color="#526800"/><stop offset=".813" stop-color="#678400"/><stop offset=".818" stop-color="#799a00"/><stop offset=".823" stop-color="#86ab00"/><stop offset=".83" stop-color="#8fb600"/><stop offset=".839" stop-color="#95bd00"/><stop offset=".865" stop-color="#96bf00"/><stop offset=".879" stop-color="#95bd00"/><stop offset=".884" stop-color="#8fb600"/><stop offset=".888" stop-color="#86ab00"/><stop offset=".891" stop-color="#799a00"/><stop offset=".894" stop-color="#678400"/><stop offset=".896" stop-color="#526800"/><stop offset=".898" stop-color="#394800"/><stop offset=".9" stop-color="#1c2400"/><stop offset=".902"/><stop offset=".903" stop-color="#1c2400"/><stop offset=".906" stop-color="#394800"/><stop offset=".908" stop-color="#526800"/><stop offset=".911" stop-color="#678400"/><stop offset=".914" stop-color="#799a00"/><stop offset=".918" stop-color="#86ab00"/><stop offset=".923" stop-color="#8fb600"/><stop offset=".929" stop-color="#95bd00"/><stop offset=".948" stop-color="#96bf00"/><stop offset=".993" stop-color="#96bf00"/><stop offset="1" stop-color="#96bf00"/></linearGradient><linearGradient id="linear-gradient-2" x1="574.782" y1="2277.412" x2="539.436" y2="2216.191" xlink:href="#linear-gradient"/><linearGradient id="linear-gradient-3" x1="604.877" y1="2275.037" x2="568.232" y2="2211.566" xlink:href="#linear-gradient"/><linearGradient id="linear-gradient-4" x1="635.592" y1="2280.642" x2="601.043" y2="2220.8" xlink:href="#linear-gradient"/><linearGradient id="linear-gradient-5" x1="666.06" y1="2276.287" x2="630.281" y2="2214.316" xlink:href="#linear-gradient"/><linearGradient id="linear-gradient-6" x1="697.824" y1="2271.287" x2="662.044" y2="2209.316" xlink:href="#linear-gradient"/><linearGradient id="linear-gradient-7" x1="600.631" y1="2257.221" x2="600.631" y2="2246.801" gradientUnits="userSpaceOnUse"><stop offset=".002" stop-color="#111"/><stop offset="1" stop-color="#1e1e1e"/></linearGradient><radialGradient id="radial-gradient" cx="804.113" cy="1311.898" r="58.311" gradientTransform="matrix(1 0 0 .8363 0 941.013)" gradientUnits="userSpaceOnUse"><stop offset=".038" stop-color="#fcee21"/><stop offset=".176" stop-color="#545454"/><stop offset=".26" stop-color="#1b1b1b"/><stop offset=".983" stop-color="#3e3e3e"/></radialGradient></defs><g id="cool-runnings"><g id="cool-runnings-2" data-name="cool-runnings"><path d="M522.87 1561.422h156.41s2.485 26.476 28.629 33.732c12.19 39.627 43.18 127.99 43.18 127.99v687.948s-68.944-37.335-104.107-41.242c-42.418 18.977-196.365 111.029-196.365 111.029v-757.736s5.482-23.617 45.668-135.245c22.326-11.721 26.585-26.476 26.585-26.476z"/><path id="plate" fill="#fed100" d="M450.618 1723.143H751.09v354.284H450.618z"/><g id="bridge_hole" data-name="bridge hole"><path transform="rotate(90 600.856 2272.441)" fill="#003" d="M556.919 2173.229h87.874v198.424h-87.874z"/><path fill="#003" d="M469.21 2109.449h269.291v119.055H469.21z"/><path id="Rectangle_11" data-name="Rectangle 11" d="M469.21 2109.449h269.291v48.189H469.21z"/><path id="hole" d="M512.358 2157.638h212.598v70.866H512.358z"/></g><g id="neck"><path fill-rule="evenodd" id="neck-2" data-name="neck" d="M660.398 343.262H541.343l-19.857 1388.524h158.74L660.398 343.262z"/><g id="fret_holes" data-name="fret holes"><path fill="#fff" fill-rule="evenodd" d="M679.97 1713.896H521.741l.022-1.502h158.186l.021 1.502z"/><path fill="#fff" fill-rule="evenodd" d="M679.702 1695.096H522.01l.022-1.502H679.68l.022 1.502z"/><path fill="#fff" fill-rule="evenodd" d="M679.281 1665.623H522.432l.021-1.503h156.806l.022 1.503z"/><path fill="#fff" fill-rule="evenodd" d="M678.843 1634.972H522.87l.022-1.503h155.93l.021 1.503z"/><path fill="#fff" fill-rule="evenodd" d="M678.379 1602.501H523.334l.022-1.502h155.002l.021 1.502z"/><path fill="#fff" fill-rule="evenodd" d="M677.888 1568.097H523.826l.022-1.503h154.019l.021 1.503z"/><path fill="#fff" fill-rule="evenodd" d="M677.368 1531.646h-153.02l.021-1.502h152.977l.022 1.502z"/><path fill="#fff" fill-rule="evenodd" d="M676.816 1493.03H524.9l.021-1.503h151.874l.021 1.503z"/><path fill="#fff" fill-rule="evenodd" d="M676.232 1452.117H525.485l.022-1.502h150.704l.021 1.502z"/><path fill="#fff" fill-rule="evenodd" d="M675.613 1408.773H526.105l.021-1.503h149.466l.021 1.503z"/><path fill="#fff" fill-rule="evenodd" d="M674.957 1362.849H526.762l.021-1.503h148.153l.021 1.503z"/><path fill="#fff" fill-rule="evenodd" d="M674.263 1314.195H527.457l.022-1.503h146.762l.022 1.503z"/><path fill="#fff" fill-rule="evenodd" d="M673.526 1262.647H528.195l.021-1.503h145.289l.021 1.503z"/><path fill="#fff" fill-rule="evenodd" d="M672.747 1208.034H528.976l.021-1.502h143.728l.022 1.502z"/><path fill="#fff" fill-rule="evenodd" d="M671.92 1150.174H529.803l.022-1.503h142.074l.021 1.503z"/><path fill="#fff" fill-rule="evenodd" d="M671.045 1088.874H530.68l.021-1.502h140.323l.021 1.502z"/><path fill="#fff" fill-rule="evenodd" d="M670.118 1023.93H531.609l.021-1.502h138.466l.022 1.502z"/><path fill="#fff" fill-rule="evenodd" d="M669.135 955.122H532.593l.021-1.503h136.5l.021 1.503z"/><path fill="#fff" fill-rule="evenodd" d="M668.094 882.223H533.635l.022-1.502h134.416l.021 1.502z"/><path fill="#fff" fill-rule="evenodd" d="M666.991 804.99H534.74l.021-1.502H666.97l.021 1.502z"/><path fill="#fff" fill-rule="evenodd" d="M665.823 723.163H535.91l.021-1.503h129.87l.022 1.503z"/><path fill="#fff" fill-rule="evenodd" d="M664.585 636.471H537.15l.021-1.503h127.392l.022 1.503z"/><path fill="#fff" fill-rule="evenodd" d="M663.273 544.625h-124.81l.022-1.502h124.767l.021 1.502z"/><path fill="#fff" fill-rule="evenodd" d="M661.892 447.858H539.847l.022-1.503H661.87l.022 1.503z"/></g><g id="necklocks"><path fill="#fed100" id="Shape_4" data-name="Shape 4" d="M541.328 297.908h119.055v45.355H541.328z"/><g id="teeth_1" data-name="teeth 1"><path d="M650.476 337.593h9.921v5.669h-9.921z"/><path d="M630.634 337.593h19.843v5.669h-19.843z"/><path d="M590.949 337.593h19.843v5.669h-19.843z"/><path d="M610.791 337.593h19.843v5.669h-19.843z"/><path d="M571.106 337.593h19.843v5.669h-19.843z"/><path d="M551.264 337.593h19.843v5.669h-19.843z"/><path d="M541.314 337.593h9.921v5.669h-9.921z"/></g><g id="teeth_1-2" data-name="teeth 1"><path d="M650.462 297.908h9.921v5.669h-9.921z"/><path d="M630.62 297.908h19.843v5.669H630.62z"/><path d="M590.934 297.908h19.843v5.669h-19.843z"/><path d="M610.777 297.908h19.843v5.669h-19.843z"/><path d="M571.092 297.908h19.843v5.669h-19.843z"/><path d="M551.249 297.908h19.843v5.669h-19.843z"/><path d="M541.328 297.908h9.921v5.669h-9.921z"/></g></g><g id="headstock"><path d="M558.307 284.408l1.995-8.628a13.498 13.498 0 0 0-15.057-16.407l-29.45 4.195L597.503 45.49a2.366 2.366 0 0 1 2.422-1.677 2.302 2.302 0 0 1 2.328 1.454l73.323 220.45-18.542-4.542a13.5 13.5 0 0 0-16.22 16.725l1.808 6.507z" fill="#009b3a" fill-rule="evenodd"/><path d="M599.301 79.17l55.93 168.154q-.705-.037-1.408-.037a27.001 27.001 0 0 0-26.789 23.621h-52.947a27 27 0 0 0-30.745-24.9l-6.92.986 62.88-167.824m.622-48.856a15.832 15.832 0 0 0-15.062 10.44l-89.693 239.388 51.98-7.404-5.821 25.17h119.055l-6.561-23.62 42.276 10.357-81.154-243.993a15.823 15.823 0 0 0-15.02-10.338z"/><path fill="#036825" fill-rule="evenodd" id="nuts" d="M535.528 251.782l-7.805-4.746-2.163-8.873 4.745-7.805 8.874-2.163 7.804 4.745 2.164 8.874-4.746 7.804-8.873 2.164z"/><path fill="#036825" fill-rule="evenodd" id="nuts-2" data-name="nuts" d="M662.683 251.782l7.804-4.746 2.164-8.873-4.746-7.805-8.873-2.163-7.805 4.745-2.163 8.874 4.745 7.804 8.874 2.164z"/><path fill="#036825" fill-rule="evenodd" id="nuts-3" data-name="nuts" d="M633.988 198.776l8.131-4.161 2.807-8.691-4.161-8.131-8.691-2.807-8.131 4.16-2.807 8.692 4.161 8.131 8.691 2.807z"/><path fill="#036825" fill-rule="evenodd" id="nuts-4" data-name="nuts" d="M558.484 198.201l-7.804-4.746-2.163-8.873 4.745-7.805 8.874-2.163 7.804 4.745 2.163 8.874-4.745 7.804-8.874 2.164z"/><path fill="#036825" fill-rule="evenodd" id="nuts-5" data-name="nuts" d="M579.628 144.711l-7.987-4.43-2.516-8.781 4.43-7.987 8.78-2.516 7.988 4.43 2.515 8.781-4.429 7.987-8.781 2.516z"/><path fill="#036825" fill-rule="evenodd" id="nuts-6" data-name="nuts" d="M617.322 144.711l7.988-4.43 2.515-8.781-4.43-7.987-8.78-2.516-7.987 4.43-2.516 8.781 4.43 7.987 8.78 2.516z"/><g><g id="tuner"><path d="M485.159 235.233l11.336 5.377a2.848 2.848 0 0 0 3.794-1.352l14.078-29.682a2.848 2.848 0 0 0-1.352-3.794l-11.337-5.377a9.276 9.276 0 0 0-12.355 4.405l-8.57 18.069a9.274 9.274 0 0 0 4.406 12.354z"/><path transform="rotate(-154.624 517.098 230.11)" d="M500.446 225.941h33.305v8.339h-33.305z"/></g><g id="tuner-2" data-name="tuner"><path d="M506.115 183.652l11.337 5.377a2.848 2.848 0 0 0 3.794-1.352l14.078-29.682a2.847 2.847 0 0 0-1.353-3.794l-11.336-5.377a9.276 9.276 0 0 0-12.355 4.405l-8.57 18.069a9.274 9.274 0 0 0 4.405 12.354z"/><path d="M523.222 174.16l30.092 14.273 3.573-5.534-30.091-14.273-3.574 5.534z"/></g><g id="tuner-3" data-name="tuner"><path d="M526.6 129.267l11.542 4.92a2.848 2.848 0 0 0 3.737-1.504l12.882-30.22a2.848 2.848 0 0 0-1.503-3.736l-11.542-4.92a9.276 9.276 0 0 0-12.17 4.895l-7.841 18.396a9.274 9.274 0 0 0 4.895 12.169z"/><path transform="rotate(-156.912 560.348 123.793)" d="M543.696 119.623h33.305v8.339h-33.305z"/></g><g id="tuner-4" data-name="tuner"><path d="M687.3 187.59l-11.7 4.532a2.848 2.848 0 0 1-3.684-1.627l-11.866-30.633a2.848 2.848 0 0 1 1.627-3.684l11.7-4.533c4.777-1.85 10.15.522 12 6.299l7.222 18.647c1.851 3.777-.522 9.149-5.298 10.999z"/><path d="M672.989 179.386l-31.056 12.031-6.077-6.999 31.056-12.03 6.077 6.998z"/></g><g id="tuner-5" data-name="tuner"><path d="M702.579 241.27l-11.769 4.35a2.848 2.848 0 0 1-3.659-1.684l-11.387-30.814a2.848 2.848 0 0 1 1.684-3.659l11.769-4.35a9.276 9.276 0 0 1 11.915 5.485l6.932 18.757a9.274 9.274 0 0 1-5.485 11.915z"/><path d="M697.945 226.742l-30.091 14.272-10.574-4.534 30.091-14.273 10.574 4.535z"/></g><g id="tuner-6" data-name="tuner"><path d="M668.453 135.868l-11.787 4.3a2.848 2.848 0 0 1-3.652-1.7l-11.255-30.863a2.847 2.847 0 0 1 1.7-3.652l11.788-4.299a9.276 9.276 0 0 1 11.891 5.536l6.851 18.787a9.274 9.274 0 0 1-5.536 11.891z"/><path d="M663.093 122.965l-32.035 9.106-13.947-3.451 32.035-9.106 13.947 3.451z"/></g></g></g></g><g id="right_side" data-name="right side"><path fill="#009b3a" d="M764.59 2403.332v-604.947l286.078 771.558-286.078-166.611z"/><path d="M778.09 1873.627l246.826 665.696-246.826-143.751v-521.946m-27-150.483v687.95l325.33 189.47-325.33-877.42z"/></g><g id="left_side" data-name="left side"><g id="body"><path d="M437.117 1805.575v667.301c-41.103 23.037-86.392 57.878-134.74 103.675-40.615 38.472-83.555 84.787-127.627 137.66-29.18 35.006-55.046 68.354-75.786 96.073z" fill="#009b3a"/><path d="M423.618 1888.008v577.045c-40.216 23.529-84.046 57.672-130.524 101.697-40.999 38.835-84.304 85.54-128.714 138.817a2257.271 2257.271 0 0 0-27.075 33.122l286.313-850.681m27-164.865L57.439 2891.338s209.423-312.47 393.179-410.46v-757.735z"/></g><g id="arms"><path id="plate-2" data-name="plate" fill="#fed100" d="M450.618 1731.786h277.799v337.137H450.618z"/><g id="pickups"><path d="M473.298 1731.786h255.118v127.559H473.298z"/><path d="M473.297 1941.364h255.118v127.559H473.297z"/><path fill="#009b3a" d="M501.643 1948.45h198.425v113.386H501.643z"/><path fill="#009b3a" d="M501.645 1740.873H700.07v113.386H501.645z"/></g></g></g><g id="add-ons"><g id="MIDI_knobs" data-name="MIDI knobs"><g id="iddi_knob" data-name="iddi knob"><path d="M400.27 2432.93h-4.832a10.803 10.803 0 0 1-7.64 3.165l-3.417 3.418a10.803 10.803 0 0 1-3.164 7.639v4.833a10.803 10.803 0 0 1 3.164 7.639l3.418 3.418a10.803 10.803 0 0 1 7.639 3.164s.37-.465 2.416-.465 2.417.465 2.417.465a10.803 10.803 0 0 1 7.639-3.164l3.417-3.418a10.803 10.803 0 0 1 3.165-7.639v-4.833a10.803 10.803 0 0 1-3.164-7.64l-3.418-3.417a10.803 10.803 0 0 1-7.64-3.164z" fill="#fed100" fill-rule="evenodd"/><path d="M400.27 2466.206v-14.326h-4.93l.098 14.326a6.521 6.521 0 0 1 4.833 0z" fill-rule="evenodd"/></g></g><g id="MIDI_knobs-2" data-name="MIDI knobs"><g id="iddi_knob-2" data-name="iddi knob"><path d="M407.91 2415.446l3.418-3.418a10.803 10.803 0 0 1 3.164-7.639v-4.833a10.803 10.803 0 0 1-3.164-7.64l-3.418-3.417a10.803 10.803 0 0 1-7.639-3.164h-4.833a10.803 10.803 0 0 1-7.64 3.164s.066.591-1.38 2.037-2.037 1.38-2.037 1.38a10.803 10.803 0 0 1-3.164 7.64v4.833a10.803 10.803 0 0 1 3.164 7.639l3.418 3.418a10.803 10.803 0 0 1 7.639 3.164h4.833a10.803 10.803 0 0 1 7.639-3.164z" fill="#fed100" fill-rule="evenodd"/><path d="M384.38 2391.917l10.13 10.13 3.487-3.486-10.198-10.062a6.522 6.522 0 0 1-3.418 3.418z" fill-rule="evenodd"/></g></g><g id="arcade_live_button" data-name="arcade live button"><circle cx="397.854" cy="2350.395" r="16.515"/><path fill="#484849" fill-rule="evenodd" d="M406.516 2341.303l-8.967-3.462-8.788 3.893-3.461 8.966 3.893 8.788 8.966 3.462 8.788-3.893 3.461-8.966-3.892-8.788z"/><circle cx="397.854" cy="2350.395" r="10.219" fill="#fed100"/></g><g id="arcade_live_button-2" data-name="arcade live button"><circle cx="397.854" cy="2303.976" r="16.515"/><path fill="#484849" fill-rule="evenodd" d="M406.934 2294.604l-8.966-3.461-8.788 3.893-3.461 8.966 3.892 8.788 8.967 3.461 8.787-3.892 3.462-8.967-3.893-8.788z"/><circle cx="398.273" cy="2303.697" r="9.804"/><circle id="yellowButton" cx="397.854" cy="2303.976" r="10.219" fill="#fed100"/></g><g id="Fuzz_Pedal" data-name="Fuzz Pedal"><g id="fuzz_knobs" data-name="fuzz knobs"><g id="fuzz_knob" data-name="fuzz knob"><circle cx="804.113" cy="2373.779" r="22.678" fill="#191919"/><path d="M794.293 2390.787a19.64 19.64 0 0 1 16.145-1.585c3.495 1.585 3.495 1.585 4.175-3.54a19.64 19.64 0 0 1 9.14-11.883 19.64 19.64 0 0 1-9.82-17.008 19.64 19.64 0 0 1-19.64 0 19.64 19.64 0 0 1-9.82 17.008 19.64 19.64 0 0 1 9.82 17.008z" fill="#191919" stroke="#000" stroke-miterlimit="10" stroke-width=".5"/><path d="M805.916 2376.904l7.237 12.546" fill="none" stroke="#fff" stroke-linecap="round" stroke-miterlimit="10" stroke-width="1.825"/><path fill="none" stroke="#fff" stroke-miterlimit="10" stroke-width="1" d="M813.949 2390.76l1.588 2.612"/></g></g><g id="fuzz_knobs-2" data-name="fuzz knobs"><g id="fuzz_knob-2" data-name="fuzz knob"><circle cx="804.113" cy="2319.92" r="22.678" fill="#191919"/><path d="M804.113 2300.28a19.64 19.64 0 0 1-13.189 9.446c-3.819.374-3.819.374-1.846 5.152a19.64 19.64 0 0 1-1.973 14.862 19.64 19.64 0 0 1 17.008 9.82 19.64 19.64 0 0 1 17.008-9.82 19.64 19.64 0 0 1 0-19.64 19.64 19.64 0 0 1-17.008-9.82z" fill="#191919" stroke="#000" stroke-miterlimit="10" stroke-width=".5"/><path d="M800.99 2318.115l-12.54-7.247" fill="none" stroke="#fff" stroke-linecap="round" stroke-miterlimit="10" stroke-width="1.825"/><path fill="none" stroke="#fff" stroke-miterlimit="10" stroke-width="1" d="M787.105 2310.132l-2.682-1.469"/></g></g><g id="fuzz_knobs-3" data-name="fuzz knobs"><g id="fuzz_knob-3" data-name="fuzz knob"><circle cx="804.113" cy="2263.227" r="22.678" fill="#191919"/><path d="M787.105 2253.407a19.64 19.64 0 0 1 1.585 16.145c-1.585 3.495-1.585 3.495 3.54 4.174a19.64 19.64 0 0 1 11.883 9.14 19.64 19.64 0 0 1 17.008-9.82 19.64 19.64 0 0 1 0-19.639 19.64 19.64 0 0 1-17.008-9.82 19.64 19.64 0 0 1-17.008 9.82z" fill="#191919" stroke="#000" stroke-miterlimit="10" stroke-width=".5"/><path d="M800.988 2265.03l-12.546 7.237" fill="none" stroke="#fff" stroke-linecap="round" stroke-miterlimit="10" stroke-width="1.825"/><path fill="none" stroke="#fff" stroke-miterlimit="10" stroke-width="1" d="M787.133 2273.063l-2.613 1.588"/></g></g><g id="fuzz_knobs-4" data-name="fuzz knobs"><g id="fuzz_knob-4" data-name="fuzz knob"><circle cx="804.113" cy="2209.369" r="22.678" fill="#191919"/><path d="M804.113 2189.73a19.64 19.64 0 0 1-13.189 9.445c-3.819.374-3.819.374-1.846 5.152a19.64 19.64 0 0 1-1.973 14.861 19.64 19.64 0 0 1 17.008 9.82 19.64 19.64 0 0 1 17.008-9.82 19.64 19.64 0 0 1 0-19.639 19.64 19.64 0 0 1-17.008-9.82z" fill="#191919" stroke="#000" stroke-miterlimit="10" stroke-width=".5"/><path d="M800.99 2207.564l-12.54-7.247" fill="none" stroke="#fff" stroke-linecap="round" stroke-miterlimit="10" stroke-width="1.825"/><path fill="none" stroke="#fff" stroke-miterlimit="10" stroke-width="1" d="M787.105 2199.581l-2.682-1.469"/></g></g><g id="fuzz_knobs-5" data-name="fuzz knobs"><g id="fuzz_knob-5" data-name="fuzz knob"><circle cx="804.113" cy="2155.51" r="22.677" fill="#191919"/><path d="M823.752 2155.51a19.64 19.64 0 0 1-9.445-13.188c-.374-3.82-.374-3.82-5.152-1.846a19.64 19.64 0 0 1-14.861-1.973 19.639 19.639 0 0 1-9.82 17.007 19.64 19.64 0 0 1 9.82 17.008 19.639 19.639 0 0 1 19.639 0 19.64 19.64 0 0 1 9.82-17.008z" fill="#191919" stroke="#000" stroke-miterlimit="10" stroke-width=".5"/><path d="M805.918 2152.387l7.247-12.54" fill="none" stroke="#fff" stroke-linecap="round" stroke-miterlimit="10" stroke-width="1.825"/><path fill="none" stroke="#fff" stroke-miterlimit="10" stroke-width="1" d="M813.901 2138.503l1.469-2.682"/></g></g><g id="fuzz_on_off" data-name="fuzz on/off"><path d="M867.91 2233.798h-4.833a10.803 10.803 0 0 1-7.64 3.164l-3.417 3.418a10.803 10.803 0 0 1-3.164 7.639v4.833a10.803 10.803 0 0 1 3.164 7.64l3.418 3.417a10.803 10.803 0 0 1 7.639 3.164h4.833a10.803 10.803 0 0 1 7.639-3.164l3.418-3.418a10.803 10.803 0 0 1 3.164-7.639v-4.833a10.803 10.803 0 0 1-3.164-7.639l-3.418-3.418a10.803 10.803 0 0 1-7.639-3.164z" fill="#191919" fill-rule="evenodd"/><path id="nick" d="M861.514 2256.028l-2.022 9.748a.47.47 0 0 0 .364.555l2.834.588a.427.427 0 0 0 .505-.33l2.031-9.79z" fill="#fff" fill-rule="evenodd"/></g><g id="toggle-_kill" data-name="toggle- kill"><circle cx="863.851" cy="2208.169" r="12.731" fill="#191919"/><path fill="#03196b" fill-rule="evenodd" d="M860.181 2217.204l-5.292-5.292v-7.485l5.292-5.292h7.484l5.292 5.292v7.485l-5.292 5.292h-7.484z"/><path d="M867.458 2199.635l4.999 5v7.07l-5 4.999h-7.07l-4.999-5v-7.07l5-4.999h7.07m.414-1h-7.899l-.293.293-4.999 5-.293.292v7.899l.293.293 5 5 .292.292h7.899l.293-.293 5-5 .292-.292v-7.899l-.293-.293-5-5-.292-.292z"/><ellipse cx="863.851" cy="2208.169" rx="6.928" ry="7.19"/><ellipse cx="863.851" cy="2208.169" rx="5.001" ry="5.19" fill="#333"/><path d="M852.11 2221.044l4.928-11.827.18-.445c.532-1.33.99-2.478 2.705-2.478h8c1.234 0 1.65 1.548 1.876 2.896l2.963 11.854z" fill="#333" fill-rule="evenodd"/><path d="M867.923 2206.42c.89 0 1.431.86 1.757 2.81l2.922 11.69h-20.304l4.855-11.654c.063-.15.123-.3.182-.448.514-1.287.958-2.398 2.587-2.398h8m0-.25h-8c-2 0-2.386 1.527-3 3l-5 12h21l-3-12c-.22-1.327-.654-3-2-3z"/><g id="toggle"><path d="M853 2224.056a.914.914 0 0 1-.91-.9l-.017-1.628a2.21 2.21 0 0 1 2.21-2.234h16.83a1.666 1.666 0 0 1 1.666 1.684l-.024 2.177a.912.912 0 0 1-.91.9z" fill="#262626" fill-rule="evenodd"/><path d="M871.112 2219.42a1.541 1.541 0 0 1 1.541 1.558l-.023 2.177a.787.787 0 0 1-.785.776h-18.844a.787.787 0 0 1-.785-.776l-.018-1.627a2.085 2.085 0 0 1 2.085-2.108h16.829m0-.25h-16.829a2.335 2.335 0 0 0-2.335 2.36l.018 1.627a1.035 1.035 0 0 0 1.035 1.024h18.844a1.035 1.035 0 0 0 1.035-1.024l.023-2.177a1.791 1.791 0 0 0-1.791-1.81z"/></g></g></g><g id="toggle-_kill-2" data-name="toggle- kill"><circle cx="857.841" cy="2146.652" r="12.731" fill="#191919"/><path fill="#03196b" fill-rule="evenodd" d="M854.1 2155.615l-5.292-5.292v-7.485l5.292-5.292h7.484l5.292 5.292v7.485l-5.292 5.292H854.1z"/><path d="M861.376 2138.046l5 5v7.07l-5 5h-7.07l-4.999-5v-7.07l5-5h7.07m.414-1h-7.899l-.293.293-5 5-.292.293v7.898l.293.293 5 5 .292.292h7.899l.293-.293 5-5 .292-.292v-7.898l-.293-.293-5-5-.292-.293z"/><ellipse cx="857.841" cy="2146.652" rx="7.19" ry="6.928"/><ellipse cx="857.841" cy="2146.652" rx="5.19" ry="5.001" fill="#333"/><path d="M858.89 2153.465l-.446-.18c-1.33-.532-2.477-.99-2.477-2.704v-8c0-1.236 1.548-1.652 2.896-1.877l11.854-2.963v20.652z" fill="#333" fill-rule="evenodd"/><path d="M870.591 2137.9v20.306l-11.653-4.856c-.15-.062-.3-.122-.449-.182-1.286-.514-2.398-.958-2.398-2.587v-8c0-.891.861-1.432 2.811-1.758l11.69-2.922m.25-.32l-12 3c-1.327.221-3 .655-3 2v8c0 2 1.526 2.386 3 3l12 5v-21z"/><g id="toggle-2" data-name="toggle"><path d="M871.176 2158.43a2.212 2.212 0 0 1-2.21-2.21v-16.828a1.668 1.668 0 0 1 1.667-1.667l2.195.024a.912.912 0 0 1 .9.91v18.844a.912.912 0 0 1-.9.91z" fill="#262626" fill-rule="evenodd"/><path d="M870.633 2137.6l.017.25 2.176.023a.787.787 0 0 1 .777.785v18.844a.787.787 0 0 1-.776.785l-1.651.018a2.087 2.087 0 0 1-2.085-2.085v-16.829a1.543 1.543 0 0 1 1.541-1.541v-.25m0 0a1.791 1.791 0 0 0-1.79 1.791v16.829a2.335 2.335 0 0 0 2.334 2.335h.026l1.627-.018a1.035 1.035 0 0 0 1.024-1.034v-18.845a1.035 1.035 0 0 0-1.024-1.034l-2.177-.024z"/></g></g><g id="locking-tremolo"><g id="plate-3" data-name="plate"><path fill="#009b3a" d="M517.812 2266.455l-.372-55.406h-26.036v-62.561h6.937l21.792-.548 2.625-20.463 155.85-1.016 7.985 21.889 34.45-.071v62.914l-36.092.389-2.25 54.873H517.812z"/><path d="M669.185 2140.023l1.481 4.06 6.488 17.787 18.933-.04 11.456-.023v36.031l-9.918.107-25.637.275-1.05 25.617-1.194 29.118H531.223l-.192-28.587-.18-26.818h-25.947v-35.722l3.99-.1 23.155-.582 2.597-20.246 134.539-.877m65.358-27.123h-10.977l.185 21.874-27.72.057-8-21.931-177.163 1.154-2.653 20.682-10.044.253h-8.093l-3.907-20.935h-8.268v110.496h26.128l.372 55.405H695.66l2.256-55.011 36.628-.394V2112.9z"/></g><path fill="url(#linear-gradient)" d="M520.02 2213.902h10.652v73.639H520.02z"/><path opacity=".84" d="M520.02 2213.902h10.652v73.639H520.02z"/><rect x="515.063" y="2287.354" width="19.178" height="11.442" rx="3.283" fill-opacity=".84" stroke="#000" stroke-miterlimit="10" stroke-width=".25"/><path fill="url(#linear-gradient-2)" d="M551.783 2209.062h10.652v75.478h-10.652z"/><path opacity=".84" d="M551.783 2209.062h10.652v75.478h-10.652z"/><rect x="546.826" y="2284.354" width="19.178" height="11.442" rx="3.283" fill-opacity=".84" stroke="#000" stroke-miterlimit="10" stroke-width=".25"/><path fill="url(#linear-gradient-3)" d="M581.228 2204.062h10.652v78.478h-10.652z"/><path opacity=".84" d="M581.228 2204.062h10.652v78.478h-10.652z"/><rect x="576.271" y="2282.354" width="19.178" height="11.442" rx="3.283" fill-opacity=".84" stroke="#000" stroke-miterlimit="10" stroke-width=".25"/><path fill="url(#linear-gradient-4)" d="M612.991 2213.902h10.652v73.639h-10.652z"/><path opacity=".84" d="M612.991 2213.902h10.652v73.639h-10.652z"/><rect x="608.034" y="2287.354" width="19.178" height="11.442" rx="3.283" fill-opacity=".84" stroke="#000" stroke-miterlimit="10" stroke-width=".25"/><path fill="url(#linear-gradient-5)" d="M642.845 2207.062h10.652v76.478h-10.652z"/><path opacity=".84" d="M642.845 2207.062h10.652v76.478h-10.652z"/><rect x="637.888" y="2283.354" width="19.178" height="11.442" rx="3.283" fill-opacity=".84" stroke="#000" stroke-miterlimit="10" stroke-width=".25"/><path fill="url(#linear-gradient-6)" d="M674.608 2202.062h10.652v76.478h-10.652z"/><path opacity=".84" d="M674.608 2202.062h10.652v76.478h-10.652z"/><rect x="669.651" y="2278.354" width="19.178" height="11.442" rx="3.283" fill-opacity=".84" stroke="#000" stroke-miterlimit="10" stroke-width=".25"/><path fill="#009b3a" d="M504.903 2257.615h191.455v21.84H504.903z"/><path d="M695.858 2258.115v20.84H505.404v-20.84h190.454m1-1H504.404v22.84h192.454v-22.84z"/><path fill="url(#linear-gradient-7)" d="M504.404 2246.801h192.454v10.42H504.404z"/><path fill="#009b3a" d="M504.903 2246.954v-10.813l-.329-7.872h13.75l.195 8.372h14.358v-8.372h15.465l.15 8.372h16.788l-.268-8.372h12.798v8.372h16.885l.086-8.372h15.958v8.372h14.954v-8.507l15.124.131.14 8.376h14.589l.139-8.846 16.458.46.139 8.386h15.295v-8.372h9.701l-.323 7.852-.571 10.833H504.903z"/><path d="M656.177 2228.309l15.474.433.124 7.416.016.983h16.286v-8.372h8.68l-.3 7.32-.547 10.365H505.404l-.002-10.355-.307-7.33h12.74l.172 7.396.023.976h15.347v-8.372h14.473l.133 7.39.017.982h17.795l-.032-1.032-.236-7.34h11.782v8.372h17.881l.01-.99.076-7.382h14.964v8.372h15.953v-8.503l14.133.122.123 7.398.016.983h15.573l.016-.984.123-7.849m-.984-1.028l-.139 8.861h-13.605l-.14-8.372-16.116-.14v8.512H611.24v-8.372h-16.954l-.086 8.372h-15.89v-8.372h-13.815l.268 8.372h-15.78l-.15-8.372h-16.456v8.372h-13.37l-.194-8.372h-14.76l.35 8.372v11.312h192.455l.597-11.312.344-8.372h-10.722v8.372h-14.302l-.14-8.372-17.442-.489z"/><g id="new_lock" data-name="new lock"><g id="locks"><g id="string-lock"><path d="M511.669 2202.32h28.083v5.809a5.773 5.773 0 0 1-5.772 5.772h-16.538a5.773 5.773 0 0 1-5.773-5.772v-5.809z"/><path d="M520.877 2159.879h.494a2.45 2.45 0 0 1 2.45 2.45v12.258h-5.395v-12.257a2.45 2.45 0 0 1 2.451-2.451z" fill="#12110d" stroke="#000" stroke-miterlimit="10" stroke-width=".248"/><path d="M530.84 2159.879h.494a2.45 2.45 0 0 1 2.45 2.45v12.258h-5.395v-12.257a2.45 2.45 0 0 1 2.451-2.451z" fill="#12110d" stroke="#000" stroke-miterlimit="10" stroke-width=".248"/><rect x="511.669" y="2174.359" width="28.084" height="36.371" rx="1.368" fill="#ff0" stroke="#000" stroke-miterlimit="10" stroke-width=".253"/><path fill="#090907" d="M523.822 2161.63h4.864v25.914h-4.864z"/><path stroke="#000" stroke-miterlimit="10" stroke-width=".239" d="M519.055 2184.328h14.173v17.008h-14.173z"/><path fill="#009b3a" d="M520.03 2185.213h12.223v6.982H520.03z"/><path d="M532.128 2185.338v6.732h-11.973v-6.732h11.973m.25-.25h-12.473v7.232h12.473v-7.232z"/></g></g><g id="lock-lock"><path d="M521.124 2113.662h9.913v47.969h-9.913z"/><path d="M517.714 2122.925s-4.454-.744-4.962 4.465l-1.695 24.558h10.642v-25.253a3.882 3.882 0 0 0-3.985-3.77z" fill="#191919" stroke="#000" stroke-miterlimit="10" stroke-width=".257" fill-rule="evenodd"/><path d="M534.269 2122.925s4.454-.744 4.962 4.465l1.695 24.558h-10.642v-25.253a3.882 3.882 0 0 1 3.985-3.77z" fill="#191919" stroke="#000" stroke-miterlimit="10" stroke-width=".257" fill-rule="evenodd"/><path fill="#191919" stroke="#000" stroke-miterlimit="10" stroke-width=".25" d="M511.057 2151.948h7.442v18.047h-7.442z"/><path fill="#191919" stroke="#000" stroke-miterlimit="10" stroke-width=".25" d="M533.484 2151.948h7.442v18.047h-7.442z"/><path fill="#191919" stroke="#000" stroke-miterlimit="10" stroke-width=".25" d="M539.752 2175.088h-6.268v-5.093h7.442l-1.174 5.093z"/><path fill="#191919" stroke="#000" stroke-miterlimit="10" stroke-width=".25" d="M518.426 2175.088h-6.757l-.612-5.093h7.442l-.073 5.093z"/></g></g><g id="locks-2" data-name="locks"><g id="string-lock-2" data-name="string-lock"><path d="M542.003 2197.48h28.084v5.81a5.773 5.773 0 0 1-5.773 5.772h-16.538a5.773 5.773 0 0 1-5.773-5.773v-5.808z"/><path d="M551.253 2155.039h.41a2.492 2.492 0 0 1 2.493 2.492v12.717h-5.395v-12.717a2.492 2.492 0 0 1 2.492-2.492z"/><path d="M561.215 2155.039h.411a2.492 2.492 0 0 1 2.493 2.492v12.717h-5.396v-12.717a2.492 2.492 0 0 1 2.492-2.492z"/><rect x="542.003" y="2169.519" width="28.084" height="36.371" rx="1.368" fill="#ff0" stroke="#000" stroke-miterlimit="10" stroke-width=".253"/><path fill="#090907" d="M553.822 2156.63h4.864v25.914h-4.864z"/><path stroke="#000" stroke-miterlimit="10" stroke-width=".239" d="M549.055 2179.328h14.173v17.008h-14.173z"/><path fill="#009b3a" d="M550.03 2180.213h12.223v6.982H550.03z"/><path d="M562.128 2180.338v6.732h-11.973v-6.732h11.973m.25-.25h-12.473v7.232h12.473v-7.232z"/></g></g><g id="lock-lock-2" data-name="lock-lock"><path d="M551.458 2113.662h9.913v43.129h-9.913z"/><path d="M548.048 2118.086s-4.454-.745-4.962 4.465l-1.695 24.558h10.642v-25.253a3.882 3.882 0 0 0-3.985-3.77z" fill="#191919" stroke="#000" stroke-miterlimit="10" stroke-width=".257" fill-rule="evenodd"/><path d="M564.603 2118.086s4.454-.745 4.962 4.465l1.695 24.558h-10.642v-25.253a3.882 3.882 0 0 1 3.985-3.77z" fill="#191919" stroke="#000" stroke-miterlimit="10" stroke-width=".257" fill-rule="evenodd"/><path fill="#191919" stroke="#000" stroke-miterlimit="10" stroke-width=".25" d="M541.391 2147.109h7.442v18.047h-7.442z"/><path fill="#191919" stroke="#000" stroke-miterlimit="10" stroke-width=".25" d="M563.818 2147.109h7.442v18.047h-7.442z"/><path fill="#191919" stroke="#000" stroke-miterlimit="10" stroke-width=".25" d="M570.087 2170.248h-6.269v-5.093h7.442l-1.173 5.093z"/><path fill="#191919" stroke="#000" stroke-miterlimit="10" stroke-width=".25" d="M548.761 2170.248h-6.758l-.612-5.093h7.442l-.072 5.093z"/></g><g><g id="locks-3" data-name="locks"><g id="string-lock-3" data-name="string-lock"><path d="M572.703 2192.48h28.083v5.81a5.773 5.773 0 0 1-5.773 5.772h-16.538a5.773 5.773 0 0 1-5.772-5.773v-5.808z"/><path d="M581.952 2150.039h.41a2.492 2.492 0 0 1 2.493 2.492v12.717h-5.395v-12.717a2.492 2.492 0 0 1 2.492-2.492z"/><path d="M591.915 2150.039h.41a2.492 2.492 0 0 1 2.493 2.492v12.717h-5.395v-12.717a2.492 2.492 0 0 1 2.492-2.492z"/><rect x="572.703" y="2164.519" width="28.084" height="36.371" rx="1.368" fill="#ff0" stroke="#000" stroke-miterlimit="10" stroke-width=".253"/><path fill="#090907" d="M584.794 2151.79h4.864v25.914h-4.864z"/><path stroke="#000" stroke-miterlimit="10" stroke-width=".239" d="M580.027 2174.488H594.2v17.008h-14.173z"/><path fill="#009b3a" d="M581.003 2175.373h12.223v6.982h-12.223z"/><path d="M593.1 2175.498v6.733h-11.973v-6.733h11.974m.25-.25h-12.474v7.233h12.474v-7.233z"/></g></g><g id="lock-lock-3" data-name="lock-lock"><path d="M582.158 2113.662h9.913v38.129h-9.913z"/><path d="M578.747 2113.086s-4.454-.745-4.962 4.465l-1.695 24.558h10.642v-25.254a3.882 3.882 0 0 0-3.985-3.77z" fill="#191919" stroke="#000" stroke-miterlimit="10" stroke-width=".257" fill-rule="evenodd"/><path d="M595.303 2113.086s4.453-.745 4.961 4.465l1.696 24.558h-10.643v-25.254a3.882 3.882 0 0 1 3.986-3.77z" fill="#191919" stroke="#000" stroke-miterlimit="10" stroke-width=".257" fill-rule="evenodd"/><path fill="#191919" stroke="#000" stroke-miterlimit="10" stroke-width=".25" d="M572.09 2142.109h7.442v18.047h-7.442z"/><path fill="#191919" stroke="#000" stroke-miterlimit="10" stroke-width=".25" d="M594.518 2142.109h7.442v18.047h-7.442z"/><path fill="#191919" stroke="#000" stroke-miterlimit="10" stroke-width=".25" d="M600.786 2165.248h-6.268v-5.093h7.442l-1.174 5.093z"/><path fill="#191919" stroke="#000" stroke-miterlimit="10" stroke-width=".25" d="M579.46 2165.248h-6.757l-.613-5.093h7.442l-.072 5.093z"/></g></g><g><g id="locks-4" data-name="locks"><g id="string-lock-4" data-name="string-lock"><path d="M603.402 2202.48h28.083v5.81a5.773 5.773 0 0 1-5.773 5.772h-16.537a5.773 5.773 0 0 1-5.773-5.773v-5.808z"/><path d="M612.651 2160.039h.411a2.492 2.492 0 0 1 2.492 2.492v12.717h-5.395v-12.717a2.492 2.492 0 0 1 2.492-2.492z"/><path d="M622.614 2160.039h.41a2.492 2.492 0 0 1 2.493 2.492v12.717h-5.395v-12.717a2.492 2.492 0 0 1 2.492-2.492z"/><rect x="603.402" y="2174.519" width="28.084" height="36.371" rx="1.368" fill="#ff0" stroke="#000" stroke-miterlimit="10" stroke-width=".253"/><path fill="#090907" d="M615.493 2161.791h4.864v25.914h-4.864z"/><path stroke="#000" stroke-miterlimit="10" stroke-width=".239" d="M610.727 2184.488H624.9v17.008h-14.173z"/><path fill="#009b3a" d="M611.702 2185.373h12.223v6.983h-12.223z"/><path d="M623.8 2185.498v6.733h-11.973v-6.733H623.8m.25-.25h-12.473v7.233h12.473v-7.233z"/></g></g><g id="lock-lock-4" data-name="lock-lock"><path d="M612.857 2113.31h9.913v48.48h-9.913z"/><path d="M609.447 2123.086s-4.454-.745-4.962 4.465l-1.695 24.558h10.642v-25.253a3.882 3.882 0 0 0-3.985-3.77z" fill="#191919" stroke="#000" stroke-miterlimit="10" stroke-width=".257" fill-rule="evenodd"/><path d="M626.002 2123.086s4.454-.745 4.962 4.465l1.695 24.558h-10.642v-25.253a3.882 3.882 0 0 1 3.985-3.77z" fill="#191919" stroke="#000" stroke-miterlimit="10" stroke-width=".257" fill-rule="evenodd"/><path fill="#191919" stroke="#000" stroke-miterlimit="10" stroke-width=".25" d="M602.79 2152.109h7.442v18.047h-7.442z"/><path fill="#191919" stroke="#000" stroke-miterlimit="10" stroke-width=".25" d="M625.217 2152.109h7.442v18.047h-7.442z"/><path fill="#191919" stroke="#000" stroke-miterlimit="10" stroke-width=".25" d="M631.485 2175.248h-6.268v-5.093h7.442l-1.174 5.093z"/><path fill="#191919" stroke="#000" stroke-miterlimit="10" stroke-width=".25" d="M610.159 2175.248h-6.757l-.612-5.093h7.442l-.073 5.093z"/></g></g><g><g id="locks-5" data-name="locks"><g id="string-lock-5" data-name="string-lock"><path d="M634.101 2195.48h28.084v5.81a5.773 5.773 0 0 1-5.773 5.772h-16.538a5.773 5.773 0 0 1-5.773-5.773v-5.808z"/><path d="M643.35 2153.039h.411a2.492 2.492 0 0 1 2.493 2.492v12.717h-5.396v-12.717a2.492 2.492 0 0 1 2.493-2.492z"/><path d="M653.313 2153.039h.411a2.492 2.492 0 0 1 2.492 2.492v12.717h-5.395v-12.717a2.492 2.492 0 0 1 2.492-2.492z"/><rect x="634.101" y="2167.519" width="28.084" height="36.371" rx="1.368" fill="#ff0" stroke="#000" stroke-miterlimit="10" stroke-width=".253"/><path fill="#090907" d="M645.998 2154.791h4.864v25.914h-4.864z"/><path stroke="#000" stroke-miterlimit="10" stroke-width=".239" d="M641.231 2177.488h14.173v17.008h-14.173z"/><path fill="#009b3a" d="M642.206 2178.373h12.224v6.982h-12.224z"/><path d="M654.304 2178.498v6.733h-11.973v-6.733h11.973m.25-.25h-12.473v7.233h12.473v-7.233z"/></g></g><g id="lock-lock-5" data-name="lock-lock"><path d="M643.556 2113.31h9.913v41.48h-9.913z"/><path d="M640.146 2116.086s-4.454-.745-4.962 4.465l-1.695 24.558h10.642v-25.253a3.882 3.882 0 0 0-3.985-3.77z" fill="#191919" stroke="#000" stroke-miterlimit="10" stroke-width=".257" fill-rule="evenodd"/><path d="M656.701 2116.086s4.454-.745 4.962 4.465l1.695 24.558h-10.642v-25.253a3.882 3.882 0 0 1 3.985-3.77z" fill="#191919" stroke="#000" stroke-miterlimit="10" stroke-width=".257" fill-rule="evenodd"/><path fill="#191919" stroke="#000" stroke-miterlimit="10" stroke-width=".25" d="M633.489 2145.109h7.442v18.047h-7.442z"/><path fill="#191919" stroke="#000" stroke-miterlimit="10" stroke-width=".25" d="M655.916 2145.109h7.442v18.047h-7.442z"/><path fill="#191919" stroke="#000" stroke-miterlimit="10" stroke-width=".25" d="M662.185 2168.248h-6.269v-5.093h7.442l-1.173 5.093z"/><path fill="#191919" stroke="#000" stroke-miterlimit="10" stroke-width=".25" d="M640.858 2168.248h-6.757l-.612-5.093h7.442l-.073 5.093z"/></g></g><g><g id="locks-6" data-name="locks"><g id="string-lock-6" data-name="string-lock"><path d="M664.8 2190.48h28.084v5.81a5.773 5.773 0 0 1-5.773 5.772h-16.538a5.773 5.773 0 0 1-5.773-5.773v-5.808z"/><path d="M674.05 2148.039h.41a2.492 2.492 0 0 1 2.493 2.492v12.717h-5.395v-12.717a2.492 2.492 0 0 1 2.492-2.492z"/><path d="M684.013 2148.039h.41a2.492 2.492 0 0 1 2.493 2.492v12.717h-5.396v-12.717a2.492 2.492 0 0 1 2.493-2.492z"/><rect x="664.8" y="2162.519" width="28.084" height="36.371" rx="1.368" fill="#ff0" stroke="#000" stroke-miterlimit="10" stroke-width=".253"/><path fill="#090907" d="M676.892 2149.79h4.864v25.914h-4.864z"/><path stroke="#000" stroke-miterlimit="10" stroke-width=".239" d="M672.125 2172.488h14.173v17.008h-14.173z"/><path fill="#009b3a" d="M673.101 2173.373h12.223v6.982h-12.223z"/><path d="M685.198 2173.498v6.733h-11.973v-6.733h11.973m.25-.25h-12.473v7.233h12.473v-7.233z"/></g></g><g id="lock-lock-6" data-name="lock-lock"><path d="M674.255 2113.049h9.913v36.742h-9.913z"/><path d="M670.845 2111.086s-4.454-.745-4.962 4.465l-1.695 24.558h10.642v-25.254a3.882 3.882 0 0 0-3.985-3.77z" fill="#191919" stroke="#000" stroke-miterlimit="10" stroke-width=".257" fill-rule="evenodd"/><path d="M687.4 2111.086s4.454-.745 4.962 4.465l1.695 24.558h-10.642v-25.254a3.882 3.882 0 0 1 3.986-3.77z" fill="#191919" stroke="#000" stroke-miterlimit="10" stroke-width=".257" fill-rule="evenodd"/><path fill="#191919" stroke="#000" stroke-miterlimit="10" stroke-width=".25" d="M664.188 2140.109h7.442v18.047h-7.442z"/><path fill="#191919" stroke="#000" stroke-miterlimit="10" stroke-width=".25" d="M686.615 2140.109h7.442v18.047h-7.442z"/><path fill="#191919" stroke="#000" stroke-miterlimit="10" stroke-width=".25" d="M692.884 2163.248h-6.268v-5.093h7.441l-1.173 5.093z"/><path fill="#191919" stroke="#000" stroke-miterlimit="10" stroke-width=".25" d="M671.558 2163.248H664.8l-.612-5.093h7.442l-.072 5.093z"/></g></g><g id="lock-lock-color-group-1"><path d="M587.782 2139.017a6.769 6.769 0 1 1 6.769-6.769 6.776 6.776 0 0 1-6.769 6.77z" fill="#009b3a"/><path d="M587.782 2126.98a5.269 5.269 0 1 1-5.268 5.269 5.275 5.275 0 0 1 5.268-5.269m0-3a8.269 8.269 0 1 0 8.269 8.268 8.268 8.268 0 0 0-8.269-8.268z" fill="#ff0"/><path d="M679.88 2137.017a6.769 6.769 0 1 1 6.769-6.769 6.776 6.776 0 0 1-6.769 6.77z" fill="#009b3a"/><path d="M679.88 2124.98a5.269 5.269 0 1 1-5.269 5.269 5.275 5.275 0 0 1 5.269-5.269m0-3a8.269 8.269 0 1 0 8.268 8.269 8.269 8.269 0 0 0-8.268-8.269z" fill="#ff0"/><path d="M649.18 2142.017a6.769 6.769 0 1 1 6.77-6.768 6.776 6.776 0 0 1-6.77 6.768z" fill="#009b3a"/><path d="M649.18 2129.98a5.269 5.269 0 1 1-5.268 5.269 5.275 5.275 0 0 1 5.269-5.269m0-3a8.269 8.269 0 1 0 8.268 8.268 8.268 8.268 0 0 0-8.268-8.268z" fill="#ff0"/><g><circle cx="618.481" cy="2142.249" r="6.769" fill="#009b3a"/><path d="M618.481 2136.98a5.269 5.269 0 1 1-5.268 5.269 5.275 5.275 0 0 1 5.269-5.269m0-3a8.269 8.269 0 1 0 8.268 8.269 8.268 8.268 0 0 0-8.269-8.269z" fill="#ff0"/></g><g><path d="M557.083 2144.017a6.769 6.769 0 1 1 6.769-6.768 6.776 6.776 0 0 1-6.77 6.768z" fill="#009b3a"/><path d="M557.083 2131.98a5.269 5.269 0 1 1-5.269 5.269 5.275 5.275 0 0 1 5.269-5.269m0-3a8.269 8.269 0 1 0 8.269 8.268 8.269 8.269 0 0 0-8.27-8.268z" fill="#ff0"/></g><g><circle cx="526.749" cy="2142.088" r="6.769" fill="#009b3a"/><path d="M526.749 2136.82a5.269 5.269 0 1 1-5.269 5.268 5.275 5.275 0 0 1 5.269-5.269m0-3a8.269 8.269 0 1 0 8.268 8.269 8.269 8.269 0 0 0-8.268-8.269z" fill="#ff0"/></g></g><g id="fine-tuners"><g id="fine-tuners-2" data-name="fine-tuners"><g id="fine-tuner"><path d="M688.665 2268.57c0 2.23-3.579 0-7.993 0s-7.995 2.23-7.995 0a7.902 7.902 0 0 1 7.994-8.07c1.662 0 7.994 1.036 7.994 8.07z" stroke="#000" stroke-miterlimit="10" stroke-width=".25"/><ellipse cx="680.672" cy="2269.245" rx="7.994" ry="5.71" fill="#ff0"/></g></g><g id="fine-tuners-3" data-name="fine-tuners"><g id="fine-tuner-2" data-name="fine-tuner"><path d="M657.175 2268.57c0 2.23-3.58 0-7.994 0s-7.994 2.23-7.994 0a7.902 7.902 0 0 1 7.994-8.07c1.661 0 7.994 1.036 7.994 8.07z" stroke="#000" stroke-miterlimit="10" stroke-width=".25"/><ellipse cx="649.181" cy="2269.245" rx="7.994" ry="5.71" fill="#ff0"/></g></g><g id="fine-tuners-4" data-name="fine-tuners"><g id="fine-tuner-3" data-name="fine-tuner"><path d="M626.475 2268.57c0 2.23-3.579 0-7.993 0s-7.994 2.23-7.994 0a7.902 7.902 0 0 1 7.993-8.07c1.662 0 7.995 1.036 7.994 8.07z" stroke="#000" stroke-miterlimit="10" stroke-width=".25"/><ellipse cx="618.481" cy="2269.245" rx="7.994" ry="5.71" fill="#ff0"/></g></g><g id="fine-tuners-5" data-name="fine-tuners"><g id="fine-tuner-4" data-name="fine-tuner"><path d="M595.776 2268.57c0 2.23-3.579 0-7.994 0s-7.994 2.23-7.994 0a7.902 7.902 0 0 1 7.994-8.07c1.662 0 7.994 1.036 7.994 8.07z" stroke="#000" stroke-miterlimit="10" stroke-width=".25"/><ellipse cx="587.782" cy="2269.245" rx="7.994" ry="5.71" fill="#ff0"/></g></g><g id="fine-tuners-6" data-name="fine-tuners"><g id="fine-tuner-5" data-name="fine-tuner"><path d="M565.103 2268.57c0 2.23-3.58 0-7.994 0s-7.994 2.23-7.994 0a7.902 7.902 0 0 1 7.994-8.07c1.661 0 7.994 1.036 7.994 8.07z" stroke="#000" stroke-miterlimit="10" stroke-width=".25"/><ellipse cx="557.109" cy="2269.245" rx="7.994" ry="5.71" fill="#ff0"/></g></g><g id="fine-tuners-7" data-name="fine-tuners"><g id="fine-tuner-6" data-name="fine-tuner"><path d="M534.742 2268.57c0 2.23-3.579 0-7.993 0s-7.994 2.23-7.994 0a7.902 7.902 0 0 1 7.994-8.07c1.661 0 7.994 1.036 7.993 8.07z" stroke="#000" stroke-miterlimit="10" stroke-width=".25"/><ellipse cx="526.749" cy="2269.245" rx="7.994" ry="5.71" fill="#ff0"/></g></g></g><g id="whammy"><ellipse cx="711.403" cy="2177.164" rx="16.353" ry="13.391" stroke="#000" stroke-miterlimit="10" stroke-width=".248"/><path d="M711.402 2187.056a15.853 15.853 0 1 1 15.854-15.853 15.87 15.87 0 0 1-15.854 15.853z" fill="#009b3a" fill-rule="evenodd"/><path d="M711.403 2155.85a15.353 15.353 0 1 1-15.354 15.352 15.37 15.37 0 0 1 15.354-15.353m0-1a16.353 16.353 0 1 0 16.353 16.353 16.353 16.353 0 0 0-16.353-16.353z"/><g><path d="M720.555 2164.64c9.586-48.732 37.43-187.333 40.22-200.643s5.581-22.24 0-40.659-46.839-168-49.373-176.372-18.864-17.58-13.906 3.628 44.302 156 47.093 174.977 3.349 22.154 1.116 38.426-39.628 198.108-40.744 203.19c1.675 5.08 12.326 14.068 15.594-2.547z" fill-rule="evenodd"/><path d="M700.645 1737.591c-3.254 0-5.405 3.352-3.149 13.003 4.958 21.209 44.303 156 47.093 174.976s3.35 22.155 1.117 38.426-39.628 198.109-40.745 203.19c.951 2.886 4.798 7.032 8.543 7.032 2.848 0 5.639-2.4 7.05-9.578 9.587-48.732 37.43-187.334 40.22-200.644s5.582-22.24 0-40.658-46.838-168-49.372-176.372c-1.38-4.563-6.86-9.375-10.758-9.375z" fill="#009b3a"/></g></g><path d="M504.252 2255.999h192.606v1.116H504.252z"/></g><g id="strings"><g id="strings-2" data-name="strings"><path fill="none" stroke="#333" stroke-miterlimit="10" stroke-width="1.5" fill-rule="evenodd" d="M676.602 2167.572l-26.14-1869.664 6.818-59.751"/><path fill="none" stroke="#333" stroke-miterlimit="10" stroke-width="4" fill-rule="evenodd" d="M525.137 2177.84l26.127-1834.578-.015-45.354-13.049-60.426"/><path fill="none" stroke="#333" stroke-miterlimit="10" stroke-width="3.5" fill-rule="evenodd" d="M554.928 2175.142l16.178-1837.549-.014-39.685-8.075-114.914"/><path fill="none" stroke="#333" stroke-miterlimit="10" stroke-width="3.25" fill-rule="evenodd" d="M585.625 2171.096l5.309-1873.188-6.538-166.054"/><path fill="none" stroke="#333" stroke-miterlimit="10" stroke-width="2.75" fill-rule="evenodd" d="M615.951 2173.503l-5.174-1875.595 2.903-167.449"/><path fill="none" stroke="#333" stroke-miterlimit="10" stroke-width="2" fill-rule="evenodd" d="M646.113 2170.398L630.62 297.908l-.568-113.477"/></g><circle cx="537.354" cy="238.988" r="6.051" fill="#fed100" id="tuning_tops" data-name="tuning tops"/><circle cx="660.857" cy="239.973" r="6.051" fill="#fed100" id="tuning_tops-2" data-name="tuning tops"/><circle cx="633.032" cy="186.866" r="6.051" fill="#fed100" id="tuning_tops-3" data-name="tuning tops"/><circle cx="560.31" cy="185.407" r="6.051" fill="#fed100" id="tuning_tops-4" data-name="tuning tops"/><circle cx="580.982" cy="131.854" r="6.051" fill="#fed100" id="tuning_tops-5" data-name="tuning tops"/><circle cx="615.969" cy="132.839" r="6.051" fill="#fed100" id="tuning_tops-6" data-name="tuning tops"/><g id="string_locks" data-name="string locks"><path d="M544.739 303.577h34.016v34.016h-34.016z"/><path fill="#009b3a" fill-rule="evenodd" d="M546.203 326.791v-12.412l8.776-8.776h12.412l8.776 8.776v12.412l-8.776 8.776h-12.412l-8.776-8.776z"/><path fill="#036825" fill-rule="evenodd" d="M550.985 324.818v-8.438l5.967-5.967h8.438l5.967 5.967v8.438l-5.967 5.967h-8.438l-5.967-5.967z"/><path fill="#036825" fill-rule="evenodd" d="M590.684 324.818v-8.438l5.967-5.967h8.438l5.967 5.967v8.438l-5.967 5.967h-8.438l-5.967-5.967z"/><g><path d="M583.848 303.577h34.016v34.016h-34.016z"/><path fill="#009b3a" fill-rule="evenodd" d="M601.785 304.438l10.981 5.784 3.675 11.855-5.784 10.981-11.855 3.674-10.981-5.784-3.675-11.855 5.784-10.981 11.855-3.674z"/><path fill="#036825" fill-rule="evenodd" d="M601.302 309.587l7.465 3.933 2.499 8.06-3.933 7.466-8.06 2.498-7.466-3.932-2.498-8.06 3.933-7.466 8.06-2.499z"/></g><g><path d="M623.533 303.577h34.016v34.016h-34.016z"/><path fill="#009b3a" fill-rule="evenodd" d="M643.966 337.015l-12.209-2.231-7.055-10.211 2.231-12.209 10.211-7.056 12.209 2.232 7.055 10.211-2.231 12.209-10.211 7.055z"/><path fill="#036825" fill-rule="evenodd" d="M642.874 331.94l-8.301-1.517-4.797-6.942 1.518-8.301 6.942-4.797 8.301 1.517 4.797 6.942-1.518 8.301-6.942 4.797z"/></g></g></g><g id="slider"><path d="M781.23 1966.874h45.767v142.575H781.23z"/><path fill="url(#radial-gradient)" d="M787.514 1970.608h33.199v135.107h-33.199z"/></g></g></g><path id="black" d="M751.09 1723.143s-30.991-88.362-43.181-127.99c-26.144-7.255-28.628-33.73-28.628-33.73h-1.488l-17.395-1218.16v-5.67h-.015v-39.686l-2.598-9.354-.134-13.328 38.448 9.42-16.384-49.257 3.64-1.726 3.795 10.273a2.849 2.849 0 0 0 3.66 1.684l11.769-4.35a9.274 9.274 0 0 0 5.484-11.914l-6.932-18.758a9.276 9.276 0 0 0-11.915-5.484l-11.769 4.35a2.847 2.847 0 0 0-1.684 3.658l4.588 12.416-3.38 1.603-14.524-43.67 5.867-2.273 3.602 9.298a2.848 2.848 0 0 0 3.685 1.627l11.7-4.532c4.776-1.85 7.148-7.222 5.298-10.999l-7.223-18.647c-1.85-5.777-7.223-8.149-12-6.299l-11.7 4.533a2.847 2.847 0 0 0-1.627 3.684l5.115 13.203-5.473 2.12-15.575-46.826 4.722-1.342 4.175 11.45a2.849 2.849 0 0 0 3.652 1.7l11.788-4.299a9.274 9.274 0 0 0 5.535-11.89l-6.85-18.788a9.276 9.276 0 0 0-11.892-5.536l-11.787 4.3a2.847 2.847 0 0 0-1.7 3.65l4.63 12.694-4.526 1.286-26.919-80.932c-5.29-13.834-24.886-13.768-30.082.102l-28.74 76.705-6.56-2.797 5.2-12.198a2.847 2.847 0 0 0-1.503-3.737l-11.542-4.92a9.276 9.276 0 0 0-12.17 4.895l-7.84 18.396a9.274 9.274 0 0 0 4.894 12.169l11.542 4.92a2.848 2.848 0 0 0 3.737-1.503l4.412-10.351 6.902 2.942-17.775 47.441-5.778-2.74 5.683-11.98a2.848 2.848 0 0 0-1.353-3.795l-11.336-5.377a9.276 9.276 0 0 0-12.355 4.405l-8.57 18.069a9.274 9.274 0 0 0 4.405 12.354l11.337 5.377a2.848 2.848 0 0 0 3.794-1.352l5.596-11.8 6.277 2.977-17.256 46.056-7.158-3.395 5.662-11.939a2.847 2.847 0 0 0-1.352-3.794l-11.337-5.377a9.276 9.276 0 0 0-12.355 4.405l-8.57 18.068a9.275 9.275 0 0 0 4.406 12.355l11.336 5.377a2.848 2.848 0 0 0 3.794-1.353l4.842-10.208 7.796 3.698-17.758 47.395 42.785-6.094-3.895 578.541-.402 28.132-.022 1.502-1.02 71.396-.022 1.502-.963 67.306-.021 1.503-.907 63.442-.022 1.502-.855 59.797-.022 1.503-.806 56.358-.021 1.502-.76 53.11-.022 1.503-.715 50.045-.022 1.503-.674 47.151-.022 1.502-.635 44.422-.021 1.503-.599 41.842-.021 1.502-.564 39.41-.021 1.503-.53 37.114-.022 1.502-.426 29.777h-1.052s-4.26 14.754-26.585 26.475c-40.186 111.628-45.668 135.245-45.668 135.245L57.44 2891.34s209.422-312.471 393.178-410.46c0 0 153.947-92.053 196.365-111.03 35.163 3.908 104.108 41.243 104.108 41.243l325.33 189.472zM547.15 272.738l-.69 2.985-.606-2.8z" fill-rule="evenodd"/></g></g></svg>